<mxfile host="app.diagrams.net" agent="Mozilla/5.0 (Windows NT 10.0; Win64; x64) AppleWebKit/537.36 (KHTML, like Gecko) Chrome/137.0.0.0 Safari/537.36" version="27.1.6">
  <diagram name="Страница — 1" id="1afbodYXvhYKUIlaba5m">
    <mxGraphModel grid="1" page="1" gridSize="10" guides="1" tooltips="1" connect="1" arrows="1" fold="1" pageScale="1" pageWidth="3300" pageHeight="2339" math="0" shadow="0">
      <root>
        <mxCell id="0" />
        <mxCell id="1" parent="0" />
        <mxCell id="d9NACrC1jrvQQoZLHop2-86" value="" style="whiteSpace=wrap;html=1;" vertex="1" parent="1">
          <mxGeometry x="1270" y="80" width="380" height="510" as="geometry" />
        </mxCell>
        <mxCell id="d9NACrC1jrvQQoZLHop2-63" value="" style="whiteSpace=wrap;html=1;" vertex="1" parent="1">
          <mxGeometry x="1690" y="80" width="540" height="450" as="geometry" />
        </mxCell>
        <mxCell id="d9NACrC1jrvQQoZLHop2-61" value="" style="whiteSpace=wrap;html=1;" vertex="1" parent="1">
          <mxGeometry x="215" y="80" width="1010" height="1320" as="geometry" />
        </mxCell>
        <mxCell id="5Gi6GqFoqggM13kyjRXZ-1" value="Player" style="swimlane;fontStyle=1;align=center;verticalAlign=top;childLayout=stackLayout;horizontal=1;startSize=26;horizontalStack=0;resizeParent=1;resizeParentMax=0;resizeLast=0;collapsible=1;marginBottom=0;whiteSpace=wrap;html=1;" vertex="1" parent="1">
          <mxGeometry x="310" y="440" width="180" height="360" as="geometry" />
        </mxCell>
        <mxCell id="5Gi6GqFoqggM13kyjRXZ-2" value="&lt;div&gt;+level: int&lt;/div&gt;&lt;div&gt;+exp: int&lt;/div&gt;+strength: int&lt;div&gt;+agility: int&lt;/div&gt;&lt;div&gt;+spirit: int&lt;/div&gt;&lt;div&gt;+evasion: float&lt;/div&gt;&lt;div&gt;+maxHealth: float&lt;/div&gt;&lt;div&gt;+currentHealth: float&lt;/div&gt;&lt;div&gt;+maxReiki: float&lt;/div&gt;&lt;div&gt;+currentReiki: float&lt;/div&gt;&lt;div&gt;+Ki: int&lt;/div&gt;&lt;div&gt;+kuraiBlade: KuraiBlade&lt;/div&gt;&lt;div&gt;+blessings: vector&amp;lt;Blessings&amp;gt;&lt;/div&gt;&lt;div&gt;&lt;br&gt;&lt;/div&gt;" style="text;strokeColor=none;fillColor=none;align=left;verticalAlign=top;spacingLeft=4;spacingRight=4;overflow=hidden;rotatable=0;points=[[0,0.5],[1,0.5]];portConstraint=eastwest;whiteSpace=wrap;html=1;" vertex="1" parent="5Gi6GqFoqggM13kyjRXZ-1">
          <mxGeometry y="26" width="180" height="234" as="geometry" />
        </mxCell>
        <mxCell id="5Gi6GqFoqggM13kyjRXZ-3" value="" style="line;strokeWidth=1;fillColor=none;align=left;verticalAlign=middle;spacingTop=-1;spacingLeft=3;spacingRight=3;rotatable=0;labelPosition=right;points=[];portConstraint=eastwest;strokeColor=inherit;" vertex="1" parent="5Gi6GqFoqggM13kyjRXZ-1">
          <mxGeometry y="260" width="180" height="8" as="geometry" />
        </mxCell>
        <mxCell id="5Gi6GqFoqggM13kyjRXZ-4" value="+takeDamage(float damage)&lt;div&gt;+heal(float amount)&lt;/div&gt;&lt;div&gt;+levelUp()&lt;/div&gt;&lt;div&gt;+updateKi(int delta)&lt;/div&gt;" style="text;strokeColor=none;fillColor=none;align=left;verticalAlign=top;spacingLeft=4;spacingRight=4;overflow=hidden;rotatable=0;points=[[0,0.5],[1,0.5]];portConstraint=eastwest;whiteSpace=wrap;html=1;" vertex="1" parent="5Gi6GqFoqggM13kyjRXZ-1">
          <mxGeometry y="268" width="180" height="92" as="geometry" />
        </mxCell>
        <mxCell id="d9NACrC1jrvQQoZLHop2-1" value="KuraiBlade" style="swimlane;fontStyle=1;align=center;verticalAlign=top;childLayout=stackLayout;horizontal=1;startSize=26;horizontalStack=0;resizeParent=1;resizeParentMax=0;resizeLast=0;collapsible=1;marginBottom=0;whiteSpace=wrap;html=1;" vertex="1" parent="1">
          <mxGeometry x="300" y="870" width="200" height="160" as="geometry" />
        </mxCell>
        <mxCell id="d9NACrC1jrvQQoZLHop2-2" value="+minDamage: int&lt;div&gt;+maxDamage: int&lt;/div&gt;&lt;div&gt;+accuracy: float&lt;/div&gt;&lt;div&gt;+critChance: float&lt;/div&gt;&lt;div&gt;+spiritCapacity: int&lt;/div&gt;" style="text;strokeColor=none;fillColor=none;align=left;verticalAlign=top;spacingLeft=4;spacingRight=4;overflow=hidden;rotatable=0;points=[[0,0.5],[1,0.5]];portConstraint=eastwest;whiteSpace=wrap;html=1;" vertex="1" parent="d9NACrC1jrvQQoZLHop2-1">
          <mxGeometry y="26" width="200" height="84" as="geometry" />
        </mxCell>
        <mxCell id="d9NACrC1jrvQQoZLHop2-3" value="" style="line;strokeWidth=1;fillColor=none;align=left;verticalAlign=middle;spacingTop=-1;spacingLeft=3;spacingRight=3;rotatable=0;labelPosition=right;points=[];portConstraint=eastwest;strokeColor=inherit;" vertex="1" parent="d9NACrC1jrvQQoZLHop2-1">
          <mxGeometry y="110" width="200" height="8" as="geometry" />
        </mxCell>
        <mxCell id="d9NACrC1jrvQQoZLHop2-4" value="+upgradeStat(BladeStatType stat)" style="text;strokeColor=none;fillColor=none;align=left;verticalAlign=top;spacingLeft=4;spacingRight=4;overflow=hidden;rotatable=0;points=[[0,0.5],[1,0.5]];portConstraint=eastwest;whiteSpace=wrap;html=1;" vertex="1" parent="d9NACrC1jrvQQoZLHop2-1">
          <mxGeometry y="118" width="200" height="42" as="geometry" />
        </mxCell>
        <mxCell id="d9NACrC1jrvQQoZLHop2-8" value="&lt;font style=&quot;font-size: 37px;&quot;&gt;Model&lt;/font&gt;" style="text;strokeColor=none;fillColor=none;html=1;align=center;verticalAlign=middle;whiteSpace=wrap;rounded=0;fontSize=16;" vertex="1" parent="1">
          <mxGeometry x="620" y="100" width="200" height="50" as="geometry" />
        </mxCell>
        <mxCell id="d9NACrC1jrvQQoZLHop2-9" value="" style="endArrow=diamondThin;endFill=1;endSize=24;html=1;rounded=0;fontSize=12;curved=1;exitX=0.5;exitY=0;exitDx=0;exitDy=0;" edge="1" parent="1" source="d9NACrC1jrvQQoZLHop2-1" target="5Gi6GqFoqggM13kyjRXZ-4">
          <mxGeometry width="160" relative="1" as="geometry">
            <mxPoint x="475" y="530" as="sourcePoint" />
            <mxPoint x="635" y="530" as="targetPoint" />
          </mxGeometry>
        </mxCell>
        <mxCell id="d9NACrC1jrvQQoZLHop2-10" value="GameState" style="swimlane;fontStyle=1;align=center;verticalAlign=top;childLayout=stackLayout;horizontal=1;startSize=26;horizontalStack=0;resizeParent=1;resizeParentMax=0;resizeLast=0;collapsible=1;marginBottom=0;whiteSpace=wrap;html=1;" vertex="1" parent="1">
          <mxGeometry x="630" y="180" width="180" height="200" as="geometry" />
        </mxCell>
        <mxCell id="d9NACrC1jrvQQoZLHop2-11" value="+currentLocation: Location&lt;div&gt;+currentMenu: MENU&lt;/div&gt;&lt;div&gt;+player: Player&lt;/div&gt;&lt;div&gt;+inventory: Inventory&lt;/div&gt;&lt;div&gt;+gameEnding: EndingType&lt;/div&gt;" style="text;strokeColor=none;fillColor=none;align=left;verticalAlign=top;spacingLeft=4;spacingRight=4;overflow=hidden;rotatable=0;points=[[0,0.5],[1,0.5]];portConstraint=eastwest;whiteSpace=wrap;html=1;" vertex="1" parent="d9NACrC1jrvQQoZLHop2-10">
          <mxGeometry y="26" width="180" height="94" as="geometry" />
        </mxCell>
        <mxCell id="d9NACrC1jrvQQoZLHop2-12" value="" style="line;strokeWidth=1;fillColor=none;align=left;verticalAlign=middle;spacingTop=-1;spacingLeft=3;spacingRight=3;rotatable=0;labelPosition=right;points=[];portConstraint=eastwest;strokeColor=inherit;" vertex="1" parent="d9NACrC1jrvQQoZLHop2-10">
          <mxGeometry y="120" width="180" height="8" as="geometry" />
        </mxCell>
        <mxCell id="d9NACrC1jrvQQoZLHop2-13" value="+loadGame(string savePath)&lt;div&gt;+saveGame(string savePath)&lt;/div&gt;&lt;div&gt;+calculateEnding()&lt;/div&gt;" style="text;strokeColor=none;fillColor=none;align=left;verticalAlign=top;spacingLeft=4;spacingRight=4;overflow=hidden;rotatable=0;points=[[0,0.5],[1,0.5]];portConstraint=eastwest;whiteSpace=wrap;html=1;" vertex="1" parent="d9NACrC1jrvQQoZLHop2-10">
          <mxGeometry y="128" width="180" height="72" as="geometry" />
        </mxCell>
        <mxCell id="d9NACrC1jrvQQoZLHop2-14" value="Inventory" style="swimlane;fontStyle=1;align=center;verticalAlign=top;childLayout=stackLayout;horizontal=1;startSize=26;horizontalStack=0;resizeParent=1;resizeParentMax=0;resizeLast=0;collapsible=1;marginBottom=0;whiteSpace=wrap;html=1;" vertex="1" parent="1">
          <mxGeometry x="640" y="460" width="160" height="130" as="geometry" />
        </mxCell>
        <mxCell id="d9NACrC1jrvQQoZLHop2-15" value="+soulCoins: int&lt;div&gt;+items: vector&amp;lt;Item*&amp;gt;&lt;/div&gt;" style="text;strokeColor=none;fillColor=none;align=left;verticalAlign=top;spacingLeft=4;spacingRight=4;overflow=hidden;rotatable=0;points=[[0,0.5],[1,0.5]];portConstraint=eastwest;whiteSpace=wrap;html=1;" vertex="1" parent="d9NACrC1jrvQQoZLHop2-14">
          <mxGeometry y="26" width="160" height="54" as="geometry" />
        </mxCell>
        <mxCell id="d9NACrC1jrvQQoZLHop2-16" value="" style="line;strokeWidth=1;fillColor=none;align=left;verticalAlign=middle;spacingTop=-1;spacingLeft=3;spacingRight=3;rotatable=0;labelPosition=right;points=[];portConstraint=eastwest;strokeColor=inherit;" vertex="1" parent="d9NACrC1jrvQQoZLHop2-14">
          <mxGeometry y="80" width="160" height="8" as="geometry" />
        </mxCell>
        <mxCell id="d9NACrC1jrvQQoZLHop2-17" value="+addItem(Item* item)&lt;div&gt;+useItem(int index)&lt;/div&gt;" style="text;strokeColor=none;fillColor=none;align=left;verticalAlign=top;spacingLeft=4;spacingRight=4;overflow=hidden;rotatable=0;points=[[0,0.5],[1,0.5]];portConstraint=eastwest;whiteSpace=wrap;html=1;" vertex="1" parent="d9NACrC1jrvQQoZLHop2-14">
          <mxGeometry y="88" width="160" height="42" as="geometry" />
        </mxCell>
        <mxCell id="d9NACrC1jrvQQoZLHop2-18" value="Location" style="swimlane;fontStyle=1;align=center;verticalAlign=top;childLayout=stackLayout;horizontal=1;startSize=26;horizontalStack=0;resizeParent=1;resizeParentMax=0;resizeLast=0;collapsible=1;marginBottom=0;whiteSpace=wrap;html=1;" vertex="1" parent="1">
          <mxGeometry x="865" y="440" width="190" height="160" as="geometry" />
        </mxCell>
        <mxCell id="d9NACrC1jrvQQoZLHop2-19" value="+id: int&lt;div&gt;-name: string&lt;/div&gt;&lt;div&gt;-description: string&lt;/div&gt;&lt;div&gt;-objects: vector&amp;lt;LocationObject&amp;gt;&lt;/div&gt;&lt;div&gt;+connectedLocations: vector&amp;lt;int&amp;gt;&lt;/div&gt;" style="text;strokeColor=none;fillColor=none;align=left;verticalAlign=top;spacingLeft=4;spacingRight=4;overflow=hidden;rotatable=0;points=[[0,0.5],[1,0.5]];portConstraint=eastwest;whiteSpace=wrap;html=1;" vertex="1" parent="d9NACrC1jrvQQoZLHop2-18">
          <mxGeometry y="26" width="190" height="84" as="geometry" />
        </mxCell>
        <mxCell id="d9NACrC1jrvQQoZLHop2-20" value="" style="line;strokeWidth=1;fillColor=none;align=left;verticalAlign=middle;spacingTop=-1;spacingLeft=3;spacingRight=3;rotatable=0;labelPosition=right;points=[];portConstraint=eastwest;strokeColor=inherit;" vertex="1" parent="d9NACrC1jrvQQoZLHop2-18">
          <mxGeometry y="110" width="190" height="8" as="geometry" />
        </mxCell>
        <mxCell id="d9NACrC1jrvQQoZLHop2-21" value="+getObj()&lt;div&gt;+getInfo()&lt;/div&gt;" style="text;strokeColor=none;fillColor=none;align=left;verticalAlign=top;spacingLeft=4;spacingRight=4;overflow=hidden;rotatable=0;points=[[0,0.5],[1,0.5]];portConstraint=eastwest;whiteSpace=wrap;html=1;" vertex="1" parent="d9NACrC1jrvQQoZLHop2-18">
          <mxGeometry y="118" width="190" height="42" as="geometry" />
        </mxCell>
        <mxCell id="d9NACrC1jrvQQoZLHop2-22" value="CombatSystem" style="swimlane;fontStyle=1;align=center;verticalAlign=top;childLayout=stackLayout;horizontal=1;startSize=26;horizontalStack=0;resizeParent=1;resizeParentMax=0;resizeLast=0;collapsible=1;marginBottom=0;whiteSpace=wrap;html=1;" vertex="1" parent="1">
          <mxGeometry x="620" y="640" width="200" height="120" as="geometry" />
        </mxCell>
        <mxCell id="d9NACrC1jrvQQoZLHop2-23" value="+currentEnemy: Enemy*" style="text;strokeColor=none;fillColor=none;align=left;verticalAlign=top;spacingLeft=4;spacingRight=4;overflow=hidden;rotatable=0;points=[[0,0.5],[1,0.5]];portConstraint=eastwest;whiteSpace=wrap;html=1;" vertex="1" parent="d9NACrC1jrvQQoZLHop2-22">
          <mxGeometry y="26" width="200" height="24" as="geometry" />
        </mxCell>
        <mxCell id="d9NACrC1jrvQQoZLHop2-24" value="" style="line;strokeWidth=1;fillColor=none;align=left;verticalAlign=middle;spacingTop=-1;spacingLeft=3;spacingRight=3;rotatable=0;labelPosition=right;points=[];portConstraint=eastwest;strokeColor=inherit;" vertex="1" parent="d9NACrC1jrvQQoZLHop2-22">
          <mxGeometry y="50" width="200" height="8" as="geometry" />
        </mxCell>
        <mxCell id="d9NACrC1jrvQQoZLHop2-25" value="+startCombat(Player&amp;amp; player, Enemy&amp;amp; enemy)&lt;div&gt;+endCombat()&lt;/div&gt;" style="text;strokeColor=none;fillColor=none;align=left;verticalAlign=top;spacingLeft=4;spacingRight=4;overflow=hidden;rotatable=0;points=[[0,0.5],[1,0.5]];portConstraint=eastwest;whiteSpace=wrap;html=1;" vertex="1" parent="d9NACrC1jrvQQoZLHop2-22">
          <mxGeometry y="58" width="200" height="62" as="geometry" />
        </mxCell>
        <mxCell id="d9NACrC1jrvQQoZLHop2-26" value="DataLoaders" style="swimlane;fontStyle=1;align=center;verticalAlign=top;childLayout=stackLayout;horizontal=1;startSize=26;horizontalStack=0;resizeParent=1;resizeParentMax=0;resizeLast=0;collapsible=1;marginBottom=0;whiteSpace=wrap;html=1;" vertex="1" parent="1">
          <mxGeometry x="640" y="1130" width="160" height="128" as="geometry" />
        </mxCell>
        <mxCell id="d9NACrC1jrvQQoZLHop2-29" value="+loadLocations(string filePath)&lt;div&gt;+loadPlayer(string filePath)&lt;/div&gt;&lt;div&gt;+loadItems(string filePath)&lt;/div&gt;&lt;div&gt;+loadEnemies(string filePath)&lt;/div&gt;" style="text;strokeColor=none;fillColor=none;align=left;verticalAlign=top;spacingLeft=4;spacingRight=4;overflow=hidden;rotatable=0;points=[[0,0.5],[1,0.5]];portConstraint=eastwest;whiteSpace=wrap;html=1;" vertex="1" parent="d9NACrC1jrvQQoZLHop2-26">
          <mxGeometry y="26" width="160" height="102" as="geometry" />
        </mxCell>
        <mxCell id="d9NACrC1jrvQQoZLHop2-32" value="" style="endArrow=diamondThin;endFill=1;endSize=24;html=1;rounded=0;fontSize=12;curved=1;exitX=0.5;exitY=0;exitDx=0;exitDy=0;entryX=0;entryY=0.5;entryDx=0;entryDy=0;" edge="1" parent="1" source="5Gi6GqFoqggM13kyjRXZ-1" target="d9NACrC1jrvQQoZLHop2-11">
          <mxGeometry width="160" relative="1" as="geometry">
            <mxPoint x="400" y="140" as="sourcePoint" />
            <mxPoint x="560" y="140" as="targetPoint" />
            <Array as="points">
              <mxPoint x="390" y="253" />
            </Array>
          </mxGeometry>
        </mxCell>
        <mxCell id="d9NACrC1jrvQQoZLHop2-33" value="" style="endArrow=diamondThin;endFill=1;endSize=24;html=1;rounded=0;fontSize=12;curved=1;exitX=0.5;exitY=0;exitDx=0;exitDy=0;entryX=0.501;entryY=0.969;entryDx=0;entryDy=0;entryPerimeter=0;" edge="1" parent="1" source="d9NACrC1jrvQQoZLHop2-14" target="d9NACrC1jrvQQoZLHop2-13">
          <mxGeometry width="160" relative="1" as="geometry">
            <mxPoint x="830" y="500" as="sourcePoint" />
            <mxPoint x="990" y="500" as="targetPoint" />
          </mxGeometry>
        </mxCell>
        <mxCell id="d9NACrC1jrvQQoZLHop2-34" value="" style="endArrow=diamondThin;endFill=0;endSize=24;html=1;rounded=0;fontSize=12;curved=1;exitX=0.5;exitY=0;exitDx=0;exitDy=0;entryX=1;entryY=0.5;entryDx=0;entryDy=0;" edge="1" parent="1" source="d9NACrC1jrvQQoZLHop2-18" target="d9NACrC1jrvQQoZLHop2-11">
          <mxGeometry width="160" relative="1" as="geometry">
            <mxPoint x="830" y="500" as="sourcePoint" />
            <mxPoint x="990" y="500" as="targetPoint" />
            <Array as="points">
              <mxPoint x="970" y="260" />
            </Array>
          </mxGeometry>
        </mxCell>
        <mxCell id="d9NACrC1jrvQQoZLHop2-39" value="Enemy" style="swimlane;fontStyle=1;align=center;verticalAlign=top;childLayout=stackLayout;horizontal=1;startSize=26;horizontalStack=0;resizeParent=1;resizeParentMax=0;resizeLast=0;collapsible=1;marginBottom=0;whiteSpace=wrap;html=1;" vertex="1" parent="1">
          <mxGeometry x="880" y="640" width="160" height="300" as="geometry" />
        </mxCell>
        <mxCell id="d9NACrC1jrvQQoZLHop2-40" value="-data: EnemyData&lt;div&gt;+name: string&lt;br&gt;&lt;div&gt;+strength: int&lt;div&gt;+agility: int&lt;/div&gt;&lt;div&gt;+spirit: int&lt;/div&gt;&lt;div&gt;+evasion: float&lt;/div&gt;&lt;div&gt;+accuracy: float&lt;/div&gt;&lt;div&gt;+minDamage: int&lt;/div&gt;&lt;div&gt;+maxDamage: int&lt;/div&gt;&lt;div&gt;+maxHealth: float&lt;/div&gt;&lt;div&gt;+currentHealth: float&lt;/div&gt;&lt;/div&gt;&lt;div&gt;+spells: vector&amp;lt;spells&amp;gt;&lt;/div&gt;&lt;/div&gt;" style="text;strokeColor=none;fillColor=none;align=left;verticalAlign=top;spacingLeft=4;spacingRight=4;overflow=hidden;rotatable=0;points=[[0,0.5],[1,0.5]];portConstraint=eastwest;whiteSpace=wrap;html=1;" vertex="1" parent="d9NACrC1jrvQQoZLHop2-39">
          <mxGeometry y="26" width="160" height="184" as="geometry" />
        </mxCell>
        <mxCell id="d9NACrC1jrvQQoZLHop2-41" value="" style="line;strokeWidth=1;fillColor=none;align=left;verticalAlign=middle;spacingTop=-1;spacingLeft=3;spacingRight=3;rotatable=0;labelPosition=right;points=[];portConstraint=eastwest;strokeColor=inherit;" vertex="1" parent="d9NACrC1jrvQQoZLHop2-39">
          <mxGeometry y="210" width="160" height="8" as="geometry" />
        </mxCell>
        <mxCell id="d9NACrC1jrvQQoZLHop2-42" value="+takeDamage(float damage)&lt;div&gt;+applyAttack()&lt;/div&gt;&lt;div&gt;+applySpell()&lt;/div&gt;" style="text;strokeColor=none;fillColor=none;align=left;verticalAlign=top;spacingLeft=4;spacingRight=4;overflow=hidden;rotatable=0;points=[[0,0.5],[1,0.5]];portConstraint=eastwest;whiteSpace=wrap;html=1;" vertex="1" parent="d9NACrC1jrvQQoZLHop2-39">
          <mxGeometry y="218" width="160" height="82" as="geometry" />
        </mxCell>
        <mxCell id="d9NACrC1jrvQQoZLHop2-45" value="CombatLogic" style="swimlane;fontStyle=1;align=center;verticalAlign=top;childLayout=stackLayout;horizontal=1;startSize=26;horizontalStack=0;resizeParent=1;resizeParentMax=0;resizeLast=0;collapsible=1;marginBottom=0;whiteSpace=wrap;html=1;" vertex="1" parent="1">
          <mxGeometry x="610" y="825" width="220" height="250" as="geometry" />
        </mxCell>
        <mxCell id="d9NACrC1jrvQQoZLHop2-46" value="+currentEnemy: Enemy*&lt;div&gt;+Player: Player*&lt;/div&gt;" style="text;strokeColor=none;fillColor=none;align=left;verticalAlign=top;spacingLeft=4;spacingRight=4;overflow=hidden;rotatable=0;points=[[0,0.5],[1,0.5]];portConstraint=eastwest;whiteSpace=wrap;html=1;" vertex="1" parent="d9NACrC1jrvQQoZLHop2-45">
          <mxGeometry y="26" width="220" height="54" as="geometry" />
        </mxCell>
        <mxCell id="d9NACrC1jrvQQoZLHop2-47" value="" style="line;strokeWidth=1;fillColor=none;align=left;verticalAlign=middle;spacingTop=-1;spacingLeft=3;spacingRight=3;rotatable=0;labelPosition=right;points=[];portConstraint=eastwest;strokeColor=inherit;" vertex="1" parent="d9NACrC1jrvQQoZLHop2-45">
          <mxGeometry y="80" width="220" height="8" as="geometry" />
        </mxCell>
        <mxCell id="d9NACrC1jrvQQoZLHop2-48" value="+calcDamage(Player&amp;amp; player, Enemy&amp;amp; enemy): float&lt;div&gt;+calcHitChance(Player&amp;amp; player, Enemy&amp;amp; enemy): float&lt;/div&gt;&lt;div&gt;+attemptPurification(Player&amp;amp; player, Enemy&amp;amp; enemy)&lt;/div&gt;&lt;div&gt;+applyBlessing(Player&amp;amp; player, Enemy&amp;amp; enemy)&lt;/div&gt;&lt;div&gt;+applySpell(Player&amp;amp; player, Enemy&amp;amp; enemy)&lt;/div&gt;" style="text;strokeColor=none;fillColor=none;align=left;verticalAlign=top;spacingLeft=4;spacingRight=4;overflow=hidden;rotatable=0;points=[[0,0.5],[1,0.5]];portConstraint=eastwest;whiteSpace=wrap;html=1;" vertex="1" parent="d9NACrC1jrvQQoZLHop2-45">
          <mxGeometry y="88" width="220" height="162" as="geometry" />
        </mxCell>
        <mxCell id="d9NACrC1jrvQQoZLHop2-60" value="" style="endArrow=open;endSize=12;dashed=1;html=1;rounded=0;fontSize=12;curved=1;exitX=0.5;exitY=1;exitDx=0;exitDy=0;entryX=0.5;entryY=0;entryDx=0;entryDy=0;exitPerimeter=0;" edge="1" parent="1" source="d9NACrC1jrvQQoZLHop2-25" target="d9NACrC1jrvQQoZLHop2-45">
          <mxGeometry width="160" relative="1" as="geometry">
            <mxPoint x="550" y="810" as="sourcePoint" />
            <mxPoint x="710" y="810" as="targetPoint" />
          </mxGeometry>
        </mxCell>
        <mxCell id="d9NACrC1jrvQQoZLHop2-64" value="&lt;span style=&quot;font-size: 37px;&quot;&gt;Controller&lt;/span&gt;" style="text;strokeColor=none;fillColor=none;html=1;align=center;verticalAlign=middle;whiteSpace=wrap;rounded=0;fontSize=16;" vertex="1" parent="1">
          <mxGeometry x="1860" y="100" width="200" height="50" as="geometry" />
        </mxCell>
        <mxCell id="d9NACrC1jrvQQoZLHop2-65" value="GameController" style="swimlane;fontStyle=1;align=center;verticalAlign=top;childLayout=stackLayout;horizontal=1;startSize=26;horizontalStack=0;resizeParent=1;resizeParentMax=0;resizeLast=0;collapsible=1;marginBottom=0;whiteSpace=wrap;html=1;" vertex="1" parent="1">
          <mxGeometry x="1955" y="210" width="190" height="110" as="geometry" />
        </mxCell>
        <mxCell id="d9NACrC1jrvQQoZLHop2-68" value="+handeMovement(int direction)&lt;div&gt;+handleCharControl()&lt;/div&gt;&lt;div&gt;+handleInventoryUse()&lt;/div&gt;&lt;div&gt;+handleBlessingGetting()&lt;/div&gt;&lt;div&gt;&lt;br&gt;&lt;/div&gt;&lt;div&gt;&lt;br&gt;&lt;/div&gt;" style="text;strokeColor=none;fillColor=none;align=left;verticalAlign=top;spacingLeft=4;spacingRight=4;overflow=hidden;rotatable=0;points=[[0,0.5],[1,0.5]];portConstraint=eastwest;whiteSpace=wrap;html=1;" vertex="1" parent="d9NACrC1jrvQQoZLHop2-65">
          <mxGeometry y="26" width="190" height="84" as="geometry" />
        </mxCell>
        <mxCell id="d9NACrC1jrvQQoZLHop2-69" value="CombatController" style="swimlane;fontStyle=1;align=center;verticalAlign=top;childLayout=stackLayout;horizontal=1;startSize=26;horizontalStack=0;resizeParent=1;resizeParentMax=0;resizeLast=0;collapsible=1;marginBottom=0;whiteSpace=wrap;html=1;" vertex="1" parent="1">
          <mxGeometry x="1970" y="380" width="160" height="100" as="geometry" />
        </mxCell>
        <mxCell id="d9NACrC1jrvQQoZLHop2-72" value="+handleAttack()&lt;div&gt;+handleBlessUse()&lt;/div&gt;&lt;div&gt;+handlePurification()&lt;/div&gt;" style="text;strokeColor=none;fillColor=none;align=left;verticalAlign=top;spacingLeft=4;spacingRight=4;overflow=hidden;rotatable=0;points=[[0,0.5],[1,0.5]];portConstraint=eastwest;whiteSpace=wrap;html=1;" vertex="1" parent="d9NACrC1jrvQQoZLHop2-69">
          <mxGeometry y="26" width="160" height="74" as="geometry" />
        </mxCell>
        <mxCell id="d9NACrC1jrvQQoZLHop2-73" value="" style="endArrow=block;startArrow=block;endFill=1;startFill=1;html=1;rounded=0;fontSize=12;startSize=8;endSize=8;curved=1;entryX=0.494;entryY=1.046;entryDx=0;entryDy=0;entryPerimeter=0;exitX=0.5;exitY=0;exitDx=0;exitDy=0;" edge="1" parent="1" source="d9NACrC1jrvQQoZLHop2-69" target="d9NACrC1jrvQQoZLHop2-68">
          <mxGeometry width="160" relative="1" as="geometry">
            <mxPoint x="1800" y="230" as="sourcePoint" />
            <mxPoint x="1960" y="230" as="targetPoint" />
          </mxGeometry>
        </mxCell>
        <mxCell id="d9NACrC1jrvQQoZLHop2-78" value="InputHandler" style="swimlane;fontStyle=1;align=center;verticalAlign=top;childLayout=stackLayout;horizontal=1;startSize=26;horizontalStack=0;resizeParent=1;resizeParentMax=0;resizeLast=0;collapsible=1;marginBottom=0;whiteSpace=wrap;html=1;" vertex="1" parent="1">
          <mxGeometry x="1710" y="210" width="160" height="110" as="geometry" />
        </mxCell>
        <mxCell id="d9NACrC1jrvQQoZLHop2-81" value="+parseCommand(string input): Command&lt;div&gt;+validateInput(string input): bool&lt;/div&gt;" style="text;strokeColor=none;fillColor=none;align=left;verticalAlign=top;spacingLeft=4;spacingRight=4;overflow=hidden;rotatable=0;points=[[0,0.5],[1,0.5]];portConstraint=eastwest;whiteSpace=wrap;html=1;" vertex="1" parent="d9NACrC1jrvQQoZLHop2-78">
          <mxGeometry y="26" width="160" height="84" as="geometry" />
        </mxCell>
        <mxCell id="d9NACrC1jrvQQoZLHop2-85" value="Command" style="html=1;verticalAlign=bottom;endArrow=block;curved=0;rounded=0;fontSize=12;startSize=8;endSize=8;entryX=0;entryY=0.5;entryDx=0;entryDy=0;" edge="1" parent="1" target="d9NACrC1jrvQQoZLHop2-68">
          <mxGeometry width="80" relative="1" as="geometry">
            <mxPoint x="1870" y="278" as="sourcePoint" />
            <mxPoint x="1900" y="660" as="targetPoint" />
          </mxGeometry>
        </mxCell>
        <mxCell id="d9NACrC1jrvQQoZLHop2-87" value="&lt;font style=&quot;font-size: 37px;&quot;&gt;View&lt;/font&gt;" style="text;strokeColor=none;fillColor=none;html=1;align=center;verticalAlign=middle;whiteSpace=wrap;rounded=0;fontSize=16;" vertex="1" parent="1">
          <mxGeometry x="1355" y="100" width="200" height="50" as="geometry" />
        </mxCell>
        <mxCell id="d9NACrC1jrvQQoZLHop2-92" value="TextView" style="swimlane;fontStyle=1;align=center;verticalAlign=top;childLayout=stackLayout;horizontal=1;startSize=26;horizontalStack=0;resizeParent=1;resizeParentMax=0;resizeLast=0;collapsible=1;marginBottom=0;whiteSpace=wrap;html=1;" vertex="1" parent="1">
          <mxGeometry x="1370" y="200" width="160" height="230" as="geometry" />
        </mxCell>
        <mxCell id="d9NACrC1jrvQQoZLHop2-95" value="+showLocation(Location* location)&lt;div&gt;+showCombatMenu(Player* player, Enemy* enemy)&lt;/div&gt;&lt;div&gt;+showInventory(Inventory* inventory)&lt;/div&gt;&lt;div&gt;+showPlayerInfo()&lt;/div&gt;&lt;div&gt;+showKuraiMenu()&lt;/div&gt;&lt;div&gt;+showLevelUp()&lt;/div&gt;&lt;div&gt;+showBlessings()&lt;/div&gt;&lt;div&gt;+showMainMenu()&lt;/div&gt;&lt;div&gt;+showSettings()&lt;/div&gt;&lt;div&gt;+showSaveLoad()&lt;/div&gt;" style="text;strokeColor=none;fillColor=none;align=left;verticalAlign=top;spacingLeft=4;spacingRight=4;overflow=hidden;rotatable=0;points=[[0,0.5],[1,0.5]];portConstraint=eastwest;whiteSpace=wrap;html=1;" vertex="1" parent="d9NACrC1jrvQQoZLHop2-92">
          <mxGeometry y="26" width="160" height="204" as="geometry" />
        </mxCell>
        <mxCell id="d9NACrC1jrvQQoZLHop2-100" value="UIDataFormatter" style="swimlane;fontStyle=1;align=center;verticalAlign=top;childLayout=stackLayout;horizontal=1;startSize=26;horizontalStack=0;resizeParent=1;resizeParentMax=0;resizeLast=0;collapsible=1;marginBottom=0;whiteSpace=wrap;html=1;" vertex="1" parent="1">
          <mxGeometry x="1370" y="470" width="160" height="70" as="geometry" />
        </mxCell>
        <mxCell id="d9NACrC1jrvQQoZLHop2-103" value="+formatKiBar()&lt;div&gt;+formatBlessingsList()&lt;/div&gt;" style="text;strokeColor=none;fillColor=none;align=left;verticalAlign=top;spacingLeft=4;spacingRight=4;overflow=hidden;rotatable=0;points=[[0,0.5],[1,0.5]];portConstraint=eastwest;whiteSpace=wrap;html=1;" vertex="1" parent="d9NACrC1jrvQQoZLHop2-100">
          <mxGeometry y="26" width="160" height="44" as="geometry" />
        </mxCell>
        <mxCell id="d9NACrC1jrvQQoZLHop2-108" value="" style="endArrow=open;endSize=12;dashed=1;html=1;rounded=0;fontSize=12;curved=1;exitX=0.5;exitY=0;exitDx=0;exitDy=0;entryX=0.501;entryY=0.994;entryDx=0;entryDy=0;entryPerimeter=0;" edge="1" parent="1" source="d9NACrC1jrvQQoZLHop2-100" target="d9NACrC1jrvQQoZLHop2-95">
          <mxGeometry width="160" relative="1" as="geometry">
            <mxPoint x="1370" y="540" as="sourcePoint" />
            <mxPoint x="1530" y="540" as="targetPoint" />
          </mxGeometry>
        </mxCell>
        <mxCell id="Hbi1QOY0UXYjOB43KlsM-5" value="Blessings" style="swimlane;fontStyle=1;align=center;verticalAlign=top;childLayout=stackLayout;horizontal=1;startSize=26;horizontalStack=0;resizeParent=1;resizeParentMax=0;resizeLast=0;collapsible=1;marginBottom=0;whiteSpace=wrap;html=1;" vertex="1" parent="1">
          <mxGeometry x="300" y="1060" width="200" height="120" as="geometry" />
        </mxCell>
        <mxCell id="Hbi1QOY0UXYjOB43KlsM-6" value="+name: string&lt;div&gt;+type: string&lt;/div&gt;&lt;div&gt;+cost: int&lt;/div&gt;&lt;div&gt;+effect: string&lt;/div&gt;" style="text;strokeColor=none;fillColor=none;align=left;verticalAlign=top;spacingLeft=4;spacingRight=4;overflow=hidden;rotatable=0;points=[[0,0.5],[1,0.5]];portConstraint=eastwest;whiteSpace=wrap;html=1;" vertex="1" parent="Hbi1QOY0UXYjOB43KlsM-5">
          <mxGeometry y="26" width="200" height="94" as="geometry" />
        </mxCell>
        <mxCell id="Hbi1QOY0UXYjOB43KlsM-9" value="" style="endArrow=diamondThin;endFill=0;endSize=24;html=1;rounded=0;exitX=1;exitY=0.5;exitDx=0;exitDy=0;entryX=1;entryY=0.5;entryDx=0;entryDy=0;" edge="1" parent="1" source="Hbi1QOY0UXYjOB43KlsM-6" target="5Gi6GqFoqggM13kyjRXZ-4">
          <mxGeometry width="160" relative="1" as="geometry">
            <mxPoint x="340" y="1090" as="sourcePoint" />
            <mxPoint x="500" y="1090" as="targetPoint" />
            <Array as="points">
              <mxPoint x="570" y="1133" />
              <mxPoint x="570" y="754" />
            </Array>
          </mxGeometry>
        </mxCell>
        <mxCell id="Hbi1QOY0UXYjOB43KlsM-10" value="EnemyData" style="swimlane;fontStyle=1;align=center;verticalAlign=top;childLayout=stackLayout;horizontal=1;startSize=26;horizontalStack=0;resizeParent=1;resizeParentMax=0;resizeLast=0;collapsible=1;marginBottom=0;whiteSpace=wrap;html=1;" vertex="1" parent="1">
          <mxGeometry x="880" y="1099" width="160" height="190" as="geometry" />
        </mxCell>
        <mxCell id="Hbi1QOY0UXYjOB43KlsM-11" value="&lt;div&gt;+id: string&lt;/div&gt;&lt;div&gt;+strength: int&lt;div&gt;+agility: int&lt;/div&gt;&lt;div&gt;+spirit: int&lt;/div&gt;&lt;div&gt;+evasion: float&lt;/div&gt;&lt;div&gt;+accuracy: float&lt;/div&gt;&lt;div&gt;+minDamage: int&lt;/div&gt;&lt;div&gt;+maxDamage: int&lt;/div&gt;&lt;div&gt;+maxHealth: float&lt;/div&gt;&lt;/div&gt;&lt;div&gt;+spells: vector&amp;lt;spells&amp;gt;&lt;/div&gt;" style="text;strokeColor=none;fillColor=none;align=left;verticalAlign=top;spacingLeft=4;spacingRight=4;overflow=hidden;rotatable=0;points=[[0,0.5],[1,0.5]];portConstraint=eastwest;whiteSpace=wrap;html=1;" vertex="1" parent="Hbi1QOY0UXYjOB43KlsM-10">
          <mxGeometry y="26" width="160" height="164" as="geometry" />
        </mxCell>
        <mxCell id="d9NACrC1jrvQQoZLHop2-43" value="" style="endArrow=open;endSize=12;dashed=1;html=1;rounded=0;fontSize=12;curved=1;exitX=-0.015;exitY=1.167;exitDx=0;exitDy=0;entryX=1;entryY=0.5;entryDx=0;entryDy=0;exitPerimeter=0;" edge="1" parent="1" source="d9NACrC1jrvQQoZLHop2-23" target="5Gi6GqFoqggM13kyjRXZ-2">
          <mxGeometry width="160" relative="1" as="geometry">
            <mxPoint x="660" y="760" as="sourcePoint" />
            <mxPoint x="820" y="760" as="targetPoint" />
          </mxGeometry>
        </mxCell>
        <mxCell id="d9NACrC1jrvQQoZLHop2-44" value="" style="endArrow=open;endSize=12;dashed=1;html=1;rounded=0;fontSize=12;curved=1;entryX=0;entryY=0.5;entryDx=0;entryDy=0;exitX=1;exitY=1;exitDx=0;exitDy=0;exitPerimeter=0;" edge="1" parent="1" source="d9NACrC1jrvQQoZLHop2-23" target="d9NACrC1jrvQQoZLHop2-40">
          <mxGeometry width="160" relative="1" as="geometry">
            <mxPoint x="710" y="670" as="sourcePoint" />
            <mxPoint x="870" y="670" as="targetPoint" />
          </mxGeometry>
        </mxCell>
        <mxCell id="Hbi1QOY0UXYjOB43KlsM-12" value="" style="endArrow=open;endSize=12;dashed=1;html=1;rounded=0;entryX=0.5;entryY=0;entryDx=0;entryDy=0;exitX=0.5;exitY=1.049;exitDx=0;exitDy=0;exitPerimeter=0;" edge="1" parent="1" source="d9NACrC1jrvQQoZLHop2-42" target="Hbi1QOY0UXYjOB43KlsM-10">
          <mxGeometry width="160" relative="1" as="geometry">
            <mxPoint x="820" y="990" as="sourcePoint" />
            <mxPoint x="980" y="990" as="targetPoint" />
          </mxGeometry>
        </mxCell>
        <mxCell id="Hbi1QOY0UXYjOB43KlsM-14" value="" style="endArrow=open;endSize=12;dashed=1;html=1;rounded=0;entryX=1;entryY=0.5;entryDx=0;entryDy=0;exitX=0;exitY=0.5;exitDx=0;exitDy=0;" edge="1" parent="1" source="Hbi1QOY0UXYjOB43KlsM-11" target="d9NACrC1jrvQQoZLHop2-29">
          <mxGeometry width="160" relative="1" as="geometry">
            <mxPoint x="750" y="1390" as="sourcePoint" />
            <mxPoint x="910" y="1390" as="targetPoint" />
          </mxGeometry>
        </mxCell>
        <mxCell id="Hbi1QOY0UXYjOB43KlsM-15" value="LocationsData" style="swimlane;fontStyle=1;align=center;verticalAlign=top;childLayout=stackLayout;horizontal=1;startSize=26;horizontalStack=0;resizeParent=1;resizeParentMax=0;resizeLast=0;collapsible=1;marginBottom=0;whiteSpace=wrap;html=1;" vertex="1" parent="1">
          <mxGeometry x="1050" y="1099" width="160" height="190" as="geometry" />
        </mxCell>
        <mxCell id="Hbi1QOY0UXYjOB43KlsM-16" value="+id: int&lt;div&gt;-name: string&lt;/div&gt;&lt;div&gt;-description: string&lt;/div&gt;&lt;div&gt;-objects: vector&amp;lt;LocationObject&amp;gt;&lt;/div&gt;&lt;div&gt;+connectedLocations: vector&amp;lt;int&amp;gt;&lt;/div&gt;" style="text;strokeColor=none;fillColor=none;align=left;verticalAlign=top;spacingLeft=4;spacingRight=4;overflow=hidden;rotatable=0;points=[[0,0.5],[1,0.5]];portConstraint=eastwest;whiteSpace=wrap;html=1;" vertex="1" parent="Hbi1QOY0UXYjOB43KlsM-15">
          <mxGeometry y="26" width="160" height="164" as="geometry" />
        </mxCell>
        <mxCell id="Hbi1QOY0UXYjOB43KlsM-17" value="" style="endArrow=open;endSize=12;dashed=1;html=1;rounded=0;exitX=1;exitY=0.5;exitDx=0;exitDy=0;entryX=0.5;entryY=0;entryDx=0;entryDy=0;" edge="1" parent="1" source="d9NACrC1jrvQQoZLHop2-19" target="Hbi1QOY0UXYjOB43KlsM-15">
          <mxGeometry width="160" relative="1" as="geometry">
            <mxPoint x="1055" y="690" as="sourcePoint" />
            <mxPoint x="1215" y="690" as="targetPoint" />
            <Array as="points">
              <mxPoint x="1130" y="508" />
            </Array>
          </mxGeometry>
        </mxCell>
        <mxCell id="Hbi1QOY0UXYjOB43KlsM-18" value="" style="endArrow=open;endSize=12;dashed=1;html=1;rounded=0;entryX=0.506;entryY=1;entryDx=0;entryDy=0;entryPerimeter=0;exitX=0.494;exitY=1.012;exitDx=0;exitDy=0;exitPerimeter=0;" edge="1" parent="1" source="Hbi1QOY0UXYjOB43KlsM-16" target="d9NACrC1jrvQQoZLHop2-29">
          <mxGeometry width="160" relative="1" as="geometry">
            <mxPoint x="720" y="1390" as="sourcePoint" />
            <mxPoint x="880" y="1390" as="targetPoint" />
            <Array as="points">
              <mxPoint x="1129" y="1370" />
              <mxPoint x="720" y="1370" />
            </Array>
          </mxGeometry>
        </mxCell>
        <mxCell id="Hbi1QOY0UXYjOB43KlsM-19" value="BlessingsData" style="swimlane;fontStyle=1;align=center;verticalAlign=top;childLayout=stackLayout;horizontal=1;startSize=26;horizontalStack=0;resizeParent=1;resizeParentMax=0;resizeLast=0;collapsible=1;marginBottom=0;whiteSpace=wrap;html=1;" vertex="1" parent="1">
          <mxGeometry x="320" y="1220" width="160" height="100" as="geometry" />
        </mxCell>
        <mxCell id="Hbi1QOY0UXYjOB43KlsM-20" value="+name: string&lt;div&gt;+type: string&lt;/div&gt;&lt;div&gt;+cost: int&lt;/div&gt;&lt;div&gt;+effect: string&lt;/div&gt;" style="text;strokeColor=none;fillColor=none;align=left;verticalAlign=top;spacingLeft=4;spacingRight=4;overflow=hidden;rotatable=0;points=[[0,0.5],[1,0.5]];portConstraint=eastwest;whiteSpace=wrap;html=1;" vertex="1" parent="Hbi1QOY0UXYjOB43KlsM-19">
          <mxGeometry y="26" width="160" height="74" as="geometry" />
        </mxCell>
        <mxCell id="Hbi1QOY0UXYjOB43KlsM-21" value="" style="endArrow=open;endSize=12;dashed=1;html=1;rounded=0;entryX=0.5;entryY=1.012;entryDx=0;entryDy=0;entryPerimeter=0;exitX=0.5;exitY=0;exitDx=0;exitDy=0;" edge="1" parent="1" source="Hbi1QOY0UXYjOB43KlsM-19" target="Hbi1QOY0UXYjOB43KlsM-6">
          <mxGeometry width="160" relative="1" as="geometry">
            <mxPoint x="410" y="1420" as="sourcePoint" />
            <mxPoint x="570" y="1420" as="targetPoint" />
          </mxGeometry>
        </mxCell>
        <mxCell id="Xc4o_MEQR1hn2dSGwkAX-1" value="" style="shape=image;verticalLabelPosition=bottom;labelBackgroundColor=default;verticalAlign=top;aspect=fixed;imageAspect=0;image=data:image/png,iVBORw0KGgoAAAANSUhEUgAAAlkAAAGzCAYAAAAczwI+AAAAAXNSR0IArs4c6QAAAARnQU1BAACxjwv8YQUAAAAJcEhZcwAADsMAAA7DAcdvqGQAAGkPSURBVHhe7d29c9NYHzf8r665/wJ7MiE02S4uAo6rB5okVwEdcehk0l5LAtnd8vGkIBgoMn5KlrDAbhusjjh02SZJA3eVBFLY3dLAMhn7X9BTHL0cnXNkS7YVIPl+ZjwDtqKXI+nop985OrJmrv3XBRERERGN1H/UL4iIiIhoeAyyiIiIiDLAIIuIiIgoAwyyiIiIiDJgyR3fLauIe0/XMJuXpujsof7bSxy6g/WPLy1vojoXmSEO6r/g+fFg8yMiIiL6EZiDLCQLrBbXHdiF5IGYCLjAIIuIiIjOvYGaC0vLm3BeOygdNdBWfyQiIiKi9EGWtVBDdfoj6ksV1N6qvxIRERERBgmy3J0a7F9f9G0aJCIiIrrIUgdZRERERNQfgywiIiKiDDDIIiIiIsoAgywiIiKiDDDIIiIiIsoAgywiIiKiDDDIIiIiIspA6iDLssp49NqB89pBY6uCKQDIz6O61YDz2oGzXlb/hIiIiOjCGerdhWnx3YVERER0UaTOZBERERFRfwyyiIiIiDJgDrLkPla/r6BkWeoUiZWWN8V8XjuozuXVn4mIiIjOpUifLCIiIiIaDXMmi4iIiIiGwiCLiIiIKAMMsoiIiIgywCCLiIiIKAMMsoiIiIgycO6fLlxcd2AXpC9aDdiPm9IXF5sYhV8ZWoNlRERENLRzG2SZXhFkWWXUtiqY6mTz2qAfjbVQw+bEG9x/eRz5rmEXAJYRERHRUM5tc+HM3buYzbfgSIGC6zZRq++hm5/Hz3evqn9y4bg7tUiABQB4+wYHHQD5S5iM/kJEREQpBJks0Wx0CmfpDS4/XcOs34IUk9HQmuHQgrP0CNvedCIjAjhLhyhtVTAFoO1UsD3xzGueik4PU9NVzLL7CTJWhmYvNcN1hKvi/3GD0XvzsIor2KzOI2eap/Lb4roDe8yf/wJqWxWM7W/g/stjr1zGgpdk+5mjtlPBwx2v7Pz1B9D1/s7Xr9yHFZRPXp9vkOWSyOsNqSwgrXc4T70pst88g7KNTBGllpF2HKHDl5ITEdGZUzJZBdhba5g+2YB9x0ZlqYF2fh7VBwuRqRbXHZSOKrDv2OF0KMDeeojFyCt4CrC3buJrvQKnBUzdeIafpz+i7k1/U8omLa47qM4BB3Ux38rSBg4wj6o2zwSuTmAMQPfrP+ovcN1jfD41ZGo6e6gvqdsk+fAOJx0AhZK2PjPXriCHDg6aO5HvBxEGWC04SxUtwEpW7oMTGUCgu/9GD7BmDoNl23dssU/tBh4txC87DLA6Yt+qAVafebrHL3Bf+r2+3/ECy7Ac1ADrZ7ySymgDB508ZqvPcL8Yv55ERESjpjUXylkB123isKUHFtuP7Uj2wnWbqDktAGO4rLbCtXbDDEIeOPnrJY68n3LjPwFetuJmAWg7YbbBdY/xx1976KKA0i0xvVVcwXPvPYjmT02s5+Ql5ACcfvngLSnq09eOeV17cN1j/PF3C5DWB14QcX06H93OAUUDLD07larcE1pcj5ZhdS6vZYbgNS2qGbzmExGIjk2YFx4NsPRM0iDz7Ofw5Wpk3cPjKI9xtn8SEdEZUoKsDk7emwOTZPQLWftIzu6c4rNh9iIT1MLhW+WHD19wCmBqRmTS1KyG/qlpgclIvT1EW1ofAMCt25jNq9s5CNGsGBdg9aaXe1Lbj6NlWKnvAXNrYcCagB8sR/3UM8DqxzzP4QwauBEREQ1Cy2QlYVllPFKySGq/mjQmx/Ne02IjOk+vX1Jqn/5Ft8dFVSzPHPD14rpNbO93gMLNoOmpPCOexNtWA8SUpmy/D1a0mU426nI3cY9fYNURGTu5OReGrFev/ZObq3h9sHpn+NLMMwnLKuL+78o8+/TpIiIiykLqIMsqrmDTHwZB7sPktNRJExPNd9F+NpGP16SUuLnQy4CZsiGWVcTlMQCdf/FJ/TGBo/cf0UUe09euwrLKKBWA7sm71J3zVW2ngvp+B7m5NTxfLqo/Z1LuSfmBi13w+lX5y1b7rUm6+xti3QoVOOtl9eeB5tmPaG71O+1L86zvoatOTERElLHUQZbf36n9d/qn/uIcfTnV+jqZJG0ujOtLBgC4eh3T+cHX3z1+gd0WkJu+jplbJUyhhd1XKVNiMQ5frsJpwRxoZVDucWYmxoBIn7afMJ4gK6Vyd2qio7ox0Bpsnj35Dzz0yAYSERGdlfRBlkful1Ra3hyu2cobm2nKHt0TYM2m6DRvP11GyQu0LKuMmjfUgtyBPK3mUQvIz6NqF0Z+Qd9+LJ6wMwZaIy73xXVHezLQWqiJ4Q9MZSQFrUFmLTqF5vDlao9Aa7B59pObvh7u84UamwuJiOibSB1kRbITXjNddXx3qCYZ1z3G819t1PeB2Wq0X5bzenOgwMs9foHVYBgIMc+GN16V+kRbav6Anb0eFMiL5fp9jHJza2IdEgRFzScbOOh4f+MFJlmUe/PJBr7eUPrBeWN2yWUUDOIq9ZtrVC9hd0msZz9+hg6FCpzfV1CyrKHnaRL0J/PK3nntoHHjX2/IECIiorN1bl+rkyV1QNOsm++IiIjox5M6k0XSsA1n0D+KiIiIfkwMslKyiivYtAvmPktEREREHjYXJiS/D880IjoRERGRjEEWERERUQbYXEhERESUAQZZRERERBlgkEVERESUAQZZRERERBno2/F9cd2BXWjBWXo00tfHnCWxDQBajeFHe0/JWqh5o7z/2GVI9L0LBgkWDwEDfBKYiL4xZrJSsqwi7v/uBK+H+dGVljeV1xg55ncMEn3HrIUaGltrmD1tRF4azwCLiL6lC5HJGqXz9Eoda6GGzYk3kQtRkHnr/PjbRxeDZZVR895LyqCKiL4nzGRdYO5OTb8o+S+/zl/CZPQXou/SzN2bmEILu69iXtZORPSNaJmsoP9ShJ7JkkdABxCb+fDvMqek79pOxfhKmiR9KsRyT+EsPQIeNKR17eCg/gueH4v5JpkX5OlOG6g0J7BZnUfOML22vZpoGWnTx5QPYtZV7T9mFVewWZ3HqVPB9sQzad7R7R5WuC76Pg/7l4XUfemvJ6Syi2yful195unPz98nJv5+Co41dRnKOvnLVNcd8vGqzCPN/kxKm6fHXy//d9N6qr/FZZzFdIgcI4vrDuyx6Pr7ZWI6R/oxneMy/Tw6hbP0BpflYz6mPPUy0rdxcd2BDf381Y61mIyXKLvoeWSuB83raTx/lenkemvbdfUy89ZV+97E0LdUW1/DNLHzNmxTGvo5HN1HcedUsM7S8rXt8MWsoza9Ml3sNpvqrh71wjCMxwcQKSf5OmSqd0zr1Kvc45cpSVnuQVka9kWv3y66IJNlWWU8ei0qK7lPg9OK/gG8A1tU3BXYd2xUljZwgHlUtx5iUeqnZBVXsOmfXN78Kksb+HojOl04rdcMtyTma9+xsTt+F/eLat+nAuytRrCulaUNHHTymK2G83XdYzz/1VtmfQ9dZQ6aQgWN6hWc+NvktJCbW8Pz5SIA4PDlqrQs7+CT1tO+U4tU/Nr0MYLtlvqSVOp76BYqxn5fU3YD1emPwbKdVnS7hzVz9y5m80B3/40eYM0cStsrjo0pu4FHC/HLDk/2jjhe1ACrzzzd4xe4L/1e3+94lUlY9mmDgrSSHu+DCbelopxsR+8/ogtgamYh8r1lFXF9Og909rD9NvLTQCyrjJqxhk1JOs+D41idBvDO3zVMn2x45dlAOz+P6tPl4Hj3+z6KwEQq904B9tazoE6wrCIujwHdsZvR89c/h/r0L7QWauaLC6AdZ5X6HrqG9bz39C7wV+/pZOJvwnrRX9dHCxZct4mHchk6Le9GSqprlMDx0Ws/wA6nqX+9GTkvI4GOP+8+dVMSi+tOEJiE2/8vbj6IHrMq/6Lediqwf32hXJSTlLu33WNhPRwcR9J5qZZnUD77nb5118hJZW+6rqqs4gp+NtyEIUG5y9e/oAy9wDIoh5Tl7rpNHLYA5K/g+lXpzwDgVglTANp/M8BSBUFW+UEFU2jBebITnUJhFVdwswC0nfCuz3WP8cdfe+iigNItaeLJS8gBaB+F8xQ7PxqQAEC5PI8cWnCUKHj78aoxS9Pd3wgqG9c9xruTDoAxXFZ3fmLRO1l3pwanBeSmrxsrylEpl+eR6+yhLpW7e/wCq04LyM9jUS5P6HdqzaMWIJW7X/londmDz2YkaF1cj/5encsbsxnuTk27M24+aaANYGzCXOjRAEvPtg0yz7OW6nhPaXLcXIH63OMX2G0BKJSiwdzV65jOj65CE+f+2ZKPMddtoua0opX3rdvecRNmRFz3GH/81kAbecyW/Yv4TxjPA7l8NFvnHr/An/sdoHDTcJMmpA0ug/0hNaWL+ixaRwXLjmty9/efXy9+eIeTjh5MJyGaSqPlBO8mL5L58C+CUl08LP/c6O5vRJblHr/A/R5PccsBlpqdMTGVu99ELF8vXLeJWl2clzfv9q4//BuYsyGO0TQsq4h7/zNn8Act97RM5d5s7qGLPKavRcu3PCP68Y7ipu+8+Q+ku0G0DrXgRzVz7QpyaOFQLcwPX3Cq3nV/+lfcife5Y7CsMkoFPXsSr4OT99H+FyJzZA7IEul8xDulS8enrz0qyhEItvvknX6xfHtoDDaM00ri7tzCT7SMth9Hf6/U94C5NTiva4mzNLnxn9SvAPzUM8DqxzzPs5fqeB9E5198Ur+TqEE0pBsSeZ0+fR3sJsPP5LT347JOWdDPX1FX5DHunWyi0tbPyeBuemwievPT2tWOMXEhDeep8m8sD/aTpXPCi1vSeipmf0xeQg4dfFV3vLpNfQQZTcO2a/y6eNjjVeKfG2n6wqUNsGAo93C7DdcrL2DtV3+IdTfsgwx1v/6jfhVLtCh0cLCvp7wGKfdBqOUOSOUrJR+C6fpcmy4qL5OVPNIWd9+iuU7OgDQM7d7u8QusLonMxJQdTq8FXFcnMBb95jsSU1GOQoLt7ldZjFqQRTPcDapZL9M+9+XmKl4frN4XgDTzTKxQic4zpk+XfEzGBZVpjvc0ghub0y+9KybvQYSpGyJlH3dD4gcUYYYniau4d6MAtBqovVd/+zbGJq6GZdNLipsf9UYFkQzlI7xTfwxE93ujOo9cq6Flea3iCp5Lx4bjZYR1Yn5qH0TXPcbn08hXCSWvt0VdvIGDsfDcaGz16bPTR79MrKZQCfpg9c549Cv3BNstBax+03N0/5zCWTLf/EXrBfHRrllpePX86ZdkQZFllbE4l0d3/xX++KL+OkC5J9av3L1s8t/RVpazCvp+VKmfLhR3zNG228hHSVfKmZWKFHD5fZ2+Z+JgPsXnrI4dLxti5J2Yae5+4J2gaZoLk/ArKdE5WGqz9/anSXd/Q/QniekXM8g8E0vYN8jvnxD09Xm6jBllmrTHe3LiQtFv/wZN4X5T2q0SpgyZoOCGRgkwzRd7YfLuXfGAQ58uAmfC61pw+uVDz6AjCMCCDOA/EEk8QxZImmfUT6IpptXok01R+qgEQUp4DlkLteBiJB8Xou+gSsxP7XuXOOAeUtjf0u8LN3yfrFRaDa2fj1m/cvf2uZEXgEllqfZPsu/YqDiAvWW+DkX6Ld0R/eL6tcb0FJe5jFF+IDqQ/3nmQUu/cvd4rSxTMwu9s4oEhEGWuaLy7/ZkR19OteaLpFy3iZp3EY1kaAwpyG8tTRPq4ES5G7fbOzHVi2k/aZsLTWYmRBohvDh5FVefrJTK3amJi40x0BpsnlkIAxk9OzLM8d5TTLBkcvRqF22vH0R5phBbZqZ9b77YA8jPw57Laxmxb0Ucc2ETqGiqN3Sw9YNTr2mi174rzxQi8/SJLGsHB810wWVwFy/1SRHrnXJeStPooIKmU7XPnoGfHcEIL96mpux+5P6mvQOtkFruQRBu2m7v5rRv3zMvUDDWvSopqBhEXNO3kZft69XfcpByH4Ra7uH3TWzvd4BCCeWr1zHd51yyFmreTZ+5teC8+w9iUoDisfcrOG0plbTffGGHT/jEKS1v6ncKhg6Y8vKrylMpi+vpMy+jUH7g9SdSDp6wUjd0Sk8pbrut4go27fiL6agsrutpcGuhJrIfprt8qVITT0X2bzI7fLnaI9AabJ6jFl6ADP2jUhzvSVlWUTTTJax4/Ytpbm5NZP56VGipjPCCOwz/mJMDPj+wlJ+cDZ7KU5omxLQF2PI55Pc1c8yDKHf3X6U+t4L9pgXH0YuQeBo1PoOo9edTO8KnIDoiiyysHCyUljcj57boKN774p1azLlhFVfw3HSue9ydmsjmJQy0TOVu2m7LKqNWFQ8S9W6ODK9DSbKHQdkNsH8G6q9kqntlA5Z7WqZy94nuCQXY1Xnk+lynxM0OziQw/B79H/8f7k4N9YlNVO0GHBte6vAXfLr7DFUpm+WnXt8tb6JabWA2/El7Qu/w5Sp21x04r9VpKtpOcXdqqLwVjxk7ryvB922ngoc9dmAcESQqfXHm1uDMiX9qHS/z86huzYf/7+yhvmSukA5frqIOuazglVevMUqk+Uvjxbg7NVQ+rWCzqm/3/V4n2gg0n2zg8lN5GwS1bMRTO2IMIjF0Brzt3RBjHUl/a3L4chXOuAO7UIHz+4T3dORw8xyFKXn/eU9tHmEBi9I0aY73JMKxbTo4qJuPL5Nmcw83C/PIJQzM+uvg4K/kyx+tPGYjZanXCSLr/Q/uPV2Tjg/v3PlV75JQW4JSd+jzDCQOLv2hYiRKvRAc21Ld0t3fQOXoNhq2uWNZeD6F66s+KZaUaCZ+h3tP1yL1V3d/I6g/5CxW3+Ajhdhzo7OH+m+9A5LgejM3j+rWJWXss/7lLrb7C2pbFW27bfkNFqbrgEet53yRegHofSz1EBkHLNHxBlEH9mm+H6bce+tf7j7x5OG8uJHpE3w2j1qwC+as8kVgqYORXjRBQHQOXpND55d/sZAHef0RmQZHJaIfjwgiw+QCmaXu+E5EZ88ftoFP8BDRt2Yc3oGMGGQRfedKy5s9+xcREZ0Vue9bsmb3i41BFtF3SB7bx3+lj6n/CBHRWfCfEmz4r2fSXstDJhe+TxYRERFRFpjJIiIiIsoAgywiIiKiDDDIIiIiIsoAgywiIiKiDDDIGoD85Jf22iAiIiIiBlkhq7iC5xcwaLKsMh69FgGj/7loZUBERJQFBlkD8N8dZd+xf+hXnFiWeFcknArsO2J76vsd5ObWGGgRERENiUHWBea6TTy8Y0cGuTx69QoHHSA3dxuL3tvtiYiIKD1tMFL9reUd48tcxYte89I3+osiF9cd2GN7qP/2BYtbFUwFkzZgP24G0/nLPHUq2J54Js3XvOyk6wgpWxMsW3r7evByaHkzVNK69pqXibVQQ8MuSN/o6ynK8RTO0htcltelY35htVbuMdMNgy/+JCIiGl4kyPIv4N39jaAZzLLKqD2dwLZ3IQ8Dk/AiHH4XDSLExVrMOwhsvAAJ8jLkoEkKGkwXez9wkdfRX2814AmCnEigVMS9p7fx+bdoAGFar178eavL9Il1N5eH/Ddy0ORvUxDMKcGoaZ7WQg2bE28SrXMSpv1LRERE6QXNhZZVxuJcHmg1Ihds123iofyOolu3vWAqvAC77jH++K2BNvKYLS8Ef+uLBCIf3uGkA+Smr6OkNkcpWZnmUQtAAaVb4mfLKuLeDRE0yevoN3FNzYTLDqbt7KH+ZCf4XvSnqmUaPPhvKG870axV88mGWM8by9q2y0Gj6zZx2AJQKAVNdpZVxOUxAJ2PeCe9k9PdqUXKwtSRPfrZxP1ij2bAW7dFNq11mGkZERERnXdhn6xbJUyhg4NmGJCYlGcK2oUecmAwNqEEEC0cvpX+20P35F3vZq+r1zGdB9pH0XV03WN8Po0GJcG0f4+2KS2JmWtXkDNst+se491JB8hfwmTklw5O3vd+m3mwjfl5VJ/qQZrP72fld2TXP6vGZlX42Ty7IJo1+xwHRERE1FsQZM1MjEV/MQiyKb1oAcQITV5CDsCU3dAyNJGuT9K038LkeK9OXgAwhstX1e/6234snv5Dfh7VLa8Mfl+JDbjSsKwyal6TrZqBIyIiovRSPV0YZFMMwuasf/FJ/XFUPv2Lrtf8qGdobNh3sm0GTOrT1476VUAEYKf43DtxFevw5WpkuAURcD2UmhXTNxfKHfrj+pgRERFROkGQdfT+I7rIY/pa7xTLp68dIH8F17XJfsJ4PkGT3zA+fMEpon2vYr09RDvptCN29OU00pfMFwSiI+rvdPhyVQRaUmYsbXOh6OguAqzu/gYDLCIiohEJgiz3+AV2W0Bubg2PFsJMh2WV8Uhqkjp6tSs6uFfl7Il/oW5h99WAKZoEXLeJ7f0OUKj0HSwzblrxSpyaPgaU3yF/FONDvX0jOrjbzyJZo/ID7wnMAfo7iQxVdL0tq4jr03ljH7kk5CEs5I73RERENDx9nCxtbCf9UX7j+FLKcAOIGW8p+FuETxLGDZ8QN0yCPk6WYAoU9Gn1sap8/bZLLxuZPl95CAsxiT6mlRjCATF/q5Sdti3mck+q9/YMN28iIqKLTguyiIiIiGh4qTq+ExEREVEyDLKIiIiIMsAgi4iIiCgDDLKIiIiIMsAgi4iIiCgDDLKIiIiIMsAgi4iIiCgDDLKIiIiIMsAgi4iIiCgDDLKIiIiIMsAgi4iIiCgDDLKIiIiIMsAgi4iIiCgDDLKIiIiIMsAgi4iIiCgDDLKIiIiIMsAgi4iIiCgDDLKIiIiIMsAgi4iIiCgDDLKIiIiIMsAgi4iIiCgDDLKIiIiIMvBNg6z/+/+O4//+v+Pq10REREQ/vG8aZBERERGdVwyyiIiIiDLAIIuIiIgoAwyyiIiIiDLAIIuIiIgoAwyyiIiIiDLAIIuIiIgoA9bMtf+6wX+sIu49XcNsXpqis4f6by9x6AaTpVJa3kR1LjJDHNR/wfNjNxgj6//5/75KvxMRERH9+MxBFnoHVpZVRm2rginpu+7+Bu6/PJa+0YmACwyyiIiI6NxL3VzoB1hwKrDv2LDv2Kjvd5CbW8Pz5aI6OREREdGFlDrIct0mHt6x8XAnzHIdvXqFgw6Qm7uNRcuKTE9ERER0EaUOskxc9xifT9VviYiIiC6ukQRZllXE5TH1WyIiIqKLayRBFm7dFk8ktg6xHdNZnoiIiOgiGTrIsoor2LQLYmiG5o76MxEREdGFNFSQZVll1KrzyAFoO2JYBiIiIiIaIsiSx8pqO5XI04ZEREREF91AQZYYtFQEWN39DQZYRERERIrUQZb86p0ko7wTERERXUSpg6zgSUIAubk1OK+d6Ge9rP4FERER0YUz0LsLB8V3FxIREdFFkT6TRURERER9McgiIiIiyoA5yMrPo7rVEH2sfl9BaYiXPpeWN4P+WtU5rzMXERER0TkX6ZN11tgni4iIiM4ra+baf10/2OknTTCUdJ5IOV8iIiKiHwEzWUREREQZMPfJIiIiIqKhMMgiIiIiysA3bS4kIiIiOq/OZZBlFVewWZ1HTv1B1slmVPtvrf+2d4IR94mIiCg75zLIUqmv8znP/CALhpd3X6RyICIi+tbYJ4uIiIgoA0EmS2Q5TuEsvcHlp2uY9Qdnj2lWW1x3YBfkb1pwlh5h25vOWqihYQPO0iFKWxVMAWg7FWxPPPNGfo9Oj2AdpFHhY5adVq8MTvBS7NMGKs2JSFNb15ANCqaXB69vNWA/bkrTlFHzttlEna9xemWeSQ2Syeq7L03bLDOsqzZPZV9mUe7aMjXhdvUui3A6f9+MKeskpos2vZrmKTfftp0KHu70ON7TlLuhzImI6PuiZLIKsLfWMH2yAfuOjcpSA+38PKoPFiJTLa47KB1VYN+xw+lQgL31EIuRV/AUYG/dxNd6BU4LmLrxDD9Pf0Tdm/7m3auReYoLlJhvZWkDB5hHVZtnRgoVNKpXcOIv32khN7eG58vFYBKruILNLREYBNte30O3UDG/fqgVThdMG53Cu4iXcLgklafTAgoVOOtlZerRS74vvUBJXs+lBtrRKWBZZTx67cAeC6cNjiPTPEdY7tuPpbL21q27L45l8alFgvpBWQu1PsGcEARYXrn5AZZlFXH/d8e7qZGO904B9tYz3C/2KfczPD6IiGhwWnOhnEVw3SYOWwAKpcjFcfuxHbkjd90mak4LwBguh3GT0NoNMwV54OSvlzjyfsqN/wR4F6ObBaDthBkA1z3GH3/toYsCSrfE9FZxBc+99yCaPzX9Ip5YNCvh7tTgtIDc9PXgIl4uexfMJzvBX7nHL7DqtID8PBa99UzDdZt4qFz8/WVjbEIP3EYs1b5MYObuTUyhBUfKWrluE7W62JdyYC18m3IflGWVUUsQYUUCLDUbe+s2ZvMdHNTDrJXrHuOP3xpoI4/ZcvSmRvP2DQ46Z3N8EBHR4JQgq4OT9x+iX6WSx/hk9Jv2UXhhBE7x2TD7mWtXkEMLh2+VHz58wSmAqRlx0XGPX+C+lBnSP0NkKjof8U5Zt09fO0D+Eia9i2upAHRP3unNl28P0QYwNqEGEEPylv1t6PuyH8sq4vp0Hmgd6vvhwzucdMLAOvA9lnsP5QcVTKGFg/2O+lNocjk+wAJQnikYtzu4qekXPN26jdk80P5bnzcREX0/tExWEn6TkJxFaiS4u48zOZ73mhYb0Xmq/ZS+CS+jc3UCY+pPCi2ASMhaqGlZuSGKM5XR7sufMG7qPyTrF0AEsi93II/ZavSY67XpYcb1Ed6pPwbymLW9PliGIMiyirjcb4PU4Do/j6p0bjTsArr7G5EMJBERfX9SB1mif0wFU6Z+IgP69LXjdfoN5xf5eB18s20u1Ingz8u+eVk1Iy8Q6H79R/2lr9LyZnDRlLd5iOJMbPT78h98jU3weAHY6Rct8FCdRbkLnaAPYP9y/wn3/jePXKvRJ7gR83RawJTdwKOF6PHousf4HLNBQQDW+Ref5B/U/bPUwOnc2siPdyIiGq3UQRYmL8XepQ/q6MspIPW9ipNpc6EiuOAFTV8igJD7CgUmLyE3YFOrCCha2H2V/m+HNuJ9GQQQSh8+IAyIos3HurMq97RycxXRj6rZe/19zScbOOiYAy3RHHoF17VWThGIGptGJa7bxPZ+J9E5Q0RE3076IMvj95OClI0ZmNeRd8o2PFn1jZQfrEUuqq57jD/+Fh2t5actreIKNu1CtIN/alLnfu/Js2GKM61R7stmU3Rwt58uB0GRZZVR8/oobav97hRnW+7pdPdfJV6W6MhuDrSOXu2KDu7V8GlLMVyD6O/VL+C2rDIWvWFQtH6MRET03UgdZLk7NdT3O+IRcq+Zrjq+axyeICnXPcbzX23U96H1kXFeb55N4KX0exFDEETHUHJ3auHQAX7/mOo8Tp3KwGMWyRkP57WDxtYaxv+uiDLOWCb78vgFVoMhG/xtEuNM2b++0DM036jcU+vs4c8+wY8qfGJQ7F9/WArXbaIWDNkQ7ncxRIUhG6v2ydqqYKoVMy0REX03rIvwWp1eggEfYX4SjLLBciciovMudSaLiIiIiPpjkEVERESUAQZZRERERBm48H2yiIiIiLLATBYRERFRBhhkEREREWWAQRYRERFRBhhkEREREWWgb5C1uD76Fy+fNbENDpz1svpT5qyFmjdS949dhkRERJRO3yCLovx3Czq/r+gvLP4BlZY3g9e1qB//NTBERESUXt8hHBbXHdiFFpylR3xP2jl8HUxpeRPVOeCgHn1fIBEREQ2HmSwiIiKiDGiZLJG5kr8BAD2TJTIg+XCSjjmzY1ll1LYqmJK+azsVPNzRsyZBlkiabXd/A/dfHgf/F8s9hbP0CHjQkNa1E8nGJJkX5OlOG6g0J7BZnUfOML22vZpoGWnTx5QPYtYVrQbsx81wmuIKNqvzOHUq2J54Js07ut1pJc1kLa47sMei22At1NCwC1q5mo8hGNfVn4dMPT7i1lHNssYv16cfx365+vtcXcfg+FX2R7Asab/Kx6a/jGD+yt8j5THSj6kcQ8OUe9wxbyhLbZ76csMyeoPL8jEfs+36OkSXqy9T52+Xvy+gHK/+POTtT7ovTfOMnM/StGnOoSTk+R1hAbWtCsa8+Yj5jg1UJ6JHuarTj7J+j1umTJ63aX5CeIzox49KP0b7iasTTMdCZPrgG71+TyO2nkt6DinTpSl3+bj6XJavv+brn+lY6PXbeRRksiyrjEevHdhowL5jBx+nFf0DeDtZXPQqsO/YqCxt4ADzqG49jHTutoor2PQPRm9+laUNfL0RnS6c1muGWxLzte/Y2B2/i/tFte9TAfZWI1jXytIGDjp5zFbD+bruMZ7/6i2zvoeuMgdNoYJG9QpO/G1yWsjNrQX9kg5frkrL8g5UaT3tO7XIBUebPkaw3adSGdX30C1UjP2+puwGqtMfg2U7reh2nxXLKqPW88RswYmUjw37zqp+oZ85jEzjtMQ2PlpIvz3bj8P5VJYaaHuVeNw+Ki1vouFViuHf7WL8f8taucv8Sq7tVGD/+kKr1HyWVcS9/8kBXCjpOZRW24mWeX1fP/jSlXsnWEd5WtXiuuNVvuG04tg0zbMAe2sN0yei3CtLDbTz86g+Dcvd7/soAh2pjDoF2FvPgjrB3anp66acm6OoyHvtS1l44ffKrceFtP85NDriQh+tXyv1PWBurccDQeG+N9WhxvrdaWHKbmj9OZPU72n2ZaTbhvS7emz69bAt18XS+qp10qiJci/hUFrHitMCCpUe5Z5EtH6t1PfQVc4hJKxn0pS7IM7r6PW3AFua59H7j+gCmJpZkP5O7Lfr03mgs4ftt5Gfzq0gyCo/qGAKLThPdqJTKKziCm4WgLYTRv+ue4w//tpDFwWUbkkTT15CDkD7KJynCH6iFzsAKJfnkUMLjhKJbz82nwTd/Y2gAnPdY7w76QAYw+Wr6pRJRe9o3J0anBaQm77e84I7rHJ5HrnOHupSubvHL7DqtID8PBbl8oR+F9I8agFSufvBstqJPfxsGoLW9MTxMhx3p6ZdhJpPRHA0NjHwjkzEsspYnMsDrUbkrtN1m3jYI3CSA6x+F++Zu3cNd9kpz6EMjLrcTdsDAM0n4qI2dUMPWuUMhus2UXNaQP4KrvuLv3XbC1TCu2PXPcYfvzXQRh6z5WjlnbW4fSmLBlj9syOjOIeSmrl7U9TvUt3hHr/An/sdoFDSAvuZibHI/02MdVdMvZm2fu/r6nVM54HuybvYc/V74LpNPFRu7vwywtiEdl4Myj1+gd0WgPwlTHrfmc7LkdUzUibONM9gfdRjy9tv7b/1jNt59R94lcPlMQCtQy34Uc1cu4IcWjhUo9APX3CqRq6f/hXRrPEOOWRZZZQKQHf/Td/lCx2cvP8Q+UbcsQx4wgJA5yPeRWeJT187kYN21ILtNlUUbw+NFz3jtBJxUod3JfpniDLyWAs1EWjs63e3o5Ib/0n9arRulTCFDg6avW8qZGkCLKu4gp/n8uju76Gt/JbqHDpjg5R73PYENz/aOaSfv6KuyGPcm7A8UzCek67bxOGIL1D99NqXoZ9SBVhncQ75guyBoX4/+nIauUmLOsVnpfx9veouUW+GAXP6+j0B71xRg7kfinZeDM4PqOQyjjsvR1HPyIkTIJynfL1SEwCQgm1tnc4xL5P1E8b73KX5JsfzQXOdnCFpqG3OXjS76jXbTNnh9FrAdXUC/e+bvpVhsmN9JNjuQS562bqKezcKQKuB2nv1t/QW/THMehxHgkhRy9MO09KS5E49olAJ+mAlSXP7d/l/vvqi/pTqHMpK8nLvT2xPL8nPobGJq+FNXy9DXKByc2vRbe9zIPXal77cXMXrg7XbN8Aa9TnUn1e/FyqR7e617ZPjeaDzLz6pP/i8ukstS+e1o/eBSlDPpeXfTDqn86hK51HM5mRDKc9GpG9nyArGSgw/w69ntP5oeH0F5az8t6hnItert28imexMgu0fQOqnCz997WjtwZGP0gwhZ1b8fjKmNvvvkThI4+/mhuZF/0ZexdT9+o/6S09ZNxdO3r2L2Xz/ZuV+/D43diHa58c/RnTJ+gZlptWI7fegufVQbNdfL3Gk/jbAOTRK6cu9P7E9ZonPIa9rwemXD3DdY3yOOTGCAKxXANBHtJ+e10cmTp996evubyTuazOqcyi5fyAOuWh/W/kjZ2aDMj79omWpAl7dpZZl+Bk+Y96Pnw2Ut6vXrhw5pTxN/dZKy5vBgw3ytMOvp9Ina2kDB2OVSP1+pvWM4XoVZrK9rKbXeqBlsc85L8jyTkIlBe+nIGW908u9uW4TNa8yj0S8H97hpPN9pX7TNKEOTpS7cbsnLyE3wAGZaXNhfh72XH5EdyLe3XWiO//REx0z85i+ljDF4mdmvb5y8YFWAbZd6Lldw5xDwxt9ucdtT5pzSGQWw2YEtckpJNbf1Ew1ev33pczdqYkHDXoFWiM9h5IJgla1f0wcv9+M2iQU0aPuUmVQv1tWUWQDE/Qj/pbETUYLu6/S1eNpue4x/vi7BUh1Wtx5mYmY69XRq120vXUqz/Q+l/wbQOecDYT9H8g7SOpoLR5HvYLTlnKX6qcA7fAJnzil5U29sG6VMGXoDO8vv/og2k68uD5c5mVQ5Qde/wqlz04YnRs6pacUt91WcQWbKSr3M9XZw5+jrDCkij94WkmdJgN+x8zc3Fqk+dqyynhkeKrT5+7URMaiZ6DVp+JPcQ5lZpTlHrM9ceeQylqooaoEHn7lLD85KzqWiwd0sr5ohfrsS8Xhy9X+gdaoz6EEmk3RMdmOPWZDSfrNxNVdJr2mHbh+v3Ubs/kfpelJfjDJzySr0wwnDDqlQCfmvBy1Xtcrvw9lbm5NZIR71QVecI8fva+d4v/4/3B3aqhPbKJqN+DY8NKMv+DT3WeoSgeE6w2N8G55E9VqA7PhT9oTeocvV7G77sB5rU5T0XfGTg2Vt2I8Eed1Jfi+7VTwcIBAQwSJShv53BqcOfFPrfNyfh7Vrfnw/5091JfMT0AcvlxFHXJZwSsv8SRU+JSR/FfS/OUnM3ZqqHxawWZV3+77fTpXnz3RbGIqk7Rct4laXYxLJobjgFeGG2L8JPUPMrD92EZzoYaGYT/22sbgXJmbR3XrkjZeVNvp/XaENOfQqGVR7v72fF53YMvbE3sOif514bL0OkFkvf/Bvadr0np6586vI2zm6KPfvjQ5fLkKZ9yBXajA+X1CGbtodOcQYKi3pDoOCG+QRf/Yd7j3dC06Pbz99NtLHF1dDurMJNsdV2cD0ToOPaYdpH6Xs1hnF2wPpvnEO6+kOqbtVFCfeIZqsJ8G4Q9jJFHOtyzrmalIndn7etVs7uFmYR45w4MsER/e4aQzL4LnM8lUnw1LHYz0ogkConPymhyi71ncwLJE9P0zDdzbj5/wUAdpvShSd3wnIiIiSsJvfv7es45ZYZBFREREI1da3vTGFuzf/HxeMcgiIiKikZCfEvRf6ZO0afE8uvB9soiIiIiywEwWERERUQYYZBERERFlgEEWERERUQYYZBERERFlgEHWAM7rO5aIiIhodBhkeaziCp5f4KBpcV0EjU6P9/YlYVllPHrtzUv6yO8HJCIiugg4hIPnog79L15zkkfbaQB2BVPee8xG+XqhcBkXe7wUIiK6WJjJusCshRqq0x9RX6qg9lb9dXSOXu2iDWBqZkH9iYiI6NzSMll+RicXfGN+W7efnQi14CxFh85fXHdgj+2h/tsXLG5VMBVMGn1Du7/MU6eC7Yln0nzNy066jvCar2rysv03v++44cuh5c1QSevaa14m/ss0Q/p6inI8hbP0RrytPdh0c0ZJK/eY6dIKtm1E85P58x67YFlCIiK62CJBln8B70oXQ8sqo/Z0AtvehTcMTMKgKvwuGkQsrjvwY4wgsDE0y0WCJukiL/4+Grz5gYu8jnHNUUGQEwmUirj39DY+/xYNCE3r1Uu/t5GLdTeXh/w3ctDkb1MQ8CjBqGme1kINmxNvEq1zL1kGWab9SEREdN4FzYWWVcbiXB5oNSIXbNdt4uGvL8KL7q3bXjAVXjBd9xh//NZAG3nMlvUmoUgg8uEdTjpAbvq63sFaucA3j1oACijdEj9bVhH3boigSV7Ho1evcNCJNkcF03b2UH+yE3zvusd4/mst04u9VVzBzQLQdqJZq+aTDbGeN5a1bZeDRtdt4rAFoFDCojedZRVxeQxA5yPeSS8zd3dqkbKI63gefjZxv5htJ3T56UvntR8YMsAiIqKLJeyTdauEKXRw0AwDEpPyTEG70EMODMYmlACihcOE/X26J+96Z1CuXsd0HmgfRdfRdY/x+TQalATT/j3arEwSM9euIGfYbtc9xruTDpC/hMnILx2cvFcKVBFsY34e1ad6kOZz3SYe3rFhx35Wjc2qoyQC2XCZFecUs9UGnPWyOikREdG5FQRZMxNj0V8MgmxKL1oAMUKTl5ADMGU3tAxNpOuTNO23MDneq5MXAIzh8lX1u/62H9uo73dEoLXllcGQQy6cBXenJta7cDPzLBoREdH3ItXThUE2xSBszvoXn9QfR+XTv+h6zY96hsaGfSfbZsCkPn3tqF8FRAB2is+9E1exDl+uBtsbBlwPpWbFb99caHL0JebAISIiOqeCIOvo/Ud0kcf0td4plk9fO0D+Cq5rk/2E8XyCJr9hfPiC06RDAbw9/GbDBoiAIuxL5gsC0dbhSILBw5erItCSMmNZNxdaCzUvWKuFTbMJlGcKQwWXREREP5ogyHKPX2C3BeTm1iKjc1tWGY+kJikx5lEes1U5e1LEvacVTKGF3VfZXUVdt4nt/Q5QqPQdmT1uWtEp2xAg+B3y527rv6X19o3o4G4/i2SNyg+8JzD79HszERmq6HpbVhHXp/PGPnJZCZuVC7h5V4u0jUrLm95Tlez8TkREF4c+TpY2tpP+6L1xfClluAHEPLof/C3CJwnjhk+IGyZBHydLkJ/Q8+nT6mNV+fptl142Mn2+8hAWYhJ9eAQxhANi/lYpO21bzOWelGncrwjDvOW/MZa3qYwM201ERHTeaUEWUT+m8b6IiIgoKlXHdyJ/DDC0GgywiIiIemAmixKRmyqZwSIiIuqPQRYRERFRBthcSERERJQBBllEREREGWCQRURERJQBBllEREREGWCQRURERJQBBllEREREGWCQRURERJQBBllEREREGWCQRURERJQBBllEREREGWCQRURERJQBBllEREREGWCQRURERJQBBllEREREGWCQRURERJQBBllEREREGWCQRURERJQBBllEREREGWCQRURERJQBBllEREREGWCQRURERJQBBllEREREGWCQRURERJQBBllEREREGWCQRURERJQBBllEREREGWCQRURERJQBa+baf93gP1YR956uYTYvTdHZQ/23lzh0g8lSKS1vojoXmSEO6r/g+fFg8yMiIiL6EZiDLMQHVsZADEB3fwP3Xx5Hv1SIgAsMsoiIiOjcS91c6LrHeP6rDftO+Kk4LeTm1vB8uahOTkRERHQhpQ6yjN6+wUEHyE1fR8my1F+JiIiILpzRBFm+0y/GJkYiIiKii2YkQdbM3buYzXdw0NxRfyIiIiK6kAYOshbXHTivxac6l0fbYWd2IiIiIt/AQdb2Y6nje30PY3YDzu8r7JNFRERENEyQJXOPX2DVaQH5eSzeUn8lIiIiunhGEmQBAD79i676HREREdEFNbIga+baFeTQwddP6i9EREREF89IgixroYbqXB7d/Vfs/E5EREQ0SJBlFVfw3Huq0P80bMBZqvR9rQ4RERHRRZE6yHKPX+C+9Eod8alhm4OQEhEREQVSB1lERERE1B+DLCIiIqIMmIOs/DyqWw3R52rIAUZLy5uRkeGJiIiILgJr5tp/2ZmKiIiIaMTMmSwiIiIiGgqDLCIiIqIMMMgiIiIiygCDLCIiIqIMMMj6DpSWNyNPcVoLNTiva1gc4qlO+r6JNyds4n7R2+dWGY9eO3i0wH1ORHRenNsgSwQq0df/OK8dOOtlddJv7ujLKZC/gutXxf/LMwWg8y8Gedd2MGSGYTt7/UZn7MMXnCKP6WveTr9VwtQQL1j/kY53IqKL4twO4WAt1NCwC2g7FTzcEZtoFVewWZ1HDi04S4++q1cBLa47sAv+/4ZbP39exm3v7KH+20scDjhvGh3/GPXJ+yutnsc79zkR0TdxbjNZJu7xC6w6LQAF3LzrZRC+E9uPR/cuyOaTBtoApuyHWLQsWFYR9/43jxw6OPiLF9vvhbtTi7wDdNAAK457/AK7LQD5S5hUfyQioswFmazS8iaqc6dwlt7g8tM1zPqDs8fcBUczL9CyL+LOGnCWDlHaqmDKu1PfnnjmjfyuZ2vEOkijwscsOwnTnT3ku/tWA/bjZrBMdTpI69N2Kqi9vYp7T9cwC32dRFno26NmKkzbLKYZw0H9Fzw/9srOKqO2VcHUENsflGWrgfrXm6jO5dHd38D9l8fBNH5ZnEb2CwB0IuuTtIwi5exvgzStPI22rzXRdTDND94+VOnlLsjbL5aPyDJM/DKCWnZxx5dhPbVy96YZU74Xx1F0u5OKW5/YYzPI6obUv0XM9gDhuXmE+PMCKcqZiOg8UjJZBdhba5g+2YB9x0ZlqYF2fh7VBwuRqRbXHZSOKsEdeGWpgTYKsLdE5iRUgL11E1/rFTgtYOrGM/w8/RF1b3o5m7S47niVsZhvZWkDB5hHVZvnaB29/4gugKmZ6DZaVhHXp/NAZw/bbyM/JVJa3gwuen45Oa0C7K1nQWfnOOUHhotaSkevXuGgA6BQEcFMZw9/vvqgTgYAmLIbqE5/RH1JrKvTymO2Gq5n2jKyFmpobFUw1WpIx8gGvt4I9+Xhy9XIbwcdL2gKMjurSoBVwqG3fvYdGxWnBRQqPfocdcJjqb6HrvpzBvztHtsX54+/nrm5tR7rKVgLNeWmZXj+PLv7b7SbmYYXXPvrWd/vYMpu4PlyMTIPX1faJqel/kpERCZac6F81+26TRy2ABRKkUBn+3G0acN1m6g5LQBjuKy2wrV2wzvYPHDy10sceT/lxn8CvLvqmwWg7YR3u657jD/+2kMXBZRuienFE1mGzr3BJ8ETeZOXkAPQPtoB5CYVZRtx9Tqm80D7b/3uvB/LKmPRyxzJ5SSa8aTOzgajutiG5QcRcPRqJlQyZup6pikjyyri3o2CmOcTUcbw1uf5r4M1g7puEw+VJlR3pyYu9mMT2rs1ZybGIv8/C8F2txqR7JS7U0N9vwMUbsYG15ZVRm0UO90LmP3zoWHr6xN3bB6+XIXTAnJzt5V9PIGzL00iovNBCbI6OHlvznYkk8e40vnDD2aEU3w2zH7m2hXk0MKhmjH68AWnUgbFPX6B+1IfFv3T+yJuFVew6V14IsHPkein5QdzAFAuiw7y/jq57jE+nybs3+I9KaaX5T/42gFy09e1wADyxba1JzI7w/ICSvQJ7Lon75QAzFtPLwhGwjICzIFXpmL3h/lYy4y/3ZHjXRCZQP3c8InMZQsH+8PvdDlzWqnvoVuoRG8+Yo9Nfx8bbpQAnH7Rpyciot60TFYS/pg+chbJ1AcmqcnxvNe0GN6FO68d0eSkTpxS5M7ebyJR+/G8fYODDjB1Yxkly4JllVEyNLP4gUa/TvMik5LHbFXdHqmvm8HM3ZuYQgvOk3fqT6mp2ZHc3N3YTEosOUuUsIzCwG60TEMUxB1yk+P5hENg6PvIkcaukuXm1qL7Ul14gu0em9CPmzCL+wjD7/Uo+UEPPzjun+VTgsEE2wUAyM+jKp2/cc2OREQXSeogyyquYNPvlK32kRnQp68dr1N4OL/IxwuKBmkulO/s7ZgnuFz3GO9OOuFYVTF3++5ODZX6HqBccNXr7dGX00ifIO3z6ws9yzO5jJ/n8mg7j6B35U7P79fVdirevslj9n8iQOrvJ4znAZx+CdYzaRllwe/fJvcLsmP6BllWEZfHouseT99H9X1E+qP51GVrx/unf+P7fXmBip4N+kk89alkVkfKWy8/wBPHppkIwKJjdZm+M5LqA78fGgdWJaKLLnWQFfRpGmFzkKj4o01RJsM2F/Zy9Go36IdUnilE+5JJTOugXm/Fha13E11UHrO2GM9okE72qqBfl3fxDvov5efxc58sHBD2w1GbvhKV0dtDMXyE0kl+GCLT2cJuTMf9iB7Ndkn4TXvJ951HadqWiUBFbw7PzVUwm+/goDnYuiaiBng9jk2RAfyId96k4YMN4XeJeMeAKXNHRHSRpA+yPPLFxM80DMxvirL1DMJZ8Tv55+bWxGP0Q1z4/I7i6e7m+3ROTyhsJmzBkTqe+2NnaR2bFZZVRs0bwFIN+JKUkes2sb3fAQqVSJORZRVx/3c905ic9ACEVcT93/UMIuL6iaUg/j59hi52uxdq3vAZSrOqp7v/Sg9URyTs4xdmyuKOzdLyphjAVr55unUbswP0rxPN3qbMHRHRxZI6yAqflqoEzWXV8d2hHpMXT575TTXJ+shkodn0tiHtnbvB9mPRbCL3CfM/psBrFBdbyyri3lO/mTA6LlL4BGgB9tNos6Hc3ygYgsDUpJmwjA5frmrNqo2tu8Bfg41i33wihnjwy7KxtYbxvyviOPT4Tcm2178p2XL0PlliTKnBxnQ6fLkaDtngb7c9hoN6JfKEX6DHsBqDivRB3KoAhj6I24/DIRv8acUYeeE4WYvrYb8z9Ri2C34frGe45yerpD5ZpnHTiIguIuu8vlZnEHEDT55Xg2zvIH9DP57FdQf2mHmAUXCQUSKiRFJnss4zv6kpUd+fC4plRERElAyDLE/QJyVxU9PFwzK6OLYfxzwF6xEj9oej8hMRke5CB1l+B2rRj0S80of9SKJYRkRERINhnywiIiKiDFzoTBYRERFRVhhkEREREWWAQRYRERFRBhhkEREREWWgb5C1uO4YX7z8IxHb4MBZL6s/Zc5aqHkjZf/YZUhEw/Gf1JVfu7S4/m3qJSI6G32DLIoKhjT4fSXyapofkf8qGvmVKc7r87FtRN8b1z3G51MgN30dJcuCZZVRKgDdr/+okxLROdF3CIfFdf99bhyAEsH7Adcwi/hXjvwoTK/IsawyalsVTIH7nGjUwvPL02po75YkovODmSyKcN0mtvc7AMZw2X/5LxGNhOs28fCODdv/MMAiOte0TJbIXMnfADBkNcQLYvPhJB1zZke7cwPQdsyjhgdZImm2XeVFxGK5p3CWHgEPGtK6diIvq00yL8jTnTZQaU5gszqPnGF6bXs10TLSpo8pH8Ssq3qH62edTp0KtieeSfOObncapkwWerz815/eLx/E7Evj9gBaGQGiz1pDOeBM80zCn5f696btFNOOKceMd6wa9pVpm+Tjw7QdKnW99HNNL59Ri8vEBtuuHneG7VaPzTS08yJC3359en0axBybwODrasrgx5VdOL00A8NyTS/d9o8bU92URr/lm84NuW72l+9/N7a/gdUvtyPHtPy3cXUEDOdb7L4xnBOI2Zdx5dNvu/XjR6XXn0mvWXHzNk2blF6P6OunbbPMUHfp05vPIRiXr5wDhuMIPY4H075U/9bXr9z17VCF6xq3Pt9CkMmyrDIevXZgoxHeZd2x4bSifwBvY/1XrNh3bFSWNnCAeVS3HkY6d1vFFWz6Fbc3v8rSBr7eiE4XTutVYEtivvYdG7vjd3G/qPYPKsDeagTrWlnawEEnj9lqOF/XPcbzX71l1vfQVeagKVTQqF7Bib9NTgu5ubWgk6p4V5u/LO9gltbTvlOLHLTa9DGC7T6Vyqi+h26hYuwbNWU3UJ3+GCzbaUW3e1hWcQU/z+WB1m7k4Cwtb6LhBXn+etb3O5iyG5GOvBHSfq/v64VgLdTQmDmUylAcb1N2A48WRrM9aZQfRE9wX5Jj092paduhHiNqgFU6Cn+rLDXQRgG2cg59S2mPzeQ6Qd0RKS+J3/dR3FBJ9UynAHvrmaFOENre8dnvvBsVfz1FQOYvu4F2gjKyrDJqva8afQX1trR8+46N+tebPc+haLeAihbA5ObW0LARzNM/13vNs5/u/oa2z9V5WsUVbP4P+FPelv1OpC5GinL36+HIMSHVS+r7N62FGhoJrlnhRVw6h9WDOKXFdce78QvnKep3U7lH93fc8Z6mnhHLFwFUMH39X9x8sBCZLqk014wk5b79ODx2xHaox1T0Gvy9CIIscYFpwXmyE51CYRVXcLMAtJ0wQnTdY/zx1x66KKB0S5p48hJyANpH4TxF8KMXRrk8jxxacJQofPux+SW03f2N4I7FdY/x7mTYJq7oHYO7U4PTCjupZqVcnkeus4e6VO7u8QusOi0gP49FuTyh36k0j1qAVO5+pat1Zg8+m9oFKje3FvzeqOrrY1llLM7l0d3fiAQKhy9XRRnN3VZO2J8wrt/gadydmna333wiTp6xiYF35ECshVrsXVLaYzOJ7cfRoMt1m6g5rSGP4dFKfWyO0q3bmM13cFAP76Jd9xh//NZAG3nMlpWK36trzpxxPb19mb+C6z32ZVxQn8bM3ZuYQnT58M5NU7YAWoBlzmioGYyjV69w0AGmZga74Jo0m+LmVz7X3eMXuK+8mNxfdm78p+C7Yco9jmUVce9GQdSx8jGvXLMsq4jr03mg8xHvPkgzGILpugoAzScieJq6sTzQdShpPeMvX63j3eMXuD9AJjjNNSNpuf+o/gNvIy+PAWgd9t2gmWtXkEMLh2+VHz58wSmUk/DTv+h62Rc9Eg9Z/lM2+2/6Ll/o4OR99OgWdyyDX/RMJ8ynrx0gfwmT0a9HJtjuk3d6M+LbQ2OwYZxWovX50D56Gcl3A5WlBtr5eVTlbMGtEqYMZY4gyDMHBsM8NRWpUJPyjje1zPoJMgqtPe1uMP2xOaw8xrM64FIY5NgcpfJMwXhOum4Thy0AYxOGi04HXz8pX2Usbj3FsZjH9DVzGflBfXs/QZY9RnCxV7LOvS0kCLD0a4H/ZKS53Afj37zsvlILL4a07EHLvaer1zGdB9p/m7t1+IKyGDCYM4m7rgYJhJFfh6L1jL/8xPuinzTXjITl/qPyMlnJMg8AMDmeD5rr5AxJQ2lLhX/X66X1puxwei3gujqBseg33xFzADESCbZ7oGBjCK7bRK2+F6moZib6raUSGCTYLt+iP4ZZj+MosQ/vcNIxZdZ6E9mAFpwn79SfUm1LGqaMY78+XSOVn0dVOoe1ck+w3Vkdm8FNXy/KRaf/MTqIaD3X2Ir2TQvWUylLx88Iy7OKuCru3FsN1N6rv6WRvN72Tdl+H6wBbxoi5S6asoLt7tM8KmfMndcO7IKegYPXzBQpy5GVex8psqHbj21UnNPI9g9z/orrai+DXYeS1jP9lx8lX8+d147WN63/+ShdM1KUezrK8fnaMbbkZC3104Wfvna09uDIR0ktypkVvx3V1Cb7PRIH3ik+68H4aHjZPyPvIpc2G2Q6qVIfZN56+RfRoy+xa+mdTEoGwTtpTr/EF1zYpyLaP8c/Rgbh98NzWsrFsVfFO7mMn+fyaDuPkD4pPpigr6LSZ2vYPh2pqMtWyz2DYzOpIFNgEFxgO/8icshlcq727vcSrKfWPzP8qH2dAGDy7l3M5vt3zchC26kY+zj1Yy738NwNMuA9+u+ofbKCIEUajFX0981H+wWNqNxHKexPJ/UJG+L8FddVs0GP7SzrGXn/2IY+t6mvGZnQ+37W94HZanyfzix4QdY/+NrRU8F+O61MFJ7S9yoh122i5lXmkbtgPwORcf+nNNI0oQ5OlLtxuycvIReTbu1lkOZCjXoR7ZGCnxzX+yaUZ0Tlo6a+o7y78FRNHcnIHSTtO70efMhj1hb9jrbj1jWLY9Pvq5giPX72bw4Y/bGZhmiqNzXHiONGbsb0mzazPVfN4tczRn4e9lx+8EySJGg6LZRSHRNhv5g0gZZe7jK5GXdG/THO2zciePLWPwzkepyPntTlnoTXDJ6k35nIfgNtR8/EDSLuujrUdShFPaP27R1ammtGinIf1tH7j7HrFWRQ+2Rk0/oPvDuDP/6OdmYVj15ewWlLibC9E2PK7h8NlpY39ZP4VkkcnEpneH/56p3Q4nqCzEsGyg/WRMfKZvRuM2wjH77jb9x2W8UVbNqFTAKQfiyriHv/E4HHn177vHv8ArtepSw39ZaWN0W/EukkDjtQJryISBeI4M5LnSZTHRz8FV8Jxe0jjODYlCuV0vKmMY3vC9PvBdy8q1cQoxa33Wd1bB692hUd3KUnZy2riHtPRX8iue9I0PlbOVfPgmk9+5LOrWGJzuMF2E+jHaNLy5t6twzJ9mPxdF+SQCuu3GXBDfnpFxypP8a5dVs0A6oBhBQ8iU76+nAwA5V7H8EYgYWK4UnG8ObG79SdJBhMLOa6GncdSiNRPROzfKu4gucDvPYpzTUjabmPgugHqN8gBv0bMdq+dgDwf/x/uDs11Cc2UbUbcGx4adBf8OnuM1SlfeI3ybxb3kS12sBs+JOXngufjjh8uYrddQfOa3WailZBuzs1VN6Kp16c15Xg+7ZTwcMBKnMRJCrNRHNrcObEP7WxOvLzqG7Nh//v7KG+ZL74Hr5cRR1yWSHyNI6olNSKQZq/NJaLu1ND5dMKNqv6dt+PeTpo1HJSucBP6yvp9u3HNj4tm7b5l6CCjIwbo8xTyMPeaqDkVPBwp4laXYxLJobjgDe/DVx+uqYcV9np7r/SjkXVqI/N4Fybk+bXaqDilYfJ0atdtOfONgD9lsemyHr/g3tP16Tjwzt3fhXnjnqezWr1EYB8Bc7rUu9O3kMQmeOmGMNHXk8gUieEegf1aYl+r+9w7+lapP7q7m/03UfNJ965NrcGZ1wZ16sQ3edyuYdEn5egzL16zSquRCfzqPUMlHrY9Z4eHd+qSPMV14vDcgO21M0nfbknc/hyFZX3K9isyusqrmv+/IIsVoIMUVL+dfXzugNbLtMe16F+0tQzsdf1zh7qvw0W4CW5ZviSlHt6yvEJxB4bfvJkdk5vmRmWpQ5GetEEFbVhgEFKRwRZYqBY9SAG4geyo2T8wfhYfkJw7p7qA3/6RJmZK1bSBcM7KIN6EtFgUnd8J6KzFzTHtBoMsIiIfhDMZDGTRd8xudmbGSzKGjNZRKPFTBbRd8w9foH73lOSDLCIiH4sFz6TRURERJQFZrKIiIiIMsAgi4iIiCgDDLKIiIiIMsAgi4iIiCgDDLIGIIb7Fy8f7vdKCiIiIrqYGGR5rOIKnl/AoMmyynj0WgSM/meUZRC8dPP1cO/5IyIi+tEwyBqA/54n+46N+8o7/n4k/sCDcCqwvbGY6vudRC+NTcIqruBn/12GREREFwyDrAtMvGQ1Osjl0atXOOgAubnbQ7393LKKuPe/eeQ6e3D2O+rPRERE5542GKn8Gg9BvAn7+XF0zFLxMmA5S6G/hHVx3YE9tof6b1+wuFXBVDBp9JUN/jJPnQq2J55J8zUvO+k6Qn5NhPSd/3qS4JU6vZIt0rr2mpeJ/0LkkL6e4UuV3+CyvC4d82t+tHKPmW4Yo3iprlhP4KD+C95dexb827SPiIiIzqNIJqu0vIlGdR7Y3wiajypLuxj/3zJKXlbD7/QtAgPRzFRZ2sBBpwB765ne7yY/j6rUJFWp76FbqBibo6bsBqrTH1H35uu08pitPoxkVKyFmraO9X1gttrAo4Xosq2FGhr+e7iC7dnA1xtinnKzX6W+hy6ArjRf+44dCQb9zI99x0bFaUWWpVpcd9Cwx3BQD5vixPbo6wkUYG+tYfpELLuy1EA7P4/qg4XIVIvrjheshPOs/H0JP9+9GpluGJZVxOUx9dt0/GbC7v4rBlVERHRhBUGWZZWxOJcHWo1IPyPXbeLhry/CTMmt25jNd3BQD7McrnuMP35roI08ZsvRwABqtufDO5x0gNz09SBwCyhZmeZRC0ABpVviZ8sq4t6NgraOfhPX1Ey47GDazh7qT3aC70VgVRs4Q5OEVVzBzQLQdqKZm+aTDbGeN8Kg1dfd3wi2yXWbOGwBKJSCADMIfjof8e5D+HfuTi1SFqaO7NFPnw7ot26LbFrrcKAykpsJ/3wlrSgREdEFE2aybpUwhQ4OmmFAYlKeKWgXesiBwdiEEkC0cPhW+m8P3ZN3vZu9rl7HdB5oH0XX0XWP8fk0GpQE0/492qa0JGauXUHOsN2ue4x3Jx0gfwmTkV86OHnfOyAJtjE/j+pTPUjzydk282c1NrtkFVewaRdEs2af4yDOzN27Igj/6+zLnYiI6HsSBFkzE/3biBI1JWkBxAhNXkLOa1ZUMzSRrk/StN/C5HivTl4AMIbLA7TwbT8WT/+JJlivDH5fiQ240rCsMmpePzc1A5eUnw1lMyEREVHKpwuDbIpB2Jz1Lz6pP47Kp3/R9Zof9QyNDftOts2ASX36Gv80nQjATvG5d+Iq1uHL1WB7w4Ar7Lc2SHOh3KG/V0f+vm6VMAUgN7cWWaboqC/6o5mWT0REdB4FQdbR+4/oIo/pa71TLJ++doD8FVzXJvsJ4/kETX7D+PAFp4j2vYr19hDtpNOO2NGX00hfMl8QiA7Y30l1+HJVBFpSZixtc6F4wlIEWN39jb4BlrVQ84KnmjbEg7tTMyzPCwbR8TrsxzdXEhERnSdBkOUev8BuS2Qh5KffLKuMR1KT1NGrXdHBXXrqL7xQt7CbYWdn121ie78DxDydKIubVjwdqQcIQYf8IceHAgC8fSM6uNvRpy3LD9ZEf6UB+juJDFV0vS2riOvTeWMfuSTkISzkjve9hM3KBdwc4VONRERE540+TpY2tpM+XpJxfCll7CvEjLcU/C3CJwn9ca+gXOj9dVGbsPRxsgRToKBPq49V5eu3XXrZyPT5iu2XJ9HHtJLHk9L/Vik7bVvM5Z5U7+0xz1tuWjSVt0ncNhIREZ1nWpBF1I8fPKrBLxEREYVSdXwn8scAQ6vBAIuIiKgHZrIoEbmpkhksIiKi/hhkEREREWWAzYVEREREGWCQRURERJQBBllEREREGWCQRURERJQBBllEREREGWCQRURERJQBBllEREREGWCQRURERJQBBllEREREGWCQRURERJQBBllEREREGWCQRURERJQBBllEREREGWCQRURERJQBBllEREREGWCQRURERJQBBllEREREGWCQRURERJQBBllEREREGWCQRURERJQBBllEREREGWCQRURERJQBBllEREREGWCQRURERJQBBllEREREGWCQRURERJQBBllEREREGbBmrv3XDf5jFXHv6Rpm89IUnT3Uf3uJQzeYLJXS8iaqc5EZ4qD+C54fDzY/IiIioh+BOchC8sDKWqihYRcAAG2ngoc78X8jAi4wyCIiIqJzb6jmQssqo+YFWEREREQUGirIKj+oYAotOE5L/YmIiIjoQhs4yLIWarALQNt5hKb6IxEREdEFN1CQFTQTtho9+2ARERERXVQDBVlBM+GTHfUnIiIiIhokyJKbCbcTPH1IREREdBGlCrIsq4h7N9hMSERERNRPqiALV69jOg+gUIHz2gk+/jhZU3YDzmsHjxYs9S+JiIiILpRUQZZ7/AL379iwlU/FG8Kh7VRg37GZ5SIiIqILL1WQRURERETJMMgiIiIiysBIgix3p8ZmQiIiIiLJSIIsIiIiIopikEVERESUAXOQlZ9HdUsMx+D8voKSNfiQDKXlzWCoh+pcXv2ZiIiI6FyyZq79lx2piIiIiEbMnMkiIiIioqEwyCIiIiLKAIMsIiIiogwwyCIiIiLKAIMsIiIiogycy6cLreIKNqvzyHX2UP/tJQ7dcBMtq4h7T9cwm2/BWXqEbem388KyyqhtVTCl/gAAOL/bTURE9D05l5ks9/gF/tzvAPl5LN5Sfrx6HdN5oLv/5vwHGq0G7Du28qmd/+0mIiL6DpzLIAsAjl7tog1g6sZyZDDVmWtXkEMHJ+8/RKYnIiIiGqWgubC0vInq3CmcpTe4/HQNs/7g7IYmNwBYXHdgF+Rvos1Q1kINDRtwlg5R8pqu2k4F2xPPvJHf9WYrsQ7SqPAxy07Kn1/bqeDhjhs2o7UasB83I9MGTYyRb71skDet2KYxHNR/wfNjbzv9eUrr6n83tr+B+y+Pg1n5y4D6val5z7COSfXaTpm/PqeR/QIAncg2wt/fY9H9IcqjgK63Pep2q+WlzkP9v2meCPYjzOtUSHAcGbaHiIgoa0omqwB7aw3TJxuw79ioLDXQzs+j+mAhMtXiuoPSUSVogqosNdBGAfbWQyxGXsFTgL11E1/rFTgtYOrGM/w8/RF1b/qbd69G5ikupGK+laUNHGAeVW2eyQXZLNubx62SCPaOdtRJA23HX34DbfVHg/KDuL5PyYjApITDJak8nRZQqMBZL6uTZ2LKbqA6/RF1bx2cVh6z1We4X4wvd8sqoxaNsoc2inmWljfxM15Jx+YGDjr9t4eIiGjUtOZCOYPguk0ctgAUSpFAZ/uxjYc7YVbAdZuoOS0AY7gcxk1CazfMIOSBk79e4sj7KTf+E+BlVG4WgLYTZhtc9xh//LWHLgooef2qrOIKnnvvQTR/apH1DNergNKtq7h3owB09rD9NpgkNHlJz2L1YS3UlGxeeq7bxEOln5S7U4Mozomh3huZmJIxbD5poI08pq+pOzM0bHBpMop5Hr5cjWQJw+Moj/HJyKRERESZUoKsYfsq6ReyaNboFJ8Nsxf9pFo4VIOfD19wCmBqRmTS3OMXuK915O7TqfvtGxx0gClbNIF2T971aH7s4Osn9TuzIOvS2sNBR/11RPKXcBZxgV4m/+BrJwyCVX5w2d7fQ1f9cUBZzFM1NhEfNBIREY2alslKwrLKeKRkkRpDpHQmx/Ne02IjOk+1n9IAXPcYf/zd8v4XH0TOTIzFBoEmM3dvYgotOE/eqT+lZi3UtKzcEMU5OsZMmpcRbDVQe6/8NLAk88xjtho9PkxlZFlF3P9dOTZNfe2IiIgyljrIsoor2PQ7eqv9iAb06WvH6wgfzi/y8Tuep2wuDLw9FP2r5KZLxeR4Huj8i0SJrMll/DyXR9t5hPhu5cmUljeDjt7yNg9RnCPwE8bzAE6/aFm/ybt3xRhjT+L7taWVbJ6doL9eXBmJ/m3+GGjSsVnPLjtGREQUJ3WQ5fddav89+FN/qqMvp16/KfWXqIGaC4G+Hd4tq4xSwdRsZpLHrC0GOjX27UpJZPFa2H2VMIV2Fq5OYMxUXvl52HP50Y4xNsp5eus9knkRERENKX2Q5fH7SUHKxgws6Dc1+ifArOIKNm3RFCV31peJpr/4pkRdBwd/jS7IlANMv7lrmOIchmWVUfNGyzcGkZ09/DnqgHDE88xNXw+aOa2FGpsLiYjom0gdZLk7NdT3O2KIAa+Zrjq+O1STjOse4/mvNur70PrdOK83Bwq8SsubYX+cmPGi/L5l1bk8uvuvYpsSVUmnzc2tGfsG5ebW8Hy5CABoPtnwAkyx3Y2tNYz/XRFlfEbk9Wx441zZv74wBJHJgkt/fiLwDvtSmQPHZPNMwj1+gVWnBeTnUfX69zVu/OsNGUJERHS2zuW7C79n6oCd31Lc4KhEREQ0vNSZLCIiIiLqj0HWGRODj9rMHBEREZ1zDLKIiIiIMsA+WUREREQZYCaLiIiIKAMMsoiIiIgywCCLiIiIKAMMsoiIiIgy0DfIWlzv8eLlH4TYBgfOeln9KXPWQs0bTf3HLkMiOjui3gjrDKu4gucDvv0iLf9NGI8WvGV7r/ry31JxFvxlym/MOMvlnzfi+An3KZ2dvkEWRQUn/+8rwfvxfmT+64cin28QjBKR5NO/6ErvNJ25dgU5nOLz6F7x2cM/+NqR3k979Tqm88DplzNZuHjf6NYaZk8bsO/YwYdjC9KPqO8QDovrDuxCC87SI2yP4P1yPzrLKuLe0zXMYg/130bzzr1vxVqoYXPiTaTyshZq4p2DnR9/+4h+ZKXlTVTn8t7/Ojio/5Lonamj4L9yy3+xeveMXr31Pb127Dzx9+epU8HDnbM5hkhgJusCc3dqekX29g0OOgDylzAZ/YWIztDhy1Upk7N6ZgEWvJet3/8GWaSZuzcxhRZ2X51N1owoa1omS2Su5G8AQM9kRe+yEJv58O9MpqTv2jHRdJAlkmar3kGJ5Z7CWXoEPGhI6xq900syL8jTnTZQaU7E3r1p26uJlpE2fUz5IGZd0WrAftwMp5HuRLYnnmV2hxuui77PgyyXwlSu2nGkbI+sX1mJ3zHS7dSWGRFue9pyNx3vpuPIPwfUO8wgg+CV1+K6A3ssWh7+fpDnG7dvYtfTML3pvDQdm+r+1va1Rj+W+lEzKTLzeurlbpoOPfa9PL1cz/jrre4b9Mj0xx2zScpdPSYQc17Kx8YRFiIZILGcsWD56v/FPL0yk843uT6Uz1f1uB2EXu56uS2uO7Ch18Vx9Yd27Kn1ZsL6Xc2gqeUll/Vk5LpjIrareXVZO1586rEkL3/1y+3IMSKXuXxepP1eptcd0rGinvPy8SFN+7ksl4O+L2Fcvl4fpZ3njybIZPmdHW1E28GdVvQP4B3YogKpwL5jo7K0gQPMo7r1MNK52yquYHOrgqlWOM/K0ga+3ohOF07rNcMtifnad2zsjt81dPYswN5qBOtaWdrAQSeP2Wo4X9c9xvNfvWXW99BV5qApVNCoXsGJv01OC7m5taCzpX9XKZblHXjSetp3apGDQZs+RrDdUv+DSn0P3ULF2O9rym6gOv0xWLbTim73sGbu3sVsHujuv4k5uDvSfm+grfzq91kTFx5pOsP2+NPKx5J9x0bl70v4+e7VyHyzEW6L/zEd74gt92eRY1P0JREVZbAt3nHk93M7fLmK+n4HU7a+zyyriHv/M1fKPssqo9ajhm87UjkG54VhPWcOte2eshuRjrGi4o+ek5X6HiBtDwBsPw7n4x8TXakM1HMjjeh8YtbTVM84LUzZjR6dpaXjM26nS4J9o/6QQtJyN/HPy1EqP4gGpXGs4gp+NgSlSYXn+alUJ2zgoFOAvRUem5ZVxOUxoDt2M1oX+/WhdMylqWeA/vV7GomP9w/vcNIBUChp57roY9fBQXMn8n1ubg0NG8E2ibrCfHwEfeaC+UVZCzU0qvPA/kZwDWw7Fa1OUpUfhOd8ZamBdn5eqY/zmK2q198CbPX6Ly3fL5v6PjBbNW1Psnn+iIIgS5xwLThPojtdZRVXcLMAtJ0wGnXdY/zx116koyYAYPKSiKyPwnmK4EevdMvleeTQgqNke7Yfm9Pk3f2N4ELkusd4d9IBMIbLA1+boxG2u1OD0wJy09f1E3aEyuV55Dp7qEvl7h6/wKrTAvLzWJTLE3qWp3nUAqRy94NlrTN78Ik+oRQ8eel9qnN5LVPhm5kYU7/S3bqN2XwHB/XwDsR1m6g5LSB/Bdfl/XPrNmbz0WMJcc2Y35pa7k8aaCOP6WtigyyriHs3CkCrEVl3d6eG+n4HKNwMyv3o1StRgTwIK0kEF9Le52DSCyP88/LvFoA8xqW2X3enpgVxYnuAsYlwB/lNN/I56R6/wJ/7HeOF4yw0m+JiIa+n8Rzqcf5OjqcPGEYR5CQtd9WwQY6JtVDrk40RRhFcmuuEY/zxmziHZsv+efATxvNALh/NAIbHXHgOmecZU88A36R+D8+/6HXRsoq4Pp0HWruGa1s0eyPqCimgmryEHDpot8Jz0J9fd38vuOkNbsaU+ggxdZLPssooFYDuyTscui5ct4lDUzlJN4Km639cfahtj6zPPH9U/4F0B4HWoRb8qETE3MLhW+WHD19wqkTX4gmZ/ndqwY6NzZ6oOjh5H22zF5kjc0CWSOcj3indAD597WTaN0k9oCPeHhorX+O0Etdt4qF0p6x/omUk35XZcqYidsiJ3k84lWcKxrIUx0IYlCCYdg/b6rH0HdLLXTyBlRv/SfzXewJLvqHwHb3/iK4U6AQVSKGC2jVvooll/DyXR9uJT4/7F8b2foLMrFzRpShjf3vCC4FeJxx9OdUuHGfFvxnz++z0OofE+Wu64ALo/ItP6ncx/CBHvoj5Pn0d9uZOCI4jRRDkdPZw0D/hlkh4Ad7rmWVHEFx2cLA/+MLj6gT/Ao6xCeUCrgcf6jkUN09TPQN8m/odCOvxyHXRv7k01BXq+ea6x/h8qpfR1+Yu2ijg5t2r3vxa2H31BfCvGVcnMKYkOGTiHI7efAEI/k57klQpJ22+3vU/uF7F1IfB9hhu0tRptXn+oLxMlriDSELcBYrmOjkD0lD6Q8C7A1n10qlTdji9FnB5O/b7NHwFGivBdsdVvlkJsmj+CSzplwEIgvX8PKrq8aH0CwimTUykk3tl5b4Jv/Lzsra9yJWFe/wCuy1gak6Uy9ScuJDGB0NXgzvD2nv1t5B8njW2vD48hr6AagZTP3+9OqFQUcrc0foUZSk3txZZtl2IZi/8c0idzvGysqrguDv9opVJHD9T9qd3EZP5F/8wG9Nb/3JX+Bmbv17is/rbgIIM5ZN36k8RllXG4lwe3f1X+EPf9EQSnecpAp2xiaup6pn+MqzfvUByW8kaDXRzGSmjU3z+sBNkmO7NFIDWISI50n71kZcACYn61VR+4kYimeB65S1fro/Cc1j9q97O+ho4aqmfLhQFHraDax8lHS5nVvz26959Jb4fIqjonbkZihepG3kXj+7Xf9RfekrbXJhUULH1yAAEdylaf7Xwo6auk9P7T4n2/Wh/o7PjBSH+xVqrtCRehSPfHYqsVAcHjt9XwtT3ITSZoCkRSp8sUUZjsLfC8y3syxItT71/ncjUQernpH4G7QCdhtonq+KcimDb70/inUPqdOFHzW6L/Zb4vLr1UJTVXy9xpP4m30gqwaga4CUvd9kCanYB3f1XWmZnYJNhxtTc6y9UfiA6xf85xJN+QZ1goNcp3jGnZrYQPYdGVc9kXr97/EB8+trVnplXE7WM5C4bzeYeuvl5zBb0vl096yOYgjBxXJr6L0+O53vW+4DheuUtX62Pwo/eZUijzvMH5QVZ5oPb738lG6apwHWbqHmVSiQ69ToIau2+31CaJtTBeU1Opu322t7VZtF+0jYXmvgnciRl7KV/+1UOPZtoJEE/ugTTxpErrzOnpuNNzeUeUZ5hE3vYXLOLP4Kaawfb+x3k5gwPeuTnYc/lUzSnh45e7YrzLTjGvODQ0CQj65XW/6b8IUaC9epxDpncKmEq8XlVgO3tp95lpZ9z9X317j9ZucumbNFPdnTDGeQxa/fLmHoKFdE0/beeBU0rvk7wAt6g/49fJ+iZrfJMIXIOxc8zmbOp3wU/a52bvo6ZW6WU+zRaRhF+x/qgKVTqwtCjPoKhTgoM2kSnXq/6LD8RdZ4/qP/Aq1D/+Dva0Vo8enkFpy2lsvAquSm7fwahtLypZ6xulTBl6AzvL7+qdAZeXB8s8zKs8oM1kaZX7hDCisDQKT2luO22iivYTFC5D2txXW+6tRZq4i681YhkKtS+MHHERT3ZE49x01oLNf24MRDrdPYnoWWVUatGL1Zhs0Alsu5+ecoBUtxDJqJTaB6z/1vWA4YBMwqiachQSUvBU/B0XvgrEHQyL8B+alifb8Xrz+JfHOPOIZOwj5rePyeevp+GkqDcZb366A1GZOW0C7aJUgcMynSeW1YR957qQaSYNvpQSNAXUSoL0zzTiKvfs9I88o5Ru5D4ZslURnKXDdd/gv7XF9r+lOujuDrevB7Rm5YkmTfT9SquPkzKNM8flSWPkxUdx0Q85fDp7jNtvBh9Wp8+BoY2jolhGp94ZLz3WDdx48+o9PE5ooJxitQxQXw9xrWCcfulsZXi5ulTx3IxrKu63f40UJ78E2OMFLTpk4hbz8g4K4Z9YqSUl77fESkjmTatUj56WfvM80si7jhSxz0y7RsYxory+fsjFD3e1fGG/Pn3HCerEJ2H6VjQl+vTzzd9m1pwlt7gsmF8pLhjRN3fPv94GXbEbn0dQ6ZjPfY49cchCsrHUB6Gc0jdT5CX0WOIDZ/p+NK3yVzu6jHgU49N7bzRhNvqb2N0bChv30pvrwj3d/TcMpVRGsbjKKYc9X2p7zOfuQwS1MXK8asv08BwzCc93sP1MG9L7PJNx4Aybp7PuD+N9YJSn2jjZCnrIq2DeX7mcxLGY17Qx+lKPs8fTSTIuohMByaF+lUi5738TAENEf0Yvpf6qd96pAngB6HezA1q2GDbJIt5fk9Sd3wnIiKiFPxhG0bQx41+LAyyqCe/U29cFqdXvwAioosu7F80mj5u9GNhkEVERDRipeXNYOwuSG8ooYvlwvfJIiIiIsoCM1lEREREGWCQRURERJQBBllEREREGWCQRURERJQBBlkDsLyXvTqvnYFeGUBERETnH4Msj1VcwfMLFjTJwaL8uUhlQERElBUO4eDh61ME0zvOiIiIKD1msijq7RscSG9hJyIiosFomSz9rdnmt4b7b6kPRd/ajsgbw79gMeat3lBeXrk98Uyar3nZSdcR8os3pe/8F1HGvqFdJr+BvMe8TPS3i+vrKcrxFM7SG1yW18XwxvdwemmFY6YbVFAmp9m8qJSIiOiiiARZ/gVcbiqyrDJqTyew7V3Iw8AkDKrC76JBxOK6Az/GCAIbQ7NcJGiSggbx99HgzdSc5a+3GvAEQU4kUCri3tPb+PxbNCA0rVcv/d4cLtbdXB7y38hBk79NcW9kN83TWqhhc+JNonVOQqwPtGCQiIiI0gmaCy2rjMW5PNBqRC7YrtvEQ/nlv7due8FUGKS47jH++K2BNvKYLS8Ef+uLBCIf3uEkrjlKyco0j1oACijdEj9bVhH3boigSV7Ho1evcNABpmbCZQfTdvZQf7ITfC9eaFyLBFijZhVXcLMAtJ1ooNJ8siHW88aytu1y0Oi6TRy2ABRKWPSms6wiLo8B6HzEuw/h37k7tUhZWFYZj5SO7NHPJu4Xo8teXA9/F8EqAywiIqJhhX2ybpUwhQ4OmmFAYlKeKWgXesiBwdiEEkC0cPhW+m8P3ZN3vZu9rl7HdB5oH0XX0XWP8fk0GpQE0/49uqa0pGauXUHOsN2ue4x3Jx0gfwmTkV86OHmvFKgi2Mb8PKpP9SDN57pNPLxjw479rGoB1Pbj8PdKfQ9jdgPO7yuxyyAiIqL+giBrZmIs+otBkE3pRQsgRmjyEnIApuyGlqGJdH2Spv0WJsd7dfICgDFcvqp+19/2Yxv1/Y4ItLa8MhhxMOQev8Cq0wLy81j0MohERESUXqqnC4NsikHYnPUvPqk/jsqnf9H1mh/1DI0N+062zYBJffraUb8KiADsFJ97J65iHb5cDbY3DLgeSs2K6ZsLNV45ExER0eCCIOvo/Ud0kcf0td4plk9fO0D+Cq5rk/2E8XyCJr9hfPiCU0T7XsV6e4h20mlH7OjLaaQvmS8IRFuHIwkGD1+uikBLyowN0lyoEs2dHXzNLFomIiI6/4Igyz1+gd0WkJtbw6OFMNNhWWU8kpqkjl7tig7uVTl7UsS9pxVMoYXdVwOmaBJw3Sa29ztAodJ3VPK4acUo57Ww75bP75A/d1v/LS1vrKkp+1kka1R+4D2B2affm4nIUEXX27KKuD6dN/aRG5S1UPOeMH3VNxgjIiKiePo4WdrYTvr4V8bxpZThBhAMOaAMweD/LcInCeOGT4gbJkEfJ0swjVKuT6uPVeXrt1162cj0+cpDWIhJ9DGt4oZMMJadti3mck/KOD/D/iYiIqL0tCCLiIiIiIaXquM7ERERESXDIIuIiIgoAwyyiIiIiDLAIIuIiIgoAwyyiIiIiDLAIIuIiIgoAwyyiIiIiDLAIIuIiIgoAwyyiIiIiDLAIIuIiIgoAwyyiIiIiDLAIIuIiIgoAwyyiIiIiDLAIIuIiIgoAwyyiIiIiDLAIIuIiIgoAwyyiIiIiDLAIIuIiIgoAwyyiIiIiDLAIIuIiIgoA/8/afPUNqz0mT8AAAAASUVORK5CYII=;" vertex="1" parent="1">
          <mxGeometry x="1330" y="745" width="601" height="435" as="geometry" />
        </mxCell>
        <mxCell id="Xc4o_MEQR1hn2dSGwkAX-2" value="&lt;font style=&quot;font-size: 24px;&quot;&gt;Тхт с датой локаций, пока без объектов в них&lt;/font&gt;" style="text;html=1;align=center;verticalAlign=middle;resizable=0;points=[];autosize=1;strokeColor=none;fillColor=none;" vertex="1" parent="1">
          <mxGeometry x="1365.5" y="680" width="530" height="40" as="geometry" />
        </mxCell>
        <mxCell id="ieEiltibmTb74v0SHaAT-1" value="&lt;font style=&quot;font-size: 24px;&quot;&gt;Дублирование формул из гдд&lt;/font&gt;" style="text;html=1;align=center;verticalAlign=middle;resizable=0;points=[];autosize=1;strokeColor=none;fillColor=none;" vertex="1" parent="1">
          <mxGeometry x="2132.64" y="680" width="350" height="40" as="geometry" />
        </mxCell>
        <mxCell id="ieEiltibmTb74v0SHaAT-2" value="" style="shape=image;verticalLabelPosition=bottom;labelBackgroundColor=default;verticalAlign=top;aspect=fixed;imageAspect=0;image=data:image/png,iVBORw0KGgoAAAANSUhEUgAAAm4AAAJNCAYAAACIkPmLAAAAAXNSR0IArs4c6QAAAARnQU1BAACxjwv8YQUAAAAJcEhZcwAADsMAAA7DAcdvqGQAAP+lSURBVHhe7N19XFRl3j/wzyiowIyiYTKjMmIWpPZgwKqrK+NqmSmYNhZmDdW2a4JrtWyBm0t7U61w1/xuI0DXtXYhN2mbNBmTLFygNDUYyXxEDRrUGUwEcYZBeTq/P27Ouedc88CAgKDf9+s1r/L6XufMmWEevvO9ruscCcdxHAghhBBCSJ83gG0ghBBCCCF9EyVuhBBCCCH9BCVuhBBCCCH9RL9M3PR6PSQSCWJjY9kQrFYrVCoVlEolzGYzGyaEEEII6bf6ZeIWFRWF1NRU5OTkQK/Xi2KZmZkoKSnBtm3bIJfLRTFCCCGEkP5M0l9XlVqtVixcuBCVlZU4cOAA5HI5DAYDZs2aheTkZCQmJrKbEEIIIYT0a/2y4gYAUqkUWq0WNTU1SEpKgtlsxpIlS6BWqx2SNn74VCKRCDf7Yda0tDSoVCqsXbtWiDsbajUYDPDz8xPtx77ix+/HarUCAGJjY+Hn54f/+Z//EW1jf2P78+1+fn4wGAwO+3Z3jHq93qEtLS3N4TjNZjOUSqXDfvghaGc3lUqFM2fOQKlUivbFPyf888nvm+9jH2djbJwXGxvrdBicEEIIudX1aOLGJkxpaWlsl+sSFhaG3Nxc5OTkQKFQAABSU1NFffjKnFKpBMdx4DgOpaWl0Ol0ouMpLi7G3r17YbFYwHEcVCoVpk2bJiRBfDUvNzdX2E9qaipiYmJECRbPYDCgvr4eFy5cwMsvvyzaJigoCCaTCRzHoaioCFKpFLGxsSgqKhLac3NzER4eLkpyOjpGltlsRlZWlqjNYDBgwoQJiIuLE44pLi4O06ZNQ3h4uNvj9PPzE+0LANLT02Gz2dhmQXp6OnJzc5Gdnc2GABfbZ2dnu+xPCCGE3Mp6LHEzm82YNGkSiouLhbakpKRur6RERUVBo9EAADIyMhzmtZWXl6OiogKrV68W2kJCQhAREYHjx48Lbb6+vtBqtZBKpYBdApiTkwMAKCgoQEREBGbPni1sM3fuXACAyWQS2njp6emYPn26sD93DAYDdDqd6Pj5x6XVaoWKXEfHyEpKSgLHcfD19RXa+McRHx8vtCUmJsJoNDo8dx3R6/XQ6XQYO3YsGwLaH9fhw4cRHh7OhgAPtieEEEKIWI8lbjk5OaiqqmKbodPpnFaouopPetC+b1ZYWBiqqqoQFhYmDMvJZDJRQgkAERERCAkJEf4tl8uhUqmE5C4xMVGojvHDj+Hh4Q7VIrQnrYcPHxYSu44UFBQgICDAIcFRq9WorKyExWIBPDhGewaDAYWFhfjTn/4ktFmtVuTn50OpVHqUULpjtVqh1Wrx8ssvY/z48WwYaH9c9913n9OE0JPtCSGEECLWY4mbs2QCAGw2m9MKVVdYrVYkJCQgICAAGzZscLrK1H64Njw8HGq1GhaLBZGRkaJ+HbGf35aUlIS8vDyUlpaKqlloH868//778f777yMsLEwUc6eqqgoKhUI0ryw6Oprt5rH09HTMnj0bERERbAgTJ05kmzqtsLAQlZWVLiuo0dHROH78uMshz462J4QQQoijHkvcXCUHvr6+wny065WZmYni4mJkZGTghRdegEajwapVq0RzvgoLC1FSUoLS0lJwHOcykWBZrVYYjUbh3+np6YiIiBDml0VFRYn68yIjI/H9999jyZIlnZrTZz+fzP7mbgiTPUZeaWkpDh8+7DDfj+cqqfaUxWKBVqt1OjTNy8vLw8SJEx0WS8DD7QkhhBDiqMcSN41Gg6CgILYZarW6U5UoVwwGA1JSUpCamiokUXyikpSUJPQ7fvy4wxBjeXk5SkpKhH8DQElJCcrLy4V/WywWVFZWQq1WCwnS/PnzRUOMBQUFTodK5XI54uLikJWV5ZC0ODNx4kTU1NQ4VCLZVarujtGeVqvFsmXLHJIiqVQKpVIJo9Eo7LMrdu/eDQCi+X7O8HMP2Tl4nm5PCCGEELEeS9zkcjmOHTsmGpJMTU31uOLlDn/qD3aSvVwuR0ZGBnJycoRq18SJE1FcXIzCwkLAbnjVZrOJEhibzYaEhATh30lJSQgODsbs2bOFhMc+EeMTR7ioYMXHxyM4OFiURLoSFRUFtVqNJUuWOOw/ISFBSBbdHSOvqqoKlZWVQtLEWr16NUpKSpCZmSm06fV6h9OPuJOTkyM6Llf4v0dKSopo355uTwghhBCxHkvc0F7hKSoqEob92POrdYXVasWyZctQU1MjWmHJ41djJiUlQa/XC1dZiI6OhkQigUwmw/z586HRaEQT/4OCgnDPPfdAJpNBIpHAaDRi586dwv4zMzMRHBwszEPjTw0SFBTkNHGTSqVISEhwOu/OmezsbKhUKmH/4eHhyM3NFQ3JdnSMvLi4OIdqGy8sLAxnzpxBVlaWMJcuJiYGX3/9tceV0MjISI+rZfw8u4SEBDQ0NAAebE/ncSOEEEKc67dXTuhOaWlpyMrKEq7A0Bf1h2MkhBBCSM/q0YobIYQQQgjpPpS4EUIIIYT0EzRUSgghhBDST1DFjRBCCCGkn6CKG+mz2tra2CbSBw0YQL//CCGkt1DiRvqsK1eugF6efdugQYPg4+PDNhNCCOkh9FOZEEIIIaSfoMSNEEIIIaSfoMTtBjObzVAqlcJVDCQSicurBjjra38he6vVCpVK5fTC7vZiY2M77MNKS0tzuY1er3d73IQQQgjpHpS43UB6vR4KhQJxcXHCZcEsFguMRqNDkmQwGDBhwgRR39LSUqSkpIiSNwDgOA7z5893mWSxF32/HlarFVqtlm0mhBBCSA+gxO0GMRgMiImJQV5enugarvz1XVUqFZYtWyZcUL6goAARERGIj48X+oaFhSE5ORlZWVmiJG38+PGoq6tDaWmp0Ib2JOv999/HokWLRO3XIzMzE5cvX8Z9993HhrpFk8WCfUlJ2DRyJDb6+yMnNBRntm0D7BYt/OeFF7DR31902yyX4+L334v21VuqqqrwxhtvYNmyZVCr1XjxxRdx5MgRAIBOp4Narcb69euF/qdPn4ZGo8HKlStRW1sLAGhpaUFqairUarXotnbtWjQ2NgrbeqK2thYrV67Ee++9x4Y80mAy4atnn8XfRozARn9/fDxtGsz79rHdCCGE9AJK3G6Q9PR0REREuLzY+urVq1FSUoLCwkIAQGJiIoqKihwuKO+MUqmESqWCTqcTtZeXlwMAJk+eLGrvKrPZjKysLLz66qvw9/dnw9ftWl0d8hYswJGNG9HW3AwAsFVXY8/zz+NcURHbvU8oLy/H66+/jsOHD6O5/ZjPnz+Pjz/+2GnC1dLSgu3bt8Nms4nam5ubhaS9q4xGI7RaLaxWK2QyGQIDA/Hdd9/hgw8+QEtLC9vdqfoff8Sns2fjx+3bwbWfnqXu5Ens1mhQd/Ik250QQkgPo8TNDX7OmLP5ZNfDarXCaDRi/vz5LhOxkJAQRERE4Pjx42xIYDAYkJKSApVK5XDhebVaDaPRKPryLygowPTp0yGTyUR9uyopKQkqlQrR0dFsSIR9HtmbSqVymqQMHj4cD/zxj/jFn/+M500m/La6GnctWwaurQ0XDx8W9fXy8cFjRUV44fJlvHD5Mp43mzHy/vtFfTzBV6e6UtlqaGjAP/7xD1gsFjzwwAPIyMjAJ598gv/3//4f7r33XrY7AOCHH35AWVkZ2ywYOXIkNm3ahHXr1sHX15cNu2UymXDkyBG89tprqK6uxu7du/HOO++goqICFouF7e7UsPHjMeWll6B67z387uJFPFtZicBp03D10iVc+ekntjshhJAeRombC2azGTNnzoRWqxXmlKF9Yv/1slgsqKysZJudcpa4paWlQSKRIDw8HBEREcjMzGS7IDw8HJcvXxaqbFarFfv378fcuXPZrl2i1+tRVFSE1NRUNuSAH/7ln0f25q6SOD46Gg8kJMDL1xcDhwzB8JAQtkufcf78eZw/fx7+/v6IjY1FYGAgJBIJgoKC8Pjjjzuc76yxsRHbtm1DW1sbJBKJKNba2oqmpiZRW2dNnz4dGRkZuOuuu2Cz2WCz2RAbG4uUlBQMHz6c7e6cRIJ7Vq5E6NNPY4C3NwYPH46h48axvQghhPQSStxc2LFjB95//32EhYUJbYmJiZg+fToMBoOob29LTEwUFjIAEM1748lkMvj7+6OgoAAAUFhYiMuXLyOkGxIffkFCXFycQ6WvJ12trUVlXh68fHwwRqUSxVoaG/GpSoWN/v7IjYj436G91lZRn55WV1eHxsZGBAYGYsSIEWzYwYEDB1BeXo45c+YgICBAFGtqaoLFYsHgwYMxcOBAUcxT+/fvx6pVq3Dq1Cn4+vrC19cX2dnZSE5ORl1dHdvdI/UVFThfVIRh48fjtnvuYcOEEEJ6GCVuLpw/fx4KhYJtxujRo2EymdjmTpHJZAgODmabnZo4cSLbJJBKpdBqtdDpdNDr9Q6x+fPnIz8/H1arFTqdzu3QbGfwFT5nCWNPab16FQdefx0/HzqE8KQkjHSzGOLy6dP46tln8eNnn7EhpxobG7F27Vqo1Wr87ne/w8WLF3Hy5Ek8/fTTXV4Q0JH6+nrk5+dDoVA4rYJevnwZNpsNUqkUgwYNYsMeUSgUuOeee/DWW28hMDAQ8+bNwx//+EeMHz++S8Pl1+rqUPzii7D9/DOm/uUvkI4ezXYhhBDSwyhxc8FVguYqoesMqVQKpVIpJFXOlJeXo6SkxG3ihvYv54CAAKdDqnPnzkVFRQUKCwtx+PBhpwlCZ5nNZmzduhVardbjJLCrc9x4TVeuYM+KFTj54YcIT0rCvXFxgN3Q4q83bvy/uW3V1QhPSgIAVH31ld1eet6gQYPg5eWFCxcuoL6+ng2LHD9+HEajEfPmzXO6sKO2thY2mw2jRo1yGGL1lFKpREJCAqRSKSwWC6qrq/GLX/wCzz33HLy8vNjubjWYTNi5ZAnM+/ZBlZGB8VFRbBdCCCG9gBI3FxYtWoT09HRRQmEwGHDs2DHR8GlXsatGWeyq09jYWKcJjslkQk1NjdMELyQkBOPHj8fatWvh7+/fLcOkf/jDH3Dfffd16jm4njlulqoq6Bctwrn//Afzc3MRnpiIAd7ebDdBW1MTWq9dAwAMHjaMDTvl4+ODN998EzqdDps2bcLIkSMRGhqKDz/8EDqdDm+++aZHydO4ceMwatQo1NXV4R//+AcuXboEjuNQWVmJDz74QFS1a21thVKpxMyZM0X7QPswaUFBATiOw4QJE9hwp40YMQIbNmzA73//ezbkkZ8PHcL2Bx/EtcuXsbigACFPPilKnAkhhPQeStxckMvlWL16NUaNGiVUhhISErBu3Tq2a5eEhYUhNzcX0dHRTq9+UFRUhK1btwoJDZ/o2Q9Pms1mLFmyxOVpRfjK3g8//NAtw6RVVVWorKz0aEFCd2i8eBE7Fy/GxbIyNFksyI+Jwcbhw7HR3x9bJk9GQ3U1GqqrsWXyZOH8bR8EBaHsf/4Hg4YNQ8jy5ewue9Tw4cMxf/58DBgwAAaDAStWrMDSpUvxyiuvoKKiQtTXy8sLjz76KIYOHSpqr6urw4svvojS0lLcdtttmDJliije2y4dPYrPlyyB9fx5XKmsxLZf/1p4rncsWIAmN5VSQggh3Y8SNzfCwsLQ0NDgUWWoK6KiomAymZCVlSUkhzKZDEqlEkajUTTxPywsDGfOnEFRUZHQV6FQCEmeq+NSq9Xw9fXtlmFSAL26IKGttVWonnnKy9cXd2s0eGL/fgS4OAVHT5o3bx6Sk5Nx5513YsCAARgwYABCQ0Pxu9/9TlS1u+eeexAeHi7aFu3ndWtpaYGPjw+eeeYZBAYGsl16VVtLS6f/BoQQQnqOhOPsTkFPSB9y5coV0Muzbxs0aJBHw8iEEEK6B1XcCCGEEEL6CUrcbnGxsbEOqzzZW3ecdJgQQggh14+GSkmfRUOlfR8NlRJCSO+ixI0QQgghpJ+goVJCCCGEkH6CKm7kurS1tbFN5BY3YAD9HiSEkJ5CiRu5LteuXcPVq1fZZnKLGjJkCAYPHsw2E0II6Sb005gQQgghpJ+gxI0QIigrK8PTTz+Nf/7zn2hqasK6deuwYsUKnDt3ju1KCCHkBqDE7QZxd/40+2uXms1mKJVKUZv99kqlEmfOnIFKpYJSqYTZbBb1sxcbG9thH0IIIYT0XZS43UCRkZGwWCzCtVA5jkNpaSlSUlIcEjV7aWlp0Ol0KC0thdFoFK5nyXEc5s+f7zQx0+v1yMnJYZsJEZkyZQo+/PBDPPPMMxg0aBDWrFmDv/3tbxgzZgzblRBCyA1AiVsfExYWhuTkZOTn58NqtbJhWK1W5OfnQ61WIywsTBQbP3486urqUFpaKmq3Wq14//33sWjRIlF7d2morsaWyZOx0d9fdNuxYAGaGxrY7h2qra3FypUr8d5777EhjzQ2NmLt2rVQq9Wi29q1a/Hzzz/j1VdfxdKlS1FYWChsU11djRUrVmDFihU4deoUXn75ZSxbtgyHDh0C2pPiv/3tb1Cr1di8ebNHJwY+ePCgcL+NjY0AgIsXL2LVqlXQaDQ4ffo0u0mPW79+vcPzsnLlStTW1gIAdDqdQ1ytVmP9+vWA3WNauXIlLl26BADIyckRHqfNZhPdHyGEkO5FiVsfVVlZCYvFwjajsLAQJSUlWL16NRuCUqmESqWCTqcTtZeXlwMAJk+eLGrva4xGI7RaLaxWK2QyGQIDA/Hdd9/hgw8+QEtLC9u9S2QyGR599FEMHDgQ+fn5uHLlCgCgtLQUly5dQmRkJO666y488cQTAIBt27ahsbERZ86cwb59+xAYGIhFixZBIpEwe+4Yx3HYvXs3qqur2VC/U1dXh6qqKjQ2NuLUqVNsmBBCSA+hxM0Nq9UKlUrldO5ZTzp+/DiCg4Mhk8lE7WazGatWrYLaSbWNp1arYTQaRdW6goICTJ8+3WF/LL1e7zDfzv6m1+vZTUTkM2bgN+fP44XLl/HC5ctY9Pnn8PbzY7u5ZDKZcOTIEbz22muorq7G7t278c4776CiosJpEutKa2srmpqaMHLkSGzatAnr1q2Dr6+vEJ8yZQomTJiAyspKlJWVoaGhAXv37oVMJsOMGTMAAOHh4ZgyZQrOnDmDkpISfPHFF2hsbMRjjz2GkSNH2t2b56qqqkRVvs7iK5H2FbzOaGlpwdWrV+Hr64t169Zh06ZNLh9LTEwMdDqdcHvppZeA9mOQyWS4/fbbceTIEdTU1MBisUChUHhUhSSEEHJ9KHFzwWw2Y+bMmdBqtcL8M7RP8O9J/Fy0+fPnQyqVCu1JSUlQKBSIi4tDdna2aBt74eHhuHz5slBls1qt2L9/P+bOnct2dRAVFSWab8feoqKi2E261fTp05GRkYG77roLNpsNNpsNsbGxSElJwfDhw9nuLjU1NcFisWDw4MEYOHAgG4aPjw+WLFkCLy8v5Ofn49ixY6iqqsLkyZMxevRoAICXlxeeeOIJ+Pn5ISsrC9988w3uv/9+IbHrrNbWVuTl5eHKlStOj6k3NDc3w2q1wsvLC0OGDGHDHmloaMCQIUMwa9YsnDlzBkePHoVcLodSqURtbW2XEkpCCCGeo8TNhR07duD9998XVbYSExMxffp0GAwGUd+uKi4uhkwmE1W1oqOjkZeXh8TERFHf1NRUYeGCSqVyOv8N7UOB/v7+KCgoANqHVi9fvoyQkBC2a7cz79uH90ePxt9GjED+44+j9uRJtotb+/fvx6pVq3Dq1Cn4+vrC19cX2dnZSE5ORl1dHdvdpaamJrS0tEAqlWLQoEFsGGgfNp48eTJ++uknbN26FW1tbYiMjISXl5fQJygoCA8//DBaWlowZMgQPPbYYy7315ETJ07g4MGDCA8Px/jx49lwr+ArkYMHD4ZfB5XQ3Nxc0Rw3dvh97NixsFgs2LdvH+67774Oq7mEEEK6ByVuLpw/fx4KhYJtxujRo2EymdjmLnG2qtRdZSssLAy5ubkoLi5GZmYmGwYASKVSzJ8/X1jcoNPpHKp3PY1ra4Pxyy/x+eLFsBiNbNglhUKBe+65B2+99RYCAwMxb948/PGPf8T48eM7lRhcuXIFV69ehVQqhbe3NxsGAAwaNAiLFi2Cl5cXzp49i3HjxuHuu+8W9WltbUVlZSXQvuChoqJCFPdUS0sLPv/8c3h7eyM6OrpTFTf7hRa/+93vcPHiRZw8eRJPP/20sCDA0yrXtWvXUF9fD5lM1uUElF/EIJfL4e3tDZPJhMmTJ2PEiBFoa2uj4VJCCOlhlLi54CpBc5XQ9ZaoqChoNBqkpKS4rPzNnTsXFRUVKCwsxOHDhz0aJsV1zHHzCwzEU0ePCnPbNCdPInDaNDSYzag9cYLt7pJSqURCQgKkUiksFguqq6vxi1/8As8995yoEtaRH3/8EY2NjVAoFG63Cw0NRUREBCQSCWbNmuVQhSotLUVZWRnkcjmkUim2b9/u9DXRkcrKShw7dgwzZsyAUqlkw72mqqoK9fX1GDFiRIdDpewcN7VaDQCw2WwYMGAAZDIZxo4dC4VCgYCAAKA9yeRXmhJCCOkZlLi5sGjRIqSnp4uGJA0GA44dO+ZyYUBv4VeUpqensyEAQEhICMaPH4+1a9fC39/f42HSbpnjxnFottnAtbQAEgkGdpAgODNixAhs2LABv//979lQhywWi8NCA1d+/vlnnDlzBgqFAtOnTxfF6urq8PHHH8Pb2xurV6/GnDlzUFdXB51O1+kVrq2trfD398cjjzwCSSdXo/r4+ODNN9+ETqcTFhOEhobiww8/hE6nw5tvvgkfHx92MwdNTU34+uuvIZFIoFKp3Ca0HRk+fDiGDBmC3//+9x7fPyGEkO5BiZsLcrkcq1evxqhRo4SKU0JCAtatW8d27XVhYWHCvCNnVTepVAqlUokffvihV4ZJjV988X/nbxs+HFsfeAAXSksxRqXCqIgItnuPOX36NOLj41FeXg6LxYLExESo1WqsWbMGNpsNJ0+exOeffy6ci2z16tWorq6GSqUSLX7gOA4FBQU4e/YsIiIiEBwcjHnz5iEwMBD79+93OE+eJ+bNm3fDKrW1tbV48cUX8c0336C5uRnvvPOOaOj14sWLDidnZue4rV+/XliVSggh5MahxM2NsLAwNDQ0CBWnoqKiHk+CPJWamoqAgAAsWbLE6XnB1Go1fH19PR4m7U7SsWMxIy0N87du7dTpQHqbt7c3Fi5c6FBJrKiowK5duyCTyRAdHQ0vLy+MHDkSDz/8MJqbm/Hxxx93arHE2LFjMWfOHLa53+FXpTrj5+cHm81GQ6WEENLDJBzNJibX4dq1a32mCnP27Fm8/vrrUCgUeO2110RDeDqdDrm5uYiJiRHma90q6uvr8frrr+PatWt46623MGLECCF28OBBvP3225g5c6ZwrrbrMWTIEAwePJhtJoQQ0k2o4kZuGn5+fr2WNDi7dJT97UZd0sqZQYMG9ZlKMSGEkOtDFTdyXfpSxa03rV+/Hnv37mWbBb6+vvjzn/+MO++8kw3d1KjiRgghPYsSN3JdbtXEjThHiRshhPQsStwIIYQQQvoJmuNGCCGEENJPUOJGCCGEENJPUOJGCCGEENJPUOJGCCGEENJPUOJGCCGEENJPUOJ2A1itVqhUKsTGxora09LSIJFI4OfnB4PBgLS0NCiVSpjNZlE/ANDr9ZBIJA77IIQQQsjNixK3PkKv1yMpKQl5eXloaGhAWFgY20VgtVqh1WrZZkIIIYTc5Chx6yN0Oh0iIyMxe/ZsNuQgMzMTly9fxn333ceGCCGEEHITo8StDzAYDNDpdEhISOjwmpJmsxlZWVl49dVX4e/vL4rFxsbS0CkhhBByE6PEzQ1+LppEIoFEIkFaWhrb5bpZrVYkJCQgIiLCo2pbUlISVCoVoqOj2RCys7ORnZ3NNhNCCCHkJkGJmwtmsxkzZ86EVqsFx3HgrwzWnRWtnJwcyGQyKJVKFBUVdVht0+v1KCoqQmpqKhsihBBCyC2AEjcXduzYgffff1+0SCAxMRHTp0+HwWAQ9e0qjUYDk8mEoqIil6tHefyChLi4OMjlcjZMCCGEkFsAJW4unD9/HgqFgm3G6NGjYTKZ2OYuk8vl2LZtG2pqapCUlMSGBZmZmQCA+Ph4NkQIIYSQWwQlbi64StBcJXTXIywsDMnJycjJyYFer2fDMJvN2Lp1K7RabYfDqYQQQgi5eVHi5sKiRYuQnp4Oq9UqtBkMBhw7dsztOda6SqPRICgoCFqtVnSfAPCHP/wB9913X4/cLyGEEEL6D0rcXJDL5Vi9ejVGjRolrCpNSEjAunXr2K7dQi6XIy4uDsXFxSgsLBTaq6qqUFlZSQsSCCGEEEKJmzthYWFoaGgQVpV6svLzesTHxyMyMhIxMTGiBRCeLkig87gRQgghNzcJx5/nghBCCCGE9GlUcSOEEEII6ScocSOEEEII6ScocSOEEEII6ScocSOEEEII6ScocSOEEEII6SdoVSkhxKWrV6+iqamJbSbkljJ06FC2iZAbhhI3QohLV69exbVr19hmQm4ZEomEEjfSp9BQKSGEEEJIP0GJG+m02NhYqFQqh2uq8tLS0qBUKmE2m4V/85cN42/2cU+lpaUhLS0NaL9u7KOPPuryGAjpjO+++w5vv/02Ghoa2BC5RZw4cQJpaWmwWCxsiJA+hRI30mmrV69GSUmJ6JqqPLPZjKysLOEyXfwluPjLhvE3o9Ho0WW87MXHxyM/Px8SiQTh4eH4zW9+06OXICO3hvLycmzYsAEmk4kSt1sUx3E4efIkDAYDJfCkz6PEjXRaWFgYkpOTodVqHSpepaWlAACNRgODwYD6+nrEx8eL+nSVVCpFUVGRkPxFRUWxXUgP0Ol0UKvV0Ol0AICWlhb893//N9RqNT755BNcunQJK1euhEajwenTp4U+7733nmi7vujSpUvIysqCVCrFmjVrcPvtt/9vgONgqarC9+++i9yICGz098eOBQvQzHyht9hsOPiXv+ADpRIb/f2RExqKE9nZ4FpbRf16y/r166FWq0W3lStX4tKlS9iyZQvUajX++7//Gy0tLUD730mr1WLp0qXYs2cP3nrrLSxduhS7du0S9rlz506o1Wq89dZbHi9UYY9j2bJlWLt2Lc6dO8d27ZTi4mIsXboUO3fuZEMuca2tOK3TISc0FBv9/bFp5EjsW7MGLTab0EcikeDRRx/FE088gRMnTmDr1q2g6d+kr6LEjXSJRqNBZWWlqOpmtVqh1WqFapvJZMKwYcNQWFgoGiblhzv5bVQqlajNbDZDqVQKw7Ge9OHFxsaK7kuv1wt92eFaiUQCPz8/GAwGh+0kToZz2f2wcZbBYICfn5/Dfu0fR2xsrHDj4+xjAgC9Xu/0uO334yzOP3f2Mb4KCrvHpNfrhbaOfPfddzh06BAmTpyIRx55BBKJhO2CkydP4uDBg2xzn8JxHPLz83HhwgUsXbr0/5I2ALaLF7FLrcaB11/H5TNnRNvxWq9exVfPPYey9evRVF8PALBVV6P4xRfxw4YNbPcbSiKRYN68eQgMDMQPP/yAkydPAgDOnz+Po0eP4o477sC0adMQExMDqVSKXbt24eLFi7h48SK++OIL+Pr64vHHH8egQYPYXXukubkZJ0+ehFarxZUrV9iwRxoaGpCfn48RI0YgPDycDbv03RtvYM/zz8NWXQ0AaGtuxpENG3AwJQWwS84kEgkefvhhhISE4Ouvv8YZF393Qm40StxIl8jlcsTFxWHVqlVC8lJYWIjKykpoNBoAwPHjx5GTk4NVq1bBZDKB4ziYTCZkZWWJkhdWTk4Oqqqq2GYRtg+foBiNRlgsFnAch9LSUsTExKC0tBRGo1Fo8/X1RV5eHjiOQ0NDA8LCwgAAkZGRwrYWiwXBwcFISkoC2pOwCRMmQKVSCRU/lUqFadOmuU3eAAj3xXEc8vLykJKSIkq6cnJygPZEgp9fs3DhQiF50+v1wuPg96NWq7FkyRLRfdsff0NDA0JCQrBw4UIolUphu9LSUuh0OuH5l8vlMBqNHlcv6+rq8Mknn8DHxwfLly+Hn58f2wVNTU3YsWMHrl69yob6lAsXLuCbb77BuHHjhNcAz3fkSIxbsAARr72GqB074OXjI4oDwPm9e2HcvRtDx43D4/v2YcWlS5izeTMkAwbgZE4ObD//zG7iVm1tLVauXIm1a9eisbGRDXeopaUFV69eha+vL9atW4dNmzZh5MiRQnzkyJFQqVS4evUqdu/ejZaWFuzbtw8WiwUzZ86En58fxo8fjzlz5qC6uhrFxcUoLi5GdXU1HnroIUyYMEF0f5545ZVXoNPp8Pbbb8Pf3x9Xr14Vqn2ddeLECfz000+IjIxEYGAgG3Zp4nPP4e7YWCw/fBgv1NVhzubNgESCmiNH0GxXdQMAPz8/PPjgg2hsbHQ6FYSQvoASt5uQsyqL/c1d0tQZfIKWk5MjVNtUKpXD3LWMjAyhTS6XIyMjwyF54RkMBmRmZmLs2LFsSOCsT3l5OSoqKqDVaoV5b2FhYWhoaPA4KbEnlUqhVCphNBphtVqRnp6OiIgIZGZmCn1SU1MBu8TLEwqFAgBgMpmEtqCgIGFfUqkUWq1WNIeQH6q0Ty7UajVqampE+2Hxz8nq1auFtpCQEEREROD48eOivp7gOA4FBQU4d+4coqOjERISwnYB2ofLjxw5Ai8vLzZ03fjnwtmtsxW+c+fOoba2Fg888IBjAiqRYOrrryPslVcwyMWpIM5+9RXAcbg3Lg4jJk1CfUUFznz6Kbi2NtRXVOBKRQW7SY9qbm6G1WqFl5cXhgwZwoYBAHPmzMHYsWNRVlaGQ4cO4fvvv8dtt90mVLAkEgkWLFiAsWPHQqfTQafTYezYsViwYIHTyqqnGhsb0dTUhGHDhmHw4MFsuENNTU3YvXs3fHx8MGPGDDbsliwoCJHvvguZUglIJPCfMAFeLp4fAJg8eTICAgJw5swZh8o3IX0BJW6ky/iqW1ZWFrZs2YKSkhJRkoD2pIQd1nCWvPDS09Mxe/ZszJ49mw0JnPUpKCiARCIR9n29zGYzioqKoFQqAQBGoxFKpVK0GEIul0OlUiE/P9/jD/iCggLA7jkA4JDssslVdnY2srOzAbsh0ejoaKG/K2FhYaiqqkJYWJgwbCuTyVBcXMx29UhVVRW++OIL3H///ViwYAEbBgBYLBZ89tlnCAgIwKxZs9hwn/LTTz+B4zjhb9xZ19qHRwGgMC4OuRERMObnAwDaWlpw7fJlu949r7W1FU1NTRg8eLBjItpu+PDhePDBB3Ht2jX861//gslkwgMPPIBRo0aJ+ixevFj49+LFizF8+HDh353x9ttvQ61WIzk5GT4+PvjNb37j8tjcqaiowIkTJzBt2jQEBQWxYc9xHH76/HO0NDYi6MEH4e3kWHx9fXHbbbfBYrF4PKePkN5EiRu5LnzVbeXKlQ5VIQAIDg6GTCYTtSkUCgQEBIja0F5JKywsdEj+7Lnr4+y+OqO4uBgymUyUAPKVMACYOHGiXW/PRUdHC9XOpKQkJCcnOzxP7tjPb9PpdCgtLUVeXh7bzYF95TU8PBxqtRoWiwWRkZFsV4+cO3cONmZoifXdd9+hsrISDz/8sGjOmKdOnz4NjUYjqqStX79eiKvbFzs4u02dOlW0r96y99VXUf7RRxgkk0GVkYHxHiTVvMbGRqxduxZqtRq/+93vcPHiRZw8eRJPP/001Gp1p4ZNr127hvr6eshkMrdz0WbOnIng4GCcP38eaB9it6+mcRyHqqoqtLS0oKWlBadOnQLXDRP1L126hM2bN6O2tpYNucVxnPBjgz3WTuE4nNm+HYe0WoyOjMSk555jewAAfHx8nH4+EdJXUOJGrgs/9Onr6+uQTE2cOBGVlZUO50UymUyoqakRtaG9khYfH+82qXHXx9l9dYb9HDGO4xAXF4dp06ahun1Ss6vhRbYSx7Kf4+bJHD+LxYLKykrAbsGHRqMR5q45e+zOFBYWoqSkRJgbx1ftumratGmYNWsWvv/+e+j1eocvc35e0JgxYzo9nNUfDfD2Fv479fXXoSkvR/DChbCcPYuBQ4bApwuJ6/WoqqpCfX09RowY4XKoFO2Xb4qOjsbAgQNx9913Y/z48aJ4RUUF9uzZg4CAAAwfPhxFRUU4duyYqI+n+DluH3zwAe677z78+OOPnR7SrqqqwoEDB3Dvvfd2aZ4d8L9J29G//x17nn8eo6ZOxZxNm1wOgV+7dq3TySUhvYkSN3Ldjh8/7rTaplAohGTFXkFBAQICAkRDqPv378fhw4eFCp4z7vpMnDixwzlfnTV37lxwHIf6+nrRfDceP5zamUocP7xqnwQWFRWJFhnwCznmzp0rJHFqtVqIo32uV0eOHz+OiIgI0Vy08vJylJSUiPp5auDAgViyZAluv/127NixA+Xl5aI4x3Foa2tDdHR0l4fW7rzzTuTk5IgqaS+99JIQ7845buPGjYNEInF4HJ4ao1IBAIaHhGB8dDQGeHvj2Pvv42JZGYbdcQeGjhvHbuLAx8cHb775JnQ6nbCYIDQ0FB9++CF0Oh3efPNN+DhZGMFqamrC119/DUn7qmR38wubmppQVlYGSftKU/vqXFNTE3Jzc9HY2AiNRoMnn3wS165dQ25u7nWd24wfxu2Kffv2obGxEb/+9a/dPi5XWq9exbevvYa9iYm4Nz4eUdu3w9duaJhltVpx8eJF3HbbbR4994T0NkrcyHXhFwqw1Ta0z7GKj48XrX40GAxISUkRThnC27FjB5YtW+awsMGeuz6zZ89GREQEEhIShOSKP9WFu+qWO/bz5viTDtufk45fceoskXTFWbJXVVUl7MtqtSIhIQGzZ89GWFgYZDIZgoODRefM0+v1yMnJgc1mc5uoTpw4EcXFxcIiB37fNpvNIQn11KhRo6BWq9HY2IgNGzbg0qVLonhISAimTZsmauurxowZgxEjRuDo0aMOp6hobmjAjgULsNHfH5+qVGhpbIR53z68P3o0tkyejIbqagQ9+CBGR0bi0tGj2BoWhk0jR+K7N96AZMAAhCcmYsiIEaJ99pTa2lq8+OKL+Oabb9Dc3Ix33nlHNPR68eJF5OTkCKtWn3zySRQXFyM0NBSTJk0S7evAgQM4cuQIJkyYgClTpmDatGkICQlBeXk5vvzyS1FfT/Bz3H7729/ixIkTGDZsWKd+6PCrW8eNG4e7776bDXtk35o1+CErC+A4HH7vPfw9MBAb/f2x0d8fxi++YLujsrISdXV1mDhxIiVupE+ixI10CX8Zq/DwcJdDlwCQmJiIuLg4KBQKoX9ycjISExNF/YKCgjpMgNz14U/Oq1QqRfPU4uLiHO7LFfs5bhKJBCkpKdi2bRvkcjnCwsJw5swZFBUVCXGj0Yhjx445TSTt2c9xUygUUKlUomOKjIxEfX09JBIJZDIZlEqlMKwplUqxdetWVFZWCse2atUq5OXlwdfX1+XwLQBERUUhNTVVuH+ZTIb58+cL5+CzWCxdOo/bjBkzcP/99+P8+fPYunWrcHoHb29vLFmypEe/7LpzjtuoUaMQERGByspKpyucOzJo6FDM2bQJdyxeDMmA//0o9b/zTsz/+GOM78JK5t4ikUgQGhqK3//+96K/1aVLl/Dpp58CAB599FH4+PjAx8cHjz76KAYOHIidO3fCaDTa7clzgwcPxv3334/XX3+9U4tBSktLUVtbi/nz53dpUQMAtHg4RxDtw/2fffZZl1avEtJbJBw7UYUQ0mtiY2NhNBqxc+dOt/PkbpSrV6/i2rVrbPNN4+eff8Ybb7wBq9WKpKQkl6c46cvq6+vx+uuv49q1a3jrrbcwwq7Sd/DgQbz99tuYOXOmaMi5P6irq0NKSgra2trwl7/8pcvD757iOA7btm1Dbm4uFi1ahOXLlws/uIa6mA9HyI1AFTdCyC3r9ttvxzPPPIPW1lZkZGTg506eNLcvGDRoUK8l/eylrNib/WXPrtcPP/yAc+fO4cEHH+yVpG3Pnj3Q6XS4++67sXjxYki6unqVkB5GFTdCbiCquPUN3377LcrKyvCb3/zG7YrMW9369euxd+9etlng6+uLP//5z7jzzjvZUJ9XVlaGwsJCrFixQjQsSxU30tdQ4kYIcelWSdwIcYUSN9LXUOJGCHGptbWVbSLkljNw4EC2iZAbhhI3QgghhJB+ghYnEEIIIYT0E1RxI4RcF5vNJpzLjZBb0YABA/rk4iJyc6LEjRByXWw2G5qbm9lmQm4ZAwcOpMSN9BoaKiWEEEII6ScocSPXhb9kEn+GcYlEgtjYWLYbIf1aS0sL/vnPf+Kzzz4DDVLcmtra2vDJJ5/gk08+QVtbGxsmpNdQ4ka6TK/XC9cD5TgOHMfBYrHAaDRCqVQKF5YnpD/jOA47duxAfn4+zGYznSLlFtXY2IgTJ07g3//+N7Zv304JPLlhaI4b6RKDwYBZs2YhNzcXUU4uqN3XrwhAuo/NZsPbb7+NvXv34pVXXsHUqVNx5coVvPnmm6iqqkJcXBwGDx6Mt99+G6GhoXjttdfg4+ODixcv4r/+679w5cqVPn22/QMHDuDdd9/FjBkz8MILL8DLywsAwLW24vKZMyj/6COc+vhj2KqrcVdMDH69caNo+/+88AJO5eaK2rx8fLAoPx8j779f1N7TGhsb8dZbb+HkyZOi9tDQUPzpT3/Ctm3b8Nlnn+EXv/gF/vCHP8DLywstLS149913ceDAAbzwwgs4cOAAvv/+ezz77LN45JFHAAA7d+7EP//5T0yZMgWvvPIKBg0aJNo/q7a2Fq+99houXrwotPn5+eFXv/oVnnrqqeu6ekVxcTEyMjIQGxuLhQsXsmGnuNZWnNm+HfvXroWtuhoDvL0x6fnnMfXPf4aXr6/Qr6GhAWlpaTh9+jReeeUVPPDAAwDNcSO9jCpupEvS09MRERGB2bNnsyEAwOrVq1FSUoLCwkJhODUtLU3UJzY2FiqVClarVeij1+uFuMFggJ+fnzD06qyPXq+Hn58fDAaD0JaWlibslxcbGysM5bL99Xq9Q4WQv2/+vpz1SUtLg0QiER0PO3TMHgeLvx/7oWaJRCJ6rmJjY4Wbu/3ax9k+7HHZx50dg7PHZN/WkS+//BIVFRWYOXMmfvnLX7JhcByH3bt3o7q6mg31KVeuXMG2bdswYsQILF26VEjaAKDu1Clsf+ghfP/uu7BduCDarj+SSCSYN28eAgMD8cMPPwjJ3fnz53H06FHccccdmDZtGmJiYiCVSrFr1y5cvHgRFy9exBdffAFfX188/vjjHSZtrjQ0NOCLL77ARx99xIY81tDQgPz8fIwYMQLh4eFs2KXv3ngDe55/Hrb212NbczOObNiAgykpgF1tw8/PD08++SS8vb2xbds2NDY22u2FkN5BiRvpNKvVCqPRiPnz57v8lRkSEoKIiAgcP36cDXksPT0dNpuNbe602NhYFBUVwWQygeM45ObmIjw8vFOJCMtsNiMrK8uhbdq0aVCpVMLQsVKpxKRJkzocNs7LyxO2ycvLQ0pKiii5zMnJAdoTHovFAgBYuHChkJjxFU6LxQKO42AymVBZWYn4+HhhHwCQmpoq3E9RURHKy8uFyinfnpqaipiYGOH+5XI5jEaj08qqM0ajEfn5+ZDL5Xj88cdFyQ6vqqoKhYWFbHOnrF+/vlsvau5MWVkZKisrMWPGDIwaNUoUGxYcjHHz50OVkYG5778virG8fHzwWFERXrh8GS9cvoznzeYuVdtOnz4NjUaD9evXsyGPtLa2oqmpCSNHjsSmTZuwbt06+NpVlEaOHAmVSoWrV69i9+7daGlpwb59+2CxWDBz5kz4+flh/PjxmDNnDqqrq1FcXIzi4mJUV1fjoYcewoQJE0T31xH+OP7973/j+eefB9qT5a46ceIEfvrpJ0RGRiIwMJANuzTxuedwd2wslh8+jBfq6jBn82ZAIkHNkSNoZj6DJkyYgPvuuw9nzpxxqFwS0hsocbsJWa1WqFQqhyoOf2MrX51lsVhQWVnJNjvV1cRNr9dDp9Nh7NixbKhTDAYDdDodMjIyIJfLAQBRUVHQaDTQarUOVStPJSUlgeM40Zcen1ylpqYKbfz/8zFPKBQKAIDJZBLagoKChH1JpVJotVpRRbOoqAgJCQlCIi2Xy6FSqWA0Gt0+xoKCAofK6dy5cwHm/j3V0tKCHTt2wGazYfny5bj99tvZLmhtbUVeXh6uXLnSI5cS0ul0UKvVTm8HDx5ku7v1ww8/YMiQIU6rNwOHDMGvN25E6FNPwdvuddCXNTU1wWKxYPDgwS6f+zlz5mDs2LEoKyvDoUOH8P333+O2224TngOJRIIFCxZg7Nix0Ol0wvt0wYIFkEgk7O48Vl9fDwBOXzOeaGpqwu7du+Hj44MZM2awYbdkQUGIfPddyJRKQCKB/4QJ8HIxXOvl5YUZM2agtbUVR44cYcOE9DhK3EiPk8lkCA4O9jiJs1qt0Gq1ePnllzF+/Hg23CkFBQUICAhw+OJVq9WorKwUqledYTAYUFhYiD/96U9Cm9VqRX5+PlQqlZAgwi6B8vSxo/2YYZfAAXDYr31F074iZj8k6kmymJiYiKKiIkilUmHoNzw8vMuVzsOHD2P//v2YM2cOpk6dyoaB9qrIwYMHER4eft1/357U2NiICxcuQCqVIiAggA13SktjIz5VqbDR3x+5ERH4cft2cDdgkUNTUxNaWloglUpdDmkOHz4cDz74IK5du4Z//etfMJlMeOCBB0QVx+HDh2Px4sXCvxcvXozhw4cL//bUxYsX8bvf/Q6PP/44PvnkE4SHhyM6Oprt5pGKigqcOHEC06ZNQ1BQEBv2HMfhp88/R0tjI4IefBDefn5sD9x2223w8fFBbW0tGyKkx1HiRjqNT8Q8MXHiREilUsyfPx9FRUUdDhkCQGFhISorK7vttCJVVVVQKBSiqiP75cD2cZe8pKenY/bs2YiIiGBDyMnJcahwepJARUdHC/2TkpKQnJyMsLAwtptL/Pw2hUKB4OBgWCwWaDQatpsD+/ltSUlJyMvLQ2lpqaiS2BkVFRVur6LQ0tKCzz//HN7e3oiOjnZZ9XHFvpq2d+9e2Gw2rFmzBmq1Whg2VavVQiWIvblKJnvT5dOn8dWzz+LHzz5jQ07V1tZi5cqVUKvVWLNmDWw2G/bu3Ss8D50ZNr1y5QquXr0KqVQKb29vNiyYOXMmgoODcf78eQBAZGSkqJrGcRyqqqrQ0tKClpYWnDp1qltWWfIVcnevIWc4jkNxcTHg5Fg7heNwZvt2HNJqMToyEpOee47tAbQnbn5OEjpCegMlbqTTpFIplEol8vPzXQ7DlZeXo6SkBBMnTgTaKzsqlUqUHDlLaCwWC7RarWho83oFBQUJ89vsb0ajUbgPto+r5KW0tBSHDx8WDYfa02g0DvfDcRyys7PZriL2c9xMJhOysrLcDmnbD1fzX3b8PvgKmif4RSb83DhP57G5snDhQkyaNAl79uzBt99+y4ZRWVmJY8eOYcaMGVAqlWz4pvTrjRv/b25bdTXCk5IAAFVffcV27XE//vgjGhsboVAonM495A0dOlRIrO+++26HymhFRQX27NmDgIAADB8+HEVFRTh27Jiojyf4OW6ffPIJ/vrXv2LYsGH4+uuvPfqBZ6+qqgoHDhzAvffe2+l5dgKOw9G//x17nn8eo6ZOxZxNmzBo6FC2FwDg8uXLLn/YEdLTKHEjXWK/atQZZ6tOs7OzRcmMs4rQ7t27AcDlatXOmjhxImpqahzmazlbeeoJrVaLZcuWOSSVfDLLzinj5xu6S8JYzoZX2Woln2TOnTsXJpPJYTiYn/fmjqtFJgUFBV3+UvLx8UFMTAy8vb3x0Ucf4QKz2rK1tRX+/v545JFHulQVsa+mzZw5E76+vli3bh10Oh1ycnJw5513dtscNx8fH4waNQr19fWdTiRcaWtqQuu1awCAwcOGsWGnRowYgQ0bNkCn0wmLCWbOnCk8Dy+99BK7iVMWiwV79+6FTCbrcA5YU1MTysrKIGlfaWo/rNrU1ITc3Fw0NjZCo9HgySefxLVr15Cbm4uGhgbRfjqjubm5y+fI27dvHxobG/HrX//abULqSuvVq/j2tdewNzER98bHI2r7dvgyi1Hs/fzzz7DZbBgzZgwbIqTHUeJGuiQsLAy5ubmIjo4WJSV8olJUVIStW7d6XPnh5eTkiCbZX6+oqCio1WosWbJE+PI1GAxISUnp9P1UVVWhsrLSacKJ9oUI7ErOzMxMt9s4wyddfLUS7fed1F6psVqtSEhIwOzZsxEWFgaFQoGamhpRBTMpKUk4Xlfz+PhkMysry+G5wXUsLAkJCcFDDz2ECxcuYMOGDQ6nTJg3b55o/l5fdu+996K5uRllZWXgmKHAhupqbJk8GRv9/ZEfEwMAOJWbi43+/tixYAGaGxpEfTb6++ODoCCU/c//YNCwYQhZvly0v550+vRpxMfHo7y8HBaLBYmJiaKh15MnT+Lzzz8XhmWffPJJFBcXIzQ0FJMmTRLt68CBAzhy5AgmTJiAKVOmYNq0aQgJCUF5eTm+/PJLUd+O8HPcli5ditdffx0WiwV33HGHwwped/jVrePGjcPdd9/Nhj2yb80a/JCVBXAcDr/3Hv4eGCj8zYxffCHqy3EcDh8+jMGDB2Py5MmiGCG9gRI30mVRUVHCsB4//CmTyYTKE1uV8kRkZGSH1Tb7+WDR0dGw2WwIDw8XzRErLi4WEqjs7GzRMG14eLjLEwd3JC4uzuXjksvlOHDgAIqKioRjycrKwoEDB1xuw7N/TAqFAiqVComJiUI8MjIS9fX1oueYH37lk+ikpCRhH2hPJJ1VG+1lZmYiODhYeG74U4MEBQUJiVtnz+MmsVt1eOzYMezatUtIesaOHYs5c+awm3Sr7pzjdu+992LMmDEoLi7ulqqbl68v7tZo8MT+/Qi491423GdIJBKEhobi97//PXx8fIT2S5cu4dNPPwUAPProo/Dx8YGPjw8effRRDBw4EDt37oTRaLTbk+eGDx+OhQsX4uWXX3a5cMKZ0tJS1NbWYv78+V2ed9bSifOxnTlzBvv27cOdd97pMIRMSG+gKyeQmxK/sKGjuWX9QV+/CoXNZkNzczPbfNPYt28fMjIycOeddyIxMbHLycGNdPbsWbz++utQKBTClSt4Op0Oubm5iImJgVqtFm3X19XV1SElJQVtbW34y1/+0qWVrZ3BXzmhoqICSUlJQsWNrpxAehNV3AghxI2pU6di3rx5OHHiBP7xj390esVjX+Dn54fBgwezzT1i/fr1DnML7W/dedLkH374AefOncODDz7Y40nb1atXsWnTJpw4cQKLFy92GEImpLdQ4kYIIW54eXnhqaeewrx583D33Xd3+hQmfQG/wOHNN98UVdtgN7Tc36ptaJ9C8Mknn3h8TdLr4eXlBYVCgeXLl2PJkiXClARCehsNlRJCrsvNPlRKSEdoqJT0JkrcCCHXpauncCDkZtIfK7Gkf6LEjRBCCCGkn6A5boQQQggh/QQlboQQQggh/QQlboQQQggh/QQlboQQQggh/QQlbjdYWlqacJkiiUQCpVIpurSOXq932iaRSODn5weDweDygun8dUPZ7Z3h+9ofC3uLjY11evkjvk0ikSAtLa1bjocQQgghjihxu0H4ZCc/Px8WiwUcx4HjOMTFxWHChAkwGAzsJkD7RcBjYmKQl5eHhoYGhIWFsV0EmZmZKC4uZpudkkqlKCoqEo4jLy8PQUFBMJlMQpuzy0dZrVYsW7YMKpUKHMeJrq/J6szxEEIIIcQRJW43SFJSEoKDgx2uP5mYmAi1Wo2EhASHihUApKenIyIiosMLsRsMBqSkpODeHr6QdWFhIUpKSrB69Wo2JNJbx0MIIYTczChxuwHMZjOKioqQkJDg9Gzb2dnZKCoqcojx282fP98hZs9qtSIhIQERERFuK2DdQafTISIiAiEhIWxI4Op4+KHTtLQ0UX9CCCGEOEeJmwvO5nw5m7fVFfzwo0KhYENu5eTkAAA0Gg0bEuGrYFqtFjKZjA13G4PBAJ1O5zIB5bk6Hn54tqeTS0IIIeRmQYmbC1u2bIFWqxXmd3EcB61Wiy1btrBdu2TEiBEeJ25VVVVQKBTIz8/HsWPHIJfL2S4Cs9mMVatWITk52e38t+sVHR2NWbNm4euvv0ZUVBQbFvTW8RBCCCG3Akrc3GCH/9h/X4/a2lqYTCa22Sl+kYBSqYRMJhOt6GTxc+fi4+PZULfKy8tDbm4uwsPDERsby4YFvXU8hBBCyK2AEjcXzp8/D4vFwjZ3C4VCAYlE4jJxMxgMuP/++x1OmZGZmYnIyEisWrXKIYb2ZEqn00Gr1boduuwuUVFRSE1NRU5OjtNksrePhxBCCLnZUeLmwqOPPoodO3aI2jIzMzF69GhRW1fI5XLExcVBq9U6nTOXnp4Of39/h/lpUqkUWq0WNTU1SEpKEsUqKirw29/+Fmq1uleHJOPj450mkzfqeAghhJCbGSVuLoSFhaG+vl60OAHtVabuoNFoUFlZiYULF4qSt7S0NLdVqrCwMCQnJ0On04nO9Xb27FkEBAQgNTVV1L+n2SeT/OIJ3MDjIYQQQm5mlLi5kZiYKFqc0J2rH+VyOYxGozBvjU8Os7KycObMGbdVqvj4eERERGDJkiWiKldGRobbhQs9dfoNPplMSkoSDZneqOMhhBBCblYSjuM4tpHcvAwGA0pKSvDCCy+wIUIIIYT0cVRxu8UUFBR0yzw9QgghhPQ+StxuMVarFeHh4WwzIYQQQvoBGiolhBBCCOknqOJGCCGEENJPUMWN3DKuXr3KNpF+xtvbGwMHDmSbCSHklkGJG7llNDY2oqmpiW0m/YhUKqXEjRByS6OhUkIIIYSQfoISN3Jd0tLSRFeXUCqVopMC6/V6p20SiQR+fn4wGAxIS0uDSqVyuPwXf4JedvubBcdx2LVrF3JyctDS0sKGb1kcx2HPnj3YvHkzPS+EEMKgxI10idlshlKpRH5+PiwWi3B1ibi4OEyYMEF0OS57BoMBMTExyMvLQ0NDg9srRGRmZqK4uJhtvi5NV67g1Mcf49PZs7HR3x87FixAc0MD261XfPvtt9iyZQtaW1uFttOnT0Oj0WD9+vUAgKamJrz11ltYtmwZDhw4AJ1OB7VajYMHDwLtSc7mzZuhVquh0+mE/XiqpaUFWq0WK1asQHV1NRt2xHGwVFXhuzffRE5oKDb6+6Os/Vh5LTYb9q1Zg00jR2Kjvz8+njYN5n37PI5zHIfa2lrs3r0bGzdupOSNEELsUOJGuiQpKQnBwcHYuXOn6JqqiYmJUKvVSEhIcKigAUB6ejoiIiIwe/ZsNiRiMBiQkpKCe++9lw11HcdhX1IS/rNiBS6WlbHRXvXjjz9i8+bNmDZtGp5++ml4eXmxXQAApaWlOHLkCKZPn+70/HtVVVXYv38/2+yx8+fP4+jRo3jggQcwatQoNuygoboaOxYswKF33oHNSaLX1tyMfWvW4MiGDWhrbgYA1J08ifwnn0TNDz90GAeAAQMGYPHixYiMjMTevXvx7bffiu6DEEJuZZS4kU4zm80oKipCQkKCKGnjZWdno6ioyCHGbzd//nyHmD2r1YqEhARERES4vT4sP+Tq7BYbG8t2ByQSjF+0CPesWIEFn34KLx8ftofH+MpYV6tcn332Gby8vKBWq10mbVeuXMFnn32G2267DU888YRDP47j8NVXX6G+vl7U3hn79u1Dc3MzIiMjIZFI2LADv8BABC9ciDmbNiHitdfYMH4uK8OprVsx7I47sOzQIfy2uhoP/PGPaKqvR/m//tVhnOfl5YXly5dj1KhR2LVrFxpuUFWUEEL6GkrcbkL8MCabzDibg9YVJpMJHMdBoVCwIbdycnIAABqNhg2JFBYWoqSkBFqtFjKZjA0LoqKihCFa9padnc12BwAo583DjLQ0DLntNjbUa8xmM44dO4bw8HDI5XI2LNi7dy+MRiPUarXTatj1Vtvq6upw8OBB3HnnnRg/fjwbdk4iwYx163Dn449jgLc3G8XPJSVobWrCPStWYFhwMH4+dAjG3bsBADVHj8K8b5/buP2w9fDhwzF16lT89NNPOHXqlNBOCCG3MkrcSJeMGDHC48StqqoKCoUC+fn5OHbsmNtkxWw2Y9WqVUhOTnY7/60/O3v2LK5cuYJ77rnHZZXrwoUL2LVrF+69917MmDGDDYPjOHzxxRcAgOnTp7Nhj/zwww+orq6GSqXCoEGD2HCX1J48Kfz/7qefxo5HHsGlI0cAAA3nz+PS8eNu4+x8w/vuuw8DBgzAjz/+KGonhJBbFSVupEtqa2thMpnYZqeCgoJgMpmgVCohk8mg1+vZLgJ+7lx8fDwbuuFqa2uxcuVKqNVqrFmzBjabDbm5uVCr1aIFAx0xmUzw9fXFyJEj2ZCgrq4OV65cYZsFRqMRBw4cwPTp0xEUFMSGO9TU1ISioiIolUpMmTKFDXcZP29t76uvonLnTgwNDsav//Y3+Mnl8BoyBGhfaOAqPoA5R1tgYCBkMhnOnTsnaieEkFsVJW6k0xQKBSQSicvEzWAw4P7773cYks3MzERkZCRWrVrlEAOAvLw86HQ6aLVat3PgeJ2e49aH8EO6roSGhuKhhx7C999/j4KCAjaMXbt2YcCAAXjwwQddVu3c+eGHH3DixAnMmjULQ4cOZcNdNjw0FAAwSCaDKiMDT+zfj4B770WzzQafUaMwfOJEt/HrmXdICCG3AkrcSKfJ5XLExcVBq9W6XDnq7+/vMD9NKpVCq9WipqYGSUlJolhFRQV++9vfQq1WezxE2pU5btdjxIgR2LBhA3Q6HdatWwdfX1/ExMRAp9NBp9Nh6tSp7CZOKRQKNDY2oqamhg2JzJs3D6NGjcKnn34Ko9EoijU0NHS52tbS0oLi4mIMGzbM6UrV6zHy/vsBiQQjJk/G2F//GlxbG37IzERTfT3k06djVESE27iXr69of5cuXYLNZsOYMWNE7YQQcquixI10iUajQWVlJRYuXChK3tLS0txWzcLCwpCcnAydTic619vZs2cREBCA1NRUUf/uVrZ+PTb6++NTlQotjY0w79uH90eP7tXzuY0dOxZDhw5FaWmp26rbyJEj8dhjj+HKlSvYsmWL6HJdw4cPxyOPPNKlaltnTwFir7mhATsWLMBGf38c/MtfAAAH//IX4XxuoyIiMEalQvX+/fhw4kRsVihwcssWDLvjDoQuX95hnHXq1Ck0NzfjjjvuYEOEEHJLosSNdIlcLofRaBTmrfFDlFlZWThz5ozbqll8fDwiIiKwZMkS0ZBpRkaG24ULNwu5XI5JkyahrKwMVVVVbFhk2rRpCAkJwffff4/PP/9caI+MjOzyc9XZU4B0hrefH369cSPuWLwYkgH/+/ESOH065n/8MaRjx3YYt1dXV4c9e/Zg3LhxuOuuu0QxQgi5VdFF5sktoy9dZL68vBypqakYO3YsEhMT4efnx3bpEXV1dfjLX/6CESNGYM2aNd22mrS7cRyHf/3rX/j888/x4osvYtq0aQBdZJ4QQqjiRsiNcNddd2HhwoU4ceIEPvjgg15LKHviFCDdjeM4fPbZZ9i5cycWLlzo8dxBQgi5FVDFjdwy+lLFDe0Jyo4dO9Da2orFixdjQPvQ4a2O4zjk5+fDZDLhmWeeEV0xgipuhJBbHSVu5JbR2NiI5vbzjJH+yc/PjxI3QsgtjRI3QgghhJB+gsZmCCGEEEL6Caq4kZteS0sLWltb2WbSzwwePJhtIoSQWw4lbuSm19LSgoZeOrku6RmDBw/GkCFD2GZCCLnl0FApIYQQQkg/QYkb6bTY2FiHi7rb31QqFS5cuACVSoW0tDRhO6vVCpVKJVwEXq/XQ6lUOr3gfGxsLPz8/ESXxbqZXLp0CevWrUNFRQUbuqWVlZXh//2//0cVUkIIcYESN9Jp2dnZwsXcS0tLMXbsWOG6mxzHoaioyOmVAOLj4wEAFovF7UXg9Xo9cnJy2ObrwrW2ovb4cXz98sv4QKnERn9/GL/4gu3WKxoaGvDuu++KLhxfW1uLlStXYu3atWhsbATHcdi8eTOWLl2K7du34+DBg1Cr1dDpdMI2u3btwtKlS7F+/XqhrTNOnjyJp556Ch999BEbcqrpyhWc+vhjfDp7Njb6+zu9vqt53z58PG0aNvr7Y9PIkdi3Zg1abDaP4hzHwWKxoKSkBGlpaZS8EUKIE5S4kV5hMBig0+mQkJDg9OLzPLPZjFWrVmHs2LG47bbb2HCX1Rw5gm1z5uD4P/6Bpvp6NtxrWlpakJOTg59++gkvvfQSxo8fz3YBAJw5cwZff/01QkJC8NBDD7Fh1NXV4auvvnJ7kXp3OI5DcXExvL29MWPGDDbsiOOwLykJ/1mxAhfLytgoAOBngwH5Tz6JupMnAQBtzc04smED9q9di7aWlg7jEokEv/rVr6BWq3HixAns2rWry4+PEEJuVpS4kV5RUFCAgIAAhIeHsyGRpKQkAEBmZiYbEhgMBvj5+TkM0fLDtFarld0E/nfeiQmPPYaF27fjzqVL2bDHGhsbsXbtWqEy1llnzpzBvn378NBDDyEkJIQNAwCam5uxfft2AMBTTz3ltHq5f/9+nDt3jm322IULF3Do0CFMnjwZo0ePZsOOJBKMX7QI96xYgQWffgovHx9RuK2lBT9kZaGpvh5Tk5Ox4tIlLN27F9IxY3Bm+3ZcPnXKbbz+xx/b70aCqKgoTJ48GQUFBbhw4YLofggh5FZHidtNyGw2Q6lUOiQ1EonE5ZyynmQ2m5GVlYW4uDjI5XI2LOCrchkZGVAoFGxYEBYWhoaGBmFo1v5WVFTktKLn7ecHVUYGxsyeDckNPPP+119/DW9vb/zqV7+CRCJhwwCAo0ePoqyszGVyd73VNgAoLS1FfX09IiMjRZeUckc5bx5mpKVhiJNK6NXaWvxsMGD4XXch5Kmn0Gyz4dTHH8N24QKu1dWh5sgRt/ErlZXCvgYNGgSVSoXa2lqUuajuEULIrYoSN9KjkpKSoFAokJGRgcTERDYssFqtSEhIgFqtRlRUFBu+KTQ2NsJoNEKhUOD2229nwwAAm80GnU6HwMBALFiwwGlyt2/fPlRXV+PXv/41G/JIQ0MD9u7di3HjxuHuu+9mw13S+PPPaKypweARI/DT559jy8SJOPzee2hrv8TYpSNH3Mb5ihsvJCQE/v7+KC8vF7UTQsitjhI30qNSU1NRWlqKmJgYl8OYaB8araysRGpqKhvqE9avXw+1Wo2nn34aJ0+exMmTJ/H0009DrVZ7vDigsbERtbW1GDlyJHyYoUaexWLB5cuX2WYBX22bPHkyJk+ezIY9cuLECRiNRsybN8/pMGxXtLW0gGttRfWBA/j65ZfRZLFg8u9+hykvvwwAGDBokNu4l6+vaH/Dhg3D7bffjpqami4NSRNCyM2KEjfS48LCwpCbm4vi4mKnc9dKS0uRkpKCjIwMt0OpvK7McetL2traXA5zjho1Co899hjOnTuHTz/91KHf3r178fPPP2P+/PldupJAU1MTPv/8c9x+++24//772XCX+QYGCkOoyvnzEVNSgplpaWhu/1sMDw11G5eOGWO3N0IIIa5Q4kZ6RVRUFDQaDVJSUkTnZqupqUF8fDwiIiIwe/Zs0TaudGWO2/V66aWXoNPp8OGHHyI0NBShoaH48MMPodPp8NJLL7HdnfLx8cGIESNw6dIlXL16lQ0Lpk+fjpCQEOzZs8dhjldDQ8N1VdsqKipw+vRpTJ06FcOHD2fDXTbY3x+3TZwIyYABCH7kEQwNDkb1wYM49e9/w08ux+333+82Pvyuu0T7s9lsqKmpQUBAgMvqJCGE3IoocSO9JjU1FQEBAUhPTxfabDYbLl26BK1W2yMJF6+huhpbJk/GRn9/nMrNBQDkx8T06vncfHx8oFQqcfbsWbcrQn18fBATE4OBAwfiww8/RF1dnRAbMmQIFi1ahEGDBom28USnTwHCKFu/Hhv9/fGpSoWWxkaY9+3D+6NHY8eCBeBaWzHx2WcBAEW//z02BQTgs4cfRlN9Pe554QX433mn27gsKEh0X5WVlaivr3e6OIMQQm5llLiRXiOXy5GRkYGcnBzRFRWSk5MRFhYm6nuzmjVrFtra2vCf//zHYRjUXmhoKKZOnYqzZ88iNzcXra2tAIB7770XoaGhbHePdPoUIJ2kfPhhzNm8Gb6BgQCAQcOGYfqbb+LeuDhAIukwzmtqasLu3bsxbNgwTJkyRWgnhBBCF5knt4C+dJH5lpYWbNy4Efv27cOqVau6VPnqqp07d2LLli344x//2OH59G6kwsJCbNy4ETExMVi8eDFAF5knhBABVdwI6UVeXl54/PHHERAQgM2bN+PEiRNslx7RE6cA6QnffvstNm/ejOnTp2PBggVsmBBCbnlUcSM3vb5UceP9/PPP+OCDD6DRaNyebPhW891336G4uBhxcXGiU5VQxY0QQv4XJW7kptcXEzfSOZS4EULI/6LEjdz02tra2CbSDw0YQDM7CCGEEjdCCCGEkH6CEjfSa9ra2qj6dQvw9KL1hBBCOo8SN9Jr2traYLFY2GZyE/Hy8uq2658SQghxRJNGCCGEEEL6CUrcCCGEEEL6CUrcboDY2FioVCpYrVY2BLPZDKVSibS0NKSlpTn0S0tLg0QigVKphNlsFvpLJBKHm/1lpdzh96HX69kQ9Hp9p/bVWRUVFVi3bh0uXbrEhm5aHMdhz5492Lx5M1paWtgwIYQQ4hIlbjfA6tWrUVJSgsLCQjaEnJwcBAcHIz4+ng1Br9cjJSUFpaWlMBqNkMvlQiwvLw8cx4HjOFgsFkRGRoq27Qqz2YxVq1axzd3m559/xv/8z/+ILqIOAI2NjVi7di3UarXoptPpUFtbi5UrVwptS5cuxerVq3Ho0CEAEOJr165FY2MjOI7D5s2bsXTpUmzfvl10Px05duwYnnrqKZSWlrIht4xffIGN/v6i22a5HBe//x5oT9xqa2uxe/dubNy48bqTt+rqaqxYsQJardajfbVcvYqfdu3C50uW4G8jRmDL5MloqK4W9bFduICvnn0WfxsxAhv9/fHZ/Pm4fOaMx3FCCCE9gxK3GyAsLAzJycnQarWiaprZbEZWVhYSEhIglUpF21itVmi1WqjV6l67IHtSUhJqamowduxYNnTdGhsbkZWVhba2NiQkJOC2225ju3iE4ziYTCZs2LABZ8+eZcM4c+YMvv76a4SEhOChhx5iw04dO3YM69evx5UrVyCVStHc3AytVouDBw+yXbtkwIABWLx4MSIjI7F37158++23bJdOKS0tRX19PSIjIz1a0Xlk40Z88eSTOPuf/4Bzssq36coV7Pnd7/Dj9u1CvHr/fux+8kk0mExu49bz55m9EUII6U6UuN0gGo0GlZWVoqobX22bPXu2qC8AlJeXo6SkBGq1mg31CL1ej5ycHPz973/H+PHj2TDQnkyqVCqHIVqJRAI/Pz8YDAZ2E8F3332HEydOQK1WY9SoUWwYADBmzBi8//77eOWVV9gQQkND8eGHH2LLli2YMmUKrl27hqtXr4r6NDc3C1W2p556yuPVjkOHDgUApKen49KlS8jIyMDAgQM7fWmq+bm5eOHyZbxw+TKeN5sx8v77hZiXlxeWL1+OUaNGYdeuXV2+skNXrkE69te/RsiTT+LR3bshHTOGDaPqq69wvrgYil/9Cs9WVuK5s2dxx6OPou7UKRh373Yb/+mLL9jdEUII6UaUuLngLClh55tdD7lcjri4OKHqZrVakZ+f77TahvYkIiIiwmlS19346p5Go0F0dDQbFkilUhQVFQlDtPa3hoYGl5XBpqYmfP311wgMDMT9dsmMfdxqtUIqlWLQoEFsWKS5uRk2mw0+Pj6QyWSi2NGjR1FWVoaHHnoIISEholhfMHz4cEydOhU//fQTTp06xYY9cuLECfz000+YOXOmx4lpwL33YnZWFmRKJRsCAJwrKgIkEtz/4osYNHQozhYU4EL7cHH1wYMdxgkhhPQcStxc2LJlC7RarSgZ0Wq12LJlC9u1y/h5bJmZmULljU3MiouLhYSkqKjIaVLX3TIzM1FZWYnU1FQ21C0sFgvOnTsHpVIJf39/NozW1lZcu3aNbRY5efIknn76aTz77LOoqKiARqNBYGCgELfZbNDpdAgMDMSCBQsgkUhE27tz5coVoH0u4m233YZVq1ahtbUVJpOJ7epWfkwMNvr7Y8s99+C0TgeutZXtgvvuuw8DBgzAjz/+yIY61NLSguLiYgwbNgzh4eFsuEtabDZYqqrgNWQIrl68iO0PPoivnn0W1nPnAADWc+dwpbLSddxkQnMXq4eEEEI6RombG2yVhv339ZJKpUhISEBKSgri4+Mxf/58h8QsMjISJpMJRqOxw+HH7mAwGJCSkoKMjAzR4ofuVFtbi8bGRgQFBTlNqC5fvgybzYaAgAD4+PiwYQfNzc344IMPUFFRIbRZLBZcvnxZ1M9TkyZNwksvvYShQ4fCarXC29sbCQkJmDp1KtvVI9azZ7Hn+efx42efsSEEBgZCJpPhXHvi0xnnz5/H0aNH8atf/crlcHNncRyHtpYWtDQ24j8rV+LnQ4dw+wMP4NcbNsDLxwcDBw9GW2ury7jX4MGQDBzI7pYQQkg3ocTNhfPnz/fKWf5nz56NiIgISCQSaDQaNgwAkMlk2Lp1KwICApCQkNBtw7Usi8WChIQEqNVqREVFsWEHzoaTPZ3jBjcXf6+trYXNZnM7p4yf45abm4unnnoK9fX1KCgoEOKjRo3CY489hnPnzuHTTz9FVy4QMmnSJGzZsqXT1Szlww8Lc9t+d/EiZrRXLs8VFbFdu4zjOHzRPp/sV7/6ldMEuCu8/fwga1+MMjQ4GA9/9BEWf/UVhowciZarV+GnUGBo+xCrs7hvYCC8hgxh9koIIaS7UOLmwqOPPoodO3aI2jIzMzF69GhRW3eJi4tzW+GSy+XIyMhAcXExMjMzRbHhw4e7TXI8lZaWhpKSEqxevZoNOdXVOW4jRoyAj48Pzp0755BQNTU1Yd++fQDgclEEi12UwJs+fTpCQkKwZ88elJWVseFe0dbcjKvt56jzvf12NoxLly7BZrNhjJNFAu5cuHABhw4dwuTJk7v9NRnYXlkcFR4Oxa9+hau1tfj+3XcBjsMYlcptfGwvzMEkhJBbGSVuLoSFhaG+vl5URQLgUSWqMwoLC1FZWemy2mYvKioKGo0GWVlZOHPmDIqKioR5V92RuP3www9ITk52mXB1F5lMhjFjxuD06dOora0V2q1WK9auXYtvvvkGCoUCd9xxh2g7e/wct5iYGOh0Onh7eztUxnx8fBATE4OBAwfiww8/dDhfXE8pW7/+/87fplDA8PbbGDRsGMYvWsR2xalTp9Dc3Oz2sTrT2VOA2OPPM/dhaCis587Beu4cPgwNFc7nppw3D8PvugunP/kEH4wdi+w774Tpm28wOjISQQ8+6Dau9PCUK4QQQrqGEjc3EhMTRVWkxMREtkuX8VdAiImJwbZt29xW2+zxCwaef/55/P3vf0d4eDiWLVvm8fbuREZGOj3xb3cbNGgQZs2ahZqaGuzfv19ob2pqgsVigVQqxdNPP43hw4eLtnNmwIABUCqVSEpKwpQpU9gwQkNDMXXqVJw9exa5ubkenaC2Ow3w9sbdGg2e2L8fAffeK4rV1dVhz549GDduHO666y5RzJ2unAKkM/wUCsz76CMETp8OAJAMGIA7Fi/GnE2bMGjo0A7jhBBCeo6EY8eqCOkhbW1twrzBhoYGpKWl4ezZs0hKSur2hR99Hcdx+Ne//oXPP/8cL774IqZNm8Z2cam0tBTvvPMOnnrqKSxcuJAN31BeXl4en5aEEEJI51HFjdwQfn5+WL58OQAgIyOj06fa6M84jsNnn32GnTt3YuHChZ1ardoTpwAhhBDSf1DF7SYXGxuLnJwctlkQFBSEAwcOdMtQa0fsK26806dPY8eOHVixYoXDCXRvVhzHIT8/HyaTCc8880yn56j1ZVRxI4SQnkWJG+k1bW1taHVyElpyc/H29mabCCGEdBNK3AghhBBC+gma40YIIYQQ0k9Q4kYIIYQQ0k9Q4kYIIYQQ0k9Q4kYIIYQQ0k/0+8TNbDZDqVSKLk2VlpbGdutTnB1zfzhuQgghhNxY/TpxS0tLg0KhQEZGhnBZKpPJhKysLKhUKlitVnaTG85gMGD+/Pk4cOCAw4XZu/OSWoQQQgi5+fTbxM1gMCAlJQV5eXmiC7/L5XJs27YNJSUlyMzMFG3TF6Snp+ONN97olRPeEkIIIeTm0m8Tt/T0dERERGD27NlsCCEhIfj888+FCpZer3cYlpRIJFAqlTCbzcJ2BoMBfn5+QtxZ1Y6/OLyr4U13+7Baraivr4dMJoNKpXJ5HGlpaQ73rdfr4efnB4PBILS5uy+es+O1Wq2i+2dver0eer3e6XHxcbTff1BQkOiYCCGEENJzejRxYxMENsnpKqvVCqPRiPnz50MqlbJhSKVSqFQqUVtQUBBMJpMwLJmXlyeK6/V6hIeHIzk5GRzHCZdmWrhwoZAMxcbGIisrS9gPPyzLP66O9mGxWFBWVobZs2dj/vz5wrHExcVh2rRpoiSpIx3dF9wcb2ZmJoqKioS2oKAgpKamCsdjX8Hkmc1mZGVlidrCwsJQVVWFsLAwUTshhBBCekaPJW5msxmTJk1CcXGx0JaUlITY2FhRv66wWCyorKxkm7vMarVCq9VCo9EIVTqpVAqtVouSkhIUFhbCbDajqKgIGRkZwjCnXC6H0WhEYmKiR/vgRUZGIj4+Xvh3fHw8goODkZSUJLS548l9dXS8nZWUlASO4+Dr68uGCCGEENJLeixxy8nJQVVVFdsMnU7X54bW+ERw4sSJovaQkBBERERAp9OhtLQUNTU1UCgUoj48T/bBYyuFUqkUSqUSRqPRYajTGU/uq6Pj7QyDwYDCwkL86U9/YkOEEEII6UU9lrgdP36cbQIA2Gw2mEwmtrlTZDIZgoOD2ebrxiZCrICAgA4ToY72ARd92Lbi4mLIZDJhmDk6OloUh5NtWJ4cryfS09Mxe/ZsREREsCFCCCGE9KIeS9xcJRW+vr7XnUzwFar8/HyXFarY2Fink/XdcZVs8o+lpqamw6TT3T74hNNZH7YtMjISFovF5Zw8ONmG15nj7UhpaSkOHz6M1NRUNkQIIYSQXtZjiZtGo0FQUBDbDLVa3S2T2VevXu0wd4xnMBig0+kchiRdcZVQlZeXo6SkBBMnThSSTVeJkCf74BNOtg8/H603j9dTWq0Wy5Yto9OXEEIIIX1AjyVucrkcx44dQ2RkpNCWmpqK7OxsUb+uCgsLQ3JyMqKjo4XTU6A9CVqyZAkiIiJECwDckUqlSEhIQE5OjrBC1Gq1IiEhQTjlSFhYGNRqNVatWiWs/uRXzcbGxnq0D7Q/B0VFRaIVtvyiBI1GI7S548l9dXS8nqiqqkJlZaXHx0UIIYSQntVjiRvaEwz+tBNcD1wZIDExEaWlpYiJiRHmgikUCsTFxaGoqMij6hUvKioKpaWlSElJgUQigUwmg1KpFO0nOzsbcXFxUCgUoj58MurJPuRyOQ4cOICsrCzhmIuKinDgwIFOVbU8ua+OjtcTcXFxLo+LzuNGCCGE9C4Jx3Ec20gIIYQQQvqeHq24EUIIIYSQ7kOJGyGEEEJIP0GJGyGEEEJIP0GJGyGEEEJIP0GJGyGEEEJIP0GrSkmXNTU14erVq2wzIYT0KQMHDoSfnx/bTEi/RIkb6bKmpiY0NjayzYQQ0qd4eXlR4kZuGjRUSgghxCWdTge1Wo2DBw+yIcH69euh0Whw+vRpNkQI6WaUuN0AsbGxUKlUsFqtbAgAkJaWBqVSCbPZDL1eL1xhgb3Z76Ojy1np9Xr4+fn1+FUOGhoasH79enz77bdsiJA+yWQy4a9//et1X9eX9F9paWmiyxDq9XqXn6WE3GiUuN0Aq1evRklJCQoLC9kQzGYzsrKyRJea8vX1RWlpqXDpMI7jYLFYAAALFy50mQD2tpaWFvzjH//At99+iwsXLoBG4Ul/8NNPP+HYsWNYt24dfv75ZzZMbnJWqxX79+/H3LlzhTa+ykhIX0SJ2w0QFhaG5ORkaLVah6SrtLQU8OCC81KpFFqtFhUVFSgvL2fDN4Rer8c333yDJ554Ao8++igkEgmuXLmCV199FUuXLhUlqtXV1VixYgVWrFiB6upqrF+/Hmq1WrgtX74cGRkZqKmpAQAcPHgQarUaa9euFebVNTY2Yu3atZ0aouE/kNnbypUrUVtby3bvcS02Gw7+5S/4QKnERn9/5ISG4kR2NrjWVrarSw3V1dgyeTI2+vuLbjsWLEBzQwPbvUMHDx7E0qVLhddiZ50+fRoajcbhOdbpdB69Hk6dOoWXX34Zy5Ytw6FDhwAAHMfhb3/7G9RqNTZv3uzRjwL+b71+/XqhjT82+7/3L3/5S8TFxaGmpgZ///vf0dTUZLeXzqmtrcXKlSvx3nvvsSGPcByHo0ePYs2aNXj88cexdOlSrFmzBufOnQPsHpNOpwPafyz993//N9RqNT755BNcunQJK1euFL0nWlpa8N5774m26yv454t9rfA3/m/Hfz7ww7X86ygmJgZff/2108+HixcvYtWqVdBoNDh16pTofu1ZLBZcvnwZCoUCaE/k6uvrhX8T0tdQ4naDaDQaVFZWir68rFYrtFqt2wu7sy5dutQnhnhMJhN27dqFO++8Ew8//DAkEgkAYOjQoXj00UcxcOBA5Ofn48qVK0B7gnrp0iVERkYiMDCQ2Rtw7do1FBUV4Y033sClS5fY8E2h9epVfPXccyhbvx5N9fUAAFt1NYpffBE/bNjAdu9xX3zxBT7++GMMGTIE/v7+8PX1RU5ODvbv38927TJPXg933XUXnnjiCQDAtm3b0NjYiDNnzmDfvn0IDAzEokWLhNdXZ7S0tGD79u2w2WxsCFOnTsX06dNx5MiRLiWsRqNR+CEmk8kQGBiI7777Dh988AFaWlrY7i59++23eOutt3D69Gm0tbWB4zicPn3aZcL13Xff4dChQ5g4cSIeeeQRp8/LyZMn3c5P64++/PJLVFRUYObMmfjlL3/JhsFxHHbv3o3q6mo25KC0tBRKpVL4zOV/CIeEhAhTUNhpKhKJRDS0ivYpMPZxvV4vipvNZiiVSiHOT4eB3VQX9j4kzJQYtA/rursfg8EAPz8/h/3w/fjjsN+OnWrjrA+/X/shZPYxscfqCvtcsds6i9s/X3DxONnn4mZFiZsb7JuJfaNeD7lcjri4OKxatUp4MRYWFqKysrLDahuPT9i645ehu7l0nrwhioqKcPnyZTz44IMOq7emTJmCCRMmoLKyEmVlZWhoaMDevXshk8kwY8YMUd9XXnkFOp0O7777LoKCgnD+/HkcOXJE1Kc7xMTEQKfTCbcNGzZgxIgRbLcO8RUc+6qOp87v3Qvj7t0YOm4cHt+3DysuXcKczZshGTAAJ3NyYOvksJ18xgz85vx5vHD5Ml64fBmLPv8c3h6upGtqasL58+fx6aef4t1334XNZsM777yDnTt34scff0RbWxu7iUtNTU1oaWnBzJkzodPpEBMTI4p78noIDw/HlClTcObMGZSUlOCLL75AY2MjHnvsMYwcOVK0P0/98MMPKCsrY5uB9lWHDz30ELy8vLBnz55OV91MJhOOHDmC1157DdXV1di9ezfeeecdVFRUCNMaOlJdXY2cnBy0tLRgzpw5+OCDD/Dvf/8bb7zxBoKCgtjuqKurwyeffAIfHx8sX77c4X2H9r/Fjh07+uxpe0aMGIENGzZAp9Nh3bp18PX1RWhoKD788EPodDq89NJL7CYwGo3Iz8+HXC7H448/Di8vL7YLqqqqnE5FcYYdFi0oKMD06dMhlUqFttTUVNE0lcjISCHGf08UFRXBZDKB4zjk5eUhOjpa+Nw0GAyYMGEC4uLihP3ExcVh2rRpomREo9GIpsSw3wVpaWlISUkRps6UlpYiJibG4bvpzjvvFI6ltLQUvr6+onhXpKeni370mM1mTJs2DSqVSjhepVKJSZMmiR6TK/bPKfs4ASAyMhIWi0V4zoODg5GUlAS0P5+zZs1Cbm6usI/U1FTExMT0+DzuvoASNxfMZjNmzpwJrVYrvDDQ/kugu/Av1pycHKHaplKpPKq2mc1mrFq1ChEREQgJCRHac3JyHJIuiUSC6Oho0fasqKgo0QcGe4uKimI3EVy7dg0nT57EiBEjMHnyZDYMHx8fLFmyBF5eXsjPz8exY8dQVVWFyZMnY/To0Wx3AMDo0aMxbdo0ABCGS7tTbm4u1Go1Hn/8caxduxZVVVVslx539quvAI7DvXFxGDFpEuorKnDm00/BtbWhvqICVyoq2E16zKBBg/Cb3/wGb7zxBgYOHIhr165hyJAh+Otf/4qnnnoKAwZ4/lFhtVrR1NTk8svCk9eDl5cXnnjiCfj5+SErKwvffPMN7r//fodE31ONjY3Ytm0b2traIHFSlQIApVKJcePGoaqqqtPD5tOnT0dGRgbuuusu2Gw22Gw2xMbGIiUlBcOHD2e7O1VRUYFLly4hKCgIy5cvx9ChQzFgwADcfffdWLJkiagvx3EoKCjAuXPnEB0dLfoMsFdaWoojR444TW76o5aWFuzYsQM2mw3Lly/H7bffznZBa2sr8vLycOXKFQwcOJANizgbFj1+/DgmTpwo6udOYWEhSkpKsG3bNuGzOyoqChqNRqjCFhQUICIiAvHx8cJ2iYmJMBqNHn3ew27+c3JyMsLCwgC7aTdZWVkeJUtdpdfrodPpMHbsWKEtJycHaE/AePz/87HuIpVKoVQqYTQaRc/n7NmzhT78HMW+MALV0zz/NL7F7NixA++//77wBkH7G2369OndltHzVbesrCxs2bIFJSUlWL16NdsNNpsN4eHhokRMoVAIv/Lsfxmyv9j4W15enmif3amhoQEXL17EyJEjXX5ZT548GZMnT8ZPP/2ErVu3oq2tDZGRkS6/UM6ePYtvvvkGXl5euOOOO4T2kydP4umnn4ZarcbTTz+NkydPirbrrLa2Npw8eRL/9V//BaPRyIZ71LX24VEAKIyLQ25EBIz5+QCAtpYWXLt82a53x8z79uH90aPxtxEjkP/446jtxHPT1NSE999/H3/+85/R2tqKwYMH4+rVq/jTn/6ELVu2dKrixs8xclfB9OT1EBQUhIcffhgtLS0YMmQIHnvsMQwaNEi0H08dOHAA5eXlmDNnDgICAtgw0J5QBgQE4Nq1ax5XyXj79+/HqlWrcOrUKfj6+sLX1xfZ2dlITk5GXV0d290p/gtn7NixGDp0KBsWqaqqwhdffIH7778fCxYsYMNA+9ytzz77DAEBAZg1axYb7pcOHz6M/fv3Y86cOZg6dSobBgCcOHECBw8eRHh4OMaPH8+GReyHRdGeHBmNRoSHhzM9XTt+/DgCAgIcRj7UajVKSkpQVlaG/Px8KJVK0Wd1Z5WWlqKmpka0iALtCQvHccLrx2Qywd/fHzKZTNSvq/iiwssvvyw8n1arFfn5+Q6FBrlcDpVKhePHj9vtQcxqtcJoNHYqOTabzSgqKhKew8TEROG7jx86Dg8PdzoN4mZEiZsL58+fd3gjor0S1J0ZPV914yfo2ieKPGerSjmOQ3Z2Ntu1zxo0aBAWLVoELy8vnD17FuPGjcPdd9/NdsPbb78NtVqNl19+GWazGaGhoQgNDWW7XTd+qPSDDz7AL37xC9TX16OkpITt5pT9hOo1a9bAZrNh7969DhOqPbX31VdR/tFHGCSTQZWRgfEdVEc7wrW1wfjll/h88WJYPExGBw0ahNGjR+Oxxx7Diy++CF9fX/zxj3/EwoULcccdd3Sq4savzHSVIMHD10NraysqKyuB9mSwoosVyPr6euTn50OhUDh86bHGjBnDNnlEoVDgnnvuwVtvvYXAwEDMmzcPf/zjHzF+/Phu+wK1d+7cuQ6/pL777jtUVlbi4YcfdlqZ6o8qKirczhlsaWnB559/Dm9vb0RHR3dYcWOHRdn5bp4KDg7u8O/cmUTFFWc/4sPDw0XzgI8fP+5RkhgdHS3sQyaTobi4mO0C2E3hcTba5GyEp6NqG7sYxJXi4mLIZDKhUAG7ip79/LakpCTk5eV125Bwf+D5p/EtxlWC5iqh6yq5XI6MjAz4+vo6rbb1luud4+aJ0NBQREREQCKRYNasWU7n5PBkMhkWLlyIV199FT4+PkK7/fyXDz/88LqTuqFDh2LmzJlA+5dhbxrg7S38d+rrr0NTXo7ghQthOXsWA4cMgY+HX7Z+gYF46uhRYW6b5uRJBE6bhgazGbUnTrDdXXr44YfxxBNP4OrVq7h8+TJsNhs0Gg2mT5/OdnWpqakJ5eXlGDRoUIdz0Tp6PZSWlqKsrAxyuRxSqRTbt293+p7syPHjx2E0GjFv3jz4+/uzYZGuDjcplUokJCRAKpXCYrGguroav/jFL/Dcc8+5rCqz+MdvMpk6nOA9bdo0zJo1C99//z30ej04ZpVtY2MjCgsLMWbMmC4PL/dFCxcuxKRJk7Bnzx6n54qsrKzEsWPHMGPGDCiVSjbsgB0WZf/tqcrKSqdV2oCAACEJdFeF8pSrH/ENDQ3Cj35PH0NeXp6wPTtvj2exWKDVapGRkeE0mXU1wuOuqODp3Gz7OW4cMycwPT0dERERQtzdVJ6bESVuLixatAjp6emiD1CDwYBjx445rYpdj+PHj7ustvWW65nj5ufnh5EjR+LChQuotxv+Y/388884c+YMFAqFy2SAX5zwj3/8A88880yP/4Kqq6tDfvvw5Lhx49iwU84mVPMT8V1NqHZmjEoFABgeEoLx0dEY4O2NY++/j4tlZRh2xx0Yanc8F8vK8M877sDH06bBevas3V4YHIdmmw1cSwsgkWDgkCFsjw5NnToVn3zySaeGi3hnzpzB6dOncdddd3U4TOXu9VBXV4ePP/4Y3t7eWL16NebMmYO6ujrodDq3FRdnWltboVQqhQTdlcbGRly4cAF+fn5uh3nd4V8bv//979lQhyZOnAiZTIbKykrk5uaioaEBbW1tOHToED766CNR34EDB2LJkiW4/fbbsWPHDodTAnEch7a2NkRHR3s8x64/8PHxQUxMDLy9vfHRRx/hwoULonhrayv8/f1drrC1xw6LWp2cz80TEydORE1NjcOPCp1Oh+DgYAQGBormZ3UVn+iw96PX64UVl/yQoieJmyd2794NAKK5ZHAy54zHL9RgF0vYKygo6NJQLj8kfObMGRiNRsyfP19UVSwoKOiwCn2zoMTNBblcjtWrV2PUqFFC1SkhIQHr1q1ju14Xg8GAzMzMG1ptu16DBw9GaGgoLl++jBNOKjz8OZZWr16N6upqqFSqG/5lwi9O+O1vf4sTJ05g2LBhmDJlCtutRwU9+CBGR0bi0tGj2BoWhk0jR+K7N96AZMAAhCcmYohd8nAiJwdXL11C3cmTqNy1S7Qf4xdf/N/524YPx9YHHsCF0lKMUakwKiJC1Lcn6XQ6JCcnw2az4ejRo8JcxNzcXKD9F/7p06c7fD1w7RPvz549i4iICAQHB2PevHkIDAzE/v37O326Di8vLzz66KMdzhv7+eefcf78eUyYMAHDhg1jwz0uKCgIv/rVr4D2U7PExsbi8ccfx1//+lenJwYeNWoU1Go1GhsbsWHDBofT5oSEhAgLfG4mISEheOihh3DhwgVs2LDB4XrJ8+bN67CaAyfDoux8N0/Nnj0bERERWLJkiVCx1ev1yMnJEaqw/EnXMzMzhe30nbyaDb8QwX7lJL9IjT+FFP/e6MqPLmfsHwMrNTUVlZWVogUXmZmZbs+MwM+NY5MuTxQUFEAikWDChAlQKpWiBRkGgwEpKSlAN1U2+zpK3NwICwtDQ0ODUHViFwJcD/sJlfHx8Te02tYdZsyYgaFDh4rOzcXy9vbGwoUL3Vbvepu3tzfuu+8+/Nd//ZdHQyvdadDQoZizaRPuWLwYkvY5ZP533on5H3+M8cxzdLdGgyG33YbhoaEIfuQRUYwlHTsWM9LSMH/rVo9PB3IjuHo9VFRUYNeuXZDJZIiOjoaXlxdGjhyJhx9+GM3Nzfj44489nvAPAPfcc0+HX2QtLS3Iy8tDY2OjwyKJ3iKRSPDMM89g9erVUCgUkEgk8Pb2xtSpU/HUU0+x3YH2993999+P8+fPY+vWrUI10tvbG0uWLBFNM7hZSCQSLFiwAGPHjsWxY8ewa9cucO1DxWPHjsWcOXPYTZxihxRNJhOGDRvW6c94qVSKoqIiqFQq4e8WExOD0tJS4bUdFhaGM2fOICsrSygE8CcPNplMkMlkLhen2UtMTERycrIwz02hUCAuLg6JiYlIS0tDdHQ0qqqqhOPgv2NsNpvo9CSeioyMdKi28eRyOQ4cOICioiLhvrKysnDgwAGnw6pmsxmTJk1CcXExkpKShG0k7fPiiouLRVcCsp/jJpFIkJKSIqzczczMRHBwsPA4+VODBAUF3RKJm4TjX/GEdFJTU5Pwa5fjOGzbtg25ubmIjIzECy+8cEO+/MiNk5+fj/fffx8xMTGi82I1NjbirbfeQlVVFf785z/jzjvvFG3XF+zbtw8ZGRmYMmUK/vCHP9Br145Op0Nubi5eeeUVlys5169fj0OHDvXZv6+Xl5fDHMqbTVpaGvLz87Fz506H5NPcfs61jIwMhx9KvaWjY3B3/ESMKm6kW0gkEjzyyCOIiIhAcXExduzYIfwK7g2uLrNkf+vsak/SOV2dF9ZZHV0mSc1c+qgjZWVl2Lx5MwICAvDMM89Q0kYI6dMocSPdxsfHB/Hx8Zg+fTrGjx8PSQeTg8nNZerUqQ5noUf76+LNN99ETk5On6zGBAQE4K677sKf//znm+a0GeTWY39uM5ZcLofRaHRa6eotHR2Du+MnYjRUSrrMfqiUEEL6qlthqJTcOihxI13W2trKNhFCSJ/U0cl4CekvKHEjhBBCCOknaI4bIYQQQkg/QYkbIYQQQkg/QYkbIYQQQkg/QYkbIYQQQkg/QYkbIYT0ILPZDKVSKbrEj0QicXsh7v4mNjb2pno8xL20tDTExsayzaSXUOJGCCE9xGAwYP78+Thw4IBwzWP+lpiYyHbvl/R6PYxGo+hi48QzVqsVKpUKsbGxQoLfHxLg+Ph4GI3GTl/7lHQPOh0IIYT0kNjYWKjVapdni+/vOrr+JLl56fV6aLVaurboDUAVtxuA/5XFDp2wwyfO+tmXp9PS0qBSqbB27VohrlQqYTabhT5o/9Xv5+cn2o/9L6W0tDSH+4bd/fv5+cFgMAjt7P74Y3I1JCSRSODn54fdu3dDqVRi48aNon7s/aL9C89+e5VKBavVynYTsM8V25+N2x837J4D9pj5x81vb3+s/ONl74vdl/02er3e4X74Ph09f/Z/A3vsdvxrwNljtr+xv5bZ/bD3/80333T4HLi7T347fhv2/nkGgwFBQUEuHy+cHKv9697Vc8y+N9jXMft39KSPu7jVakV9fT1kMpnoOWGPQ6/XO7Tx+7V/jtzdV0d92Nek/S02NtbpMfDbuPo7AUBpaSkAIDw8XNTu6jjg5L0tcfKcsH9ffnu23f7Gv0dcPVb2PcS+TjqK8zdnn1fOeHKscPJ5Yf988/tgnx/YHR/7+Wu/Pf9+tP+sc/Ye7SgucfI3Cg8PR2VlJQoLC4U20jsocbuBUlNThWETi8WCyMhIIWa1WrFw4UIolUqhT2lpKXQ6neiDo7i4GHv37oXFYgHHcVCpVJg2bZrwBjMYDJg1axZyc3OF/aSmpiImJkb0ITV27Fjs379f9EVQXl6OkpIS4d+w219ycrJw3EajESqVCjKZDEajUThWX19f5OXlgeM4NDQ04N577wUArFy5EhkZGUK/lJQU0WOKjY2F0WgUHpPJZEJlZaXLoRj2ubJYLEB7Od9Z3NVzGRQUBJPJJPRRq9VISEhw+HLk5eTkoKqqStQWGxuLrKwsYT8mkwlZWVlCYrZq1SqXf3f+Wn6unr+wsDDRfaH97zFhwgSoVCphn/xrwGKxoKioSDiOoKAg0X2zFZKO7n/KlCmi/nDxHKCD1/b14h9zXFyccB9xcXGi1z37t8zLyxPtQ6/XIzw8XPQ6BoCFCxcKf2++j/17R6lUCn062ofFYkFZWRlmz56N+fPnuzxWT3R0X/Z9nB1vfHy80KbRaBAZGSm8v7Kzs5l7+98kICsri212oNPpoFKpIJfLhTZ3x8Efq/39WywWBAcHIykpCbCr4tm/ppVKJSZNmgQAbl+j/HvEk79/TEwMSktLhT5qtRpLliyB2Wzu8L3qiY7eT2FhYUhLS0NKSopwHKWlpYiJiXFIDv39/YUkmafT6UT/9oQnn4WZmZmorKx0+/yh/fGpVKouHQe5PpS49VHl5eWoqKjA6tWrhbaQkBBERETg+PHjQpuvry+0Wq1Qqk5NTQXav1ABoKCgABEREZg9e7awzdy5cwEAJpNJaBs/fjyGDRuG8vJyoa2goAAPPvggbrvtNqEtPT0dERERQlIklUqh1WpRUlLi8S8vjUYjJA1hYWFITk5GVlaW8IFZVFSEhIQE4THxHxBGo9FpEiWVSlFUVCR8AUmlUiiVSqG/p88la+LEiaisrBS+JO0ZDAZkZmZi7NixQht/7BkZGcIXGf/hnZiYCJPJhJqaGkycONFuT9eH/3tkZmYKbexroKc4ew56A/+atk/kExMTYTQaRQmEK1arFVqtFhqNRphn5ux1rNPpRK9VAMjOzkZRUREAeLQPtCcp9scaHx8vSlQ60h3H29mhrKSkJHAcB19fXzYk4F/v7Ou5s8fBvl/51y3/Orb//+56Tet0OqjVatGPIbVajZqaGphMph55r7L45Dg5OVk4DvbzkBcVFYUvv/xStK3RaOxUIgkPv1eOHz+O4OBgyGQyuy2dmzhxosvPZdJzKHHro8LCwlBVVYWwsDBh2EEmk6G4uFjULyIiAiEhIcK/+SSHfxMmJiYKH5h8ST48PBw2m81uL/9r7NixKCgoANq/LPbv34+HH35YiPMf1PPnzxd9ALNv/I6o1WrRv+fOnQuuvSrEJzpRUVEw2w01dOYDmz9OpVIJqVTq8XNpz2q1Ij8/3+UHWHp6OmbPni1KiEtLS1FTUwOFQiHqy+Ofp+76hWq1WmE0GoXHyeNfA/n5+T36gersOehp/N+FfcydYbFYUFlZ6fClbP/3cZWU8DzZB499v7CJSkc8ua+OjrczDAYDCgsL8ac//YkNiThLbrpyHPbvVwDIz893qOKxn2vXKzs7W/ihxw/dRkdHC3Fnf8fuxn9e8D+kefafh7wxY8bgyJEjQjJXWloKZfsQamd48lmoVqtRUlIi+hHvirsft6TnUOLWR1nt5hmEh4dDrVZ3ulQPZq5JUlIS8vLyhLI9a+7cucJwKf+mDQ0NZbshKSlJNPeBfeNfL/6DVKFQIDg4GBaLBRqNhu3mVGxsrJA48b/SPX0uq6qqoFAohMdUUlIiqmby+C82+1+tvICAAJeJG18ZVKvV3frcdeZLsru4ew48FR0dLXodscND7nTHY/ZkHx316SgOF33YNvvXHv86ZX9csds440mfjvAJeUREBBvyWEfHUVxcDJlMJrzPwVTYcnJyRK8NSSd/vHXEfv6aTqdDaWmpaDiwp96rLJvNhvDwcNHjDA8Px6VLl0T9Ro8eDaVSKQyX8hVDZ+zfV+wxe/JZGBUVhQsXLiAhIUHYj31Sy+KrlKT3UOLWRxUWFqKkpESY++BsHoozfBWGxw+l8fNJ2HlN9vjKXXl5OdLT0zF9+nSn1Sb7eR/2t66e3sBkMgkfVAaDATqdTpgL4mp4xZXs7Gxw7fO8li1bBqvV6vFzyc6Lyc3NxaxZs0RzAdH+nMbHxzudc9bRhxg/d4af48N+aHaFqyrE9VSlOuLuOfAU/zfmXMx1dMfVY+4MV/uwTzpc9eG5ik+cOBEymQzBwcFO+7Bt7GvP2Y8rdhteZ463I6WlpTh8+LAoieqKjo7Dfo4bZzfvr7q6GmifTsF+vrh773aG/dAz52b+aE+8V1m+vr7C55L9zdkxqdVq6HQ6GAwGHD582GFBCM/+fcUes6efhZmZmSguLhb25WyOG8/dj1XSMyhx66OOHz/uMAzqbLEAW9Lmh1XUarWQxLFDNQUFBQ6/5gFAJpNh+vTp+Oc//4nDhw87lPBdfRHxQ5ruVp/ZY4cf7B+ryWRCQECA6EOJH0rpDLVaLZTwPX0uWeHh4QgICBAlYvv378fhw4edVgD5Dy93iVtOTg5qamqcVvI6y9WQW1eGqzrD3XPQVWFhYVCr1Q6vLZarx9wZrl7H/Guio6QLHu6DP1a2j6spB654cl+u+nSWVqvFsmXLPJorqFAoEBAQILrPrh4HPzxYX1/v9O/LV4o8Tezdsf+MtMd+LnXne9UZV58Xzlb4ov3zyGg04p///Cfuu+8+j/5GLE8+C83tc+/YeYrOHO/EfDjSfShx66MmTpyI4uJiYeKx1WpFQkICbDab6EPNZrOJVj4mJSUhODgYs2fPFr447Ce6GgwGpKSkAC5+Fc+dOxcffPAB/P39RW9u2E2I1jGrMe3v0xM5OTlCkscfD78YQaFQoKamRjQskpSUhKqqKpdzKfjE0f6YdDqd8IHi6XPJcjZnbceOHS6/2PjkY9WqVcLzzX/h8CfYzMrKcpgUfT1Wr16NkpIS0eR3ftJ7dyZW9tw9B13FV1o9STb5x2y/IEOv1zuczsEVqVSKhIQE5OTkCK8Z/jUR0b6Qx76P/Q+StLQ0KJVKWCyWDveB9up0UVGRw/sFnfj7dMfxskmAM/x7zNPjcjbvrKvHUVBQAEn7sGlqaqrDKnJ+paOnx+YOn1xqtVrhva/X65GTkwObzQaTydQj71UWvxDBfoU/X+WLi4tzeH/J5XIolUpkZGQ4JJ2e8uSzkE9YPZkGcfz48R6t7BPnKHHro6KiopCamirMV5DJZJg/fz40Go0ogQkKCsI999wDWft8EaPRKDohYmZmJoKDg4X5M/ypQYKCgpwmbvykXPtVnfbCwsLw9ddfIyUlRZj/wN5nR1atWoVVq1YJ8yxyc3NFq0xzc3NF8+jQ/gXoahhSLpdj27ZtomMqKirC1q1bIZVKPX4u2XlG0dHRyM3NFX1wBwUFuf3yyM7ORlxcnGiunFKpRHZ2dqc+ED0VFhaGM2fOoKioSPT3OHbsmMMHf3fp6DnwlP1cHH6+jSfD7fxjzsrKEraPiYnB119/7fGXbFRUlDA8a/93sh+a5/vExMQI95OVlYUDBw5ALpd7tA+5XI4DBw6IjrWoqEjYh6c8ua+OjtcTzhIGd9RqNYqKikQJmSfHYT/HTSKRICUlBdu2bYNcLheeM/vXNLu9M/wPuKSkJLePQyqVYuvWraisrBSOYdWqVcjLy4Ovry+OHz/u8Xs1NjZWdA60zkpMTERycrIwz02hUCAuLs7l+0CtViMyMtLjH8msjj4L+feVJwkrXznuahJJuo6unNCPpaWlefSB1leY28/P5O6DiRDSf/Dv6Vv1ygl8Ze6NN95gQzc9PV054YahihshhJAukcvlyMjIEA073kpKS0tvyaTF2r7Aw9XIDOlZlLgRQgjpsqioKCiVStGcw1vFl19+6bCI61aQmZkJpVJ5S1ZZ+wIaKiWEEEII6Seo4kYIIYQQ0k9Q4kYIIYQQ0k/QUCkh5JZis9lAH3uE9C9+fn5s0y2LEjdCyC3FZrOhubmZbSaE9FEDBw6k1at2aKiUEEIIuUnxF6Q/ePAgGxKsX78eGo0Gp0+fZkOkD6LE7QbhL4XEnxnc/ubppXtccbXvzp7h22w2Q6VSCWdFj42N9fh6pOT62D/Xer2+03+7jthfiqszYmNjoVKpbslzdhFC+qa0tDTRZeXY7y5P8Vff6Ovfc5S43WAajQYcxwm3vLw8tkunmM1mzJw5E1qtVrRfjuOQnZ3NdndLLpcjISFBuHyT0Wjs8qVWSOekpqYKlwWLiYnp8NI7hBByK7Jardi/f7/ofHqlpaVQKpWdvqKQXC6H0Wjs8+eno8TtJpOTk4Nly5Z1eJ05T0VFRQmJn/11EUnP4j9AOI5DQ0NDt/09yf9av3491Gq1w23t2rVobGxku/cLZWVliImJQVZWFq5evYq//vWveO6553D27Fm2q0tNTU3Q6/VYsWIF1Go1li1bhjfeeANVVVVsV9TW1mLlypVun7PTp09Do9Fg/fr1bKhP4h/Te++9x4Y8wnEcjh49ijVr1uDxxx/H0qVLsWbNGpw7dw6wez7sn7PCwkIsXboUa9euRU1NDdauXeswtMkPd/a157GxsVE4Xmc3/nHy7zf+MV25cgWvvvqqcI3hgwcPOrz/Ll68iFWrVnU4hGuxWHD58mUoFAqh7fjx45g4caKo382EErc+Tq/XQ6lUikq+sbGxLodV+Resuz48+z4SiURUHnZ2v2lpaQ797LkaopVIJEIZOy0tDSqVCmvXrhVi7P3ArmTtqo+z4zMYDPDz8xMdH7sfdpiPPx77Nr1eLzxn/GN2duOHMzs6Dmf3Yc/+QtXOSvX8/joa1uzob27/WJ566ikAQH19vehvxv5t9Xq96Lmrr68HADz11FNCu/0QBc/dsbDPGX9cOTk5or+V/Y3dB3F0zz334JFHHsG+ffvw1FNPoaKiAs888wzGjBnDdnXJaDTik08+waVLlwAAzc3NOHz4MF5//XWUl5ez3W8aRqNRuGyXTCZDYGAgvvvuO3zwwQdoaWlhu7v07bff4q233sLp06fR1tYGjuNw+vRp6HQ6tivQnpx8+umnkEqlePrpp52unDSZTNi9ezfb3K99+eWXqKiowMyZM/HLX/6SDYPjOOzevRvV1dVsyAFbXbOvwKWlpTl8PsfGxora+O+ttLQ0h89f/rPZ/vPM3Wd5b6HEzQ02EXH2BdXb0tLSUFRUBJPJBI7jkJubi1mzZsFgMMBqtcJoNCI6Ohpof/GzfWD3uOz3k5eXh+joaIcvbp65/WLKnkhNTRXu22KxIDIyUhQvLi7G3r17YbFYwHEcVCoVpk2bJryRDAYDJkyYAJVKJeyH7eMJc/sFsO33o1QqMWnSJI/3k5iYKGyr0WgQGRkpHHdnh567Kj09HTabjW0WiY2NFf09k5OTRX9zvV6PlJQUlJaWguM4TJ8+HcXFxdixYwcSEhKE10BMTIywjcFgQExMDPLy8sBxHBISErBjxw4UFxdj+vTp4DgOpaWlSElJEb1u2GPJzc1FeHi409eW2WxGfn4+TCYTNBqNUGUsLS2Fr6+vcN+uqo7sjw/7G/uB7cwrr7wCnU4n3N588034+Piw3foFLy8vaDQa/Otf/4JOp8PmzZsxa9YsSCQStqtLgwcPRkxMDLKzs/HJJ58gPT0doaGhsFgs2LlzZ6eSmP7EZDLhyJEjeO2111BdXY3du3fjnXfeQUVFBSwWC9vdqerqauTk5KClpQVz5szBBx98gH//+9944403EBQUxHYHx3HYsWMHLly4gIULF+Kuu+5iu4DjOOzatQt1dXVsqE/w8fHBm2++CZ1Oh02bNmHkyJEYOXIkNm3a5PL9ZDQakZ+fD7lcjscffxxeXl6iOABUVVWhsLCQbXaKr0by+B8YISEhmDt3LjiOg8lkAtq/+4xGI2pqaoQ2i8WCyspKlxW6nJwcoP1vwb8WFi5ceEOTN0rcXDA7mSuG9i+KG4VPnjIyMoRfF7Nnz0ZERATS09OFfkFBQUhNTRX+HRUVBbVajYSEBFitVhQWFqKkpATbtm0T9hMVFQWNRuPyYtFJSUngOA6+vr5sqNN8fX2h1WqFYVf+WPk3SHp6OiIiIkTXPmT7eILva/9cdGU/N5Jer4dOp8PYsWPZkMBsNqOoqAhxcXHC3zM+Pl54XVjbLwitVquF5Eej0SAoKAiRkZHCvEX2tcT/HezjkZGRCAoKgkajAQCEhYVBrVYLrxuDwQCdTid6jbp7bfFVts7OReFlZ2cL70/2ZjQaO9zv22+/LQwJvv3226ipqRFi/BcCf1u+fDm0Wq3wJcoPq9n3iY2NRVZWlujLvqamBm+//TaWLVsGtVqNZ599Ftu2bUNTUxMAYNeuXVi+fLloP7/97W+xfft2tLS0uBxutG93Nmy5b98+LFu2zO1QJisoKAiPPPII/Pz8IJFIoFAosGzZMgwaNEhIYmw2GzZv3ozf//73uHjxIk6ePInnn39e9Lj5x5ycnAybzYa9e/fi2WefxUcffSQ87paWFmzfvh3PPvus8Pxu3rwZV69eBZwMxTY0NCAtLQ1Lly7FRx99hJaWFoe/kf1t5cqV/5+9+w6Polwf///ekEIa6ZAsJRQhAUEEgsBBIHhUenUTIiWIokgR4cNRglKkCEROfgcpgogoETHCgkAQ8AhSFDGQUKVJCaGkAGmkbMom+/vjZOe7O7tJNo2APK/r2kuZ+5nZ2dknM/c+ZYa0tDSjz1eabt26sWrVKlq1akVubi65ubmMHTuWBQsW4ObmJi9u1vXr10lNTaVJkyaMGjWKevXqYWVlRevWrRk+fLi8OJcvX+bIkSM8/fTT9O/f32yCffXqVY4cOWI2uXkcabVadu7cSW5uLqNGjaJ+/fryIhQVFbFr1y4ePHhAnTp15GEj2dnZZGZmGnWTJiYm4uLigpOTkzQ+e//+/VByzK9fv46Hh4eUuMXGxgIQEBAgbcOQ4fXUycmJiIgITpw4YXFiWRNE4laKnTt38uWXXxr9yp85cybdunWrtS6b2NhY7t+/b1RJnZyc8PX1JSEhgZycHAACAwNNLlht2rQhPj6erKwsLly4gKenp9F2AFQqFSdOnDDpEomLi+PgwYN88MEHRssrq3Pnzvj5+Un/9vHxITAwkAsXLki/iHx9fY3G0+nL7N271+Tib052djZ79+41ORaG7/Wo0ydc06dPp3nz5vKwRD8ebubMmdIyw3qRnJxs8ovS2dmZZs2aGR1nw3VSUlJMvgd9vFmzZjg7O0vbMqxb+/fvx9PT0+QkqFKppDJ6+u9IZfBrubYUFhYSExPDxx9/XGrrRn5+PseOHeObb76RfsjJ5eTk8Msvv3DgwAEAUlNTWbhwITExMdK947Kysti8eTORkZHodDpyc3PJz8832k56ejqbN2/m9OnTRsstlZCQwIYNGyp8vzpzY5bmzZtHQUEBxcXF5Ofn85///Id9+/YZ7XN+fj6//PIL69at4/79+3z88cdGn5mSz719+3bUajW6kpbYb7/9VqoT+fn57Nu3j6+++sqkZS8vL49169YRGxtLcHAwISEh1ZrMHDt2jClTpvDXX3/h4OCAg4MDGzduZO7cuaXWBzl9ItC4cWPq1asnDxvJy8tj27Zt2NjYMG7cOJNWKQwSW4ABAwbIw4+lM2fOcOzYMf75z3/SpUsXeRiAixcvEhMTQ0BAQJnnPWSta3qGLXDy831iYiK9e/emd+/eUve1Wq02uU4Yksf8/Pzo3LlzrV5DROJWijt37pgkNgANGzaU/kAflps3b6JUKqUuUDl5E6/83+aWyS++ZVmxYoXUGvOwyPe3siIjI0260OStbYcPH8bZ2VmKl3acS6P/fvTrBwQEmHRtyt/Dkm68gwcPEh8fX6FWXsMxafLPackxlZeR/9sceRn58TB3TG/evEmrVq2YMWNGrc7g0neVrlq1iqeeeorbt29LFwOVSiV1oW7dupWwsDBsbW25e/cueXl5uLu7s2bNGqnM999/T1BQEHZ2dtKJ/vjx49y5c4fWrVvzxRdfsGXLFv7v//6PunXrcurUKTIyMkz2JTIykrZt21KvXj28vLykuKVyc3P58ssvKSwsxMbGRh6ukjt37nD58mUaNGjARx99hJeXF/7+/syaNQsHBwf++usvTp06xe3bt/Hz8+ODDz7AwcGB559/nnfeeQdra2vOnz9PQkICv/76K66urixevJitW7eyYMECHBwcOHv2LA8ePJDes6CggHXr1nHs2DFGjhyJSqXCyup/ly7D7+j5558Hg+O4Zs0a3N3dpe2URalU0q5dOz7++GO8vb3p06cP//rXv2jevLnF58mKyMzMJCUlRb7YyMWLFzl79izdu3enZcuW8vBj6fr16yZJuSGtVsuPP/6IjY0NgwcPLrfFbf/+/XTr1k36cZmUlERCQoLRD0eVSsWhQ4dISkpCrVbTpk0bVCoVCQkJUvlH4cdjRYjErRSlJWilJXQ1qUmTJiQmJpZ6qxB95u/o6Iivr6/ZXwLyZfLWDz15S1xsbCxnzpwx6m6sbvpWNkPy/dWTt8SVR367Ff3LcHya4bg1XSVuyaL/fvTr68dnGZK/R3lj9rKysoiIiDDqcrSE4SxgfXemXmnH1JC8jPzf5sjLyI+H/mXYddmkSRP++usvIiIiKpSYylV1jJuet7c3HTt2RKfTSTMAb968yaJFixg1ahRBQUEsXbpU6ubT08+GU6lUjBgxgq1bt+Ln50fDhg2hpKsL4OWXX8bNzQ0rKyv8/f1xdnaWBq/r6bttQ0NDuXjxIv369TP67n/77TdUJV2t3333HUVFRVLM0J49e7h69SohISG4urrKw2UyHLOkfy1evBh7e3vs7Ox48OABubm5tGzZ0ug80axZM5o0aYJGo+H69evodDo6dOhglPS0a9cONzc30tLSSE1NRaPRkJGRwQcffEBQUJDUrSqXlJTEmTNn8PLy4h//+AcKM12KVeXr68uMGTNwcnIiKyuL5ORknnvuOV5//XWLW/b0EwsSExPL7RVo0KABI0eOlJJsfW+Jof3792NnZ0ffvn1r5DPXhoEDB/L0009z4MABfv/9d3mY+Ph4zp8/T/fu3fH19ZWHTchnjyYmJuLq6mpU75RKJTqdjsuXL5OZmcmLL76IUqkkIyOD2NhYrl+/XqFrun5MXG0SiVsphgwZIo0P0ouLi+P8+fNmB0k/DAEBAXh6ehollPKuxTZt2pCQkGC03/JuwzZt2hgNztRTq9UmLXERERG8+uqrFUoeyiPvjtX/IahUKqPuOsPPoB/HJW/dKU1p28k2mEFUm6ZOnYrOYNCsnH4WmSX3zZPPYkVWL7y9vWnWrJlRgqU/5obHx3CdBg0amBw/fVye9F+4cEGqN6XVLXMza52cnJgxYwZqtbrSww+qOsZN79atW/z6668oFAqaNm1KamoqS5YsISkpiYiICDZv3sxbb72Fra2t0XpdunQxSnJmz57NtWvXWLVqFTk5OdLYxP/+97+kp6dTXFzMuXPnyMjIwM7OzqhFQd9S9P333xMSEkJUVBSbNm2S4s8//zybN2+mZcuWbN++nZMnT0oxvStXrrBr1y769+9faldUWc6ePcu+ffukcWbJycmo1Wo0Gg2tW7fGy8sLW1tbrly5YvQdx8fHc/PmTZydnaVZrKdOnTKqJ+fOnSM9PR0vLy9cXV2xtrbGy8uLxYsXs2XLFukYylvKfH19GTduHGlpaSxatIi7d+9Kseqmb0V955135KFytWnTBmdnZ+Lj44mKiiInJ4fi4mJOnjzJ5s2b5cXp1KkT3bp148KFC+zZs8coiaek9al3795mJzY8ruzt7QkJCcHGxobNmzebtDoWFRXh6upa6pg/Q+Za1+QtcJR0bTZv3lwaI+rn54dSqSQ9PZ3Zs2fTvHlzo65WOX1rnZ7+R6nhfeMeNpG4lcLHx4epU6fSoEED6Rf8jBkzWLJkibxohUVHRxslK5by8fFh0qRJTJkyRapIq1ev5sSJE9INWidPnmz0X3Nl9N2ew4cPl7YTHR1NZGSk9KuTkhaH+Ph4k5abqsrNzZUmSlAy8aFZs2ZSkjJ16lROnDhh9BnCwsKgpAXNUkuXLiU+Pt7kWNTEZ6qoFStWoCgZ/G2O/Lsoi3yCALLvXJ8gRUZGSsldZGQkN2/e5PDhw9IgW3k90X8P+kkiBw8e5PDhw9y8eVPqhpXXG/1EGMO6FRcXx4IFC8x+HvnEmYdN38o1ffp0kpKSaNSoES1atKCwsBCtVktKSgpTpkxh5MiRrFu3zqjFTT85QN/iplKpWLRoETk5Odjb22NjY0OHDh1wcXHh4sWLvPnmmwQHB7Ny5Uq0Wi29evXCxcXFZF9GjBjBt99+Ky03p06dOmZbgoqKimjdujXDhg0r98JnjkajYf369YwePRqVSsWUKVM4efIkPj4+DBs2TGpZS0lJ4aOPPpImJyxZsoTc3Fw6dOhAx44d8fDw4PLlyyxevFianLBy5UqKioro2rUrvr6+dO7cmXv37vHBBx8QHBwsHUP5JAyA7t27ExwcTEpKCv/+97+l25U8Spo0aUKPHj0A2LdvH2PHjiU4OJjFixebTTZtbGxQqVS4ubmxfft2k0dS6btsK/M9Psr8/Px4+eWXSUlJYc2aNSYTZ/r06VPqedFQWbcBMeTk5ES/fv3YuXOnNGlBP/bt7Nmz9OvXz+S8ZOjmzZvS9Sc7O5sZM2bQu3fvWmvAQSRuZevUqRM5OTnSL/jqvAGtUqk0SlYsNXPmTAIDA6UxRAsWLODIkSNSJXJycmL37t0kJCRICae5MocOHTLaTkhICLGxsSbjjQxnKlaXJk2a0K5dO2nMV0JCArt375aObadOnbh69SqHDh2SPkNCQgLnz5832hf5WCr92DL9LS18fHz4448/jLbz2Wef8ccff1T7ZyqPfIybWq02mtUrZzjb0xIbN27E19dXeo+wsDCioqKk73zQoEHSLV8UCgXHjh2jV69eDBkyhIiICLP1pFOnThw5coQFCxagUCiIiIhgyJAh9OrVi2PHjqEoGbu2a9cuo3qzceNGo7oVEBBAVFSUSd3SkyeItcHOzo7AwEDmzp2Lm5sbDRo0YOjQoVLrs4eHB4MGDSq367FevXoEBgYydepUbG1t8fX15YMPPqBly5ZYWVmhUCjw8vJiypQpDBkyBEpmWdvZ2UnbUCgU0vuNHDlSStJ+++03Ro4cSXx8PCNGjOCZZ54xeOf/cXZ2ZuzYsWbvB2aJDh06MHz4cGmwvKOjI4GBgcybN4/69evj6OjIv/71L7p06WI0fs7Z2ZlRo0bx2muv4ePjw4cffoi/v780Fo2SY/jOO+/Qr18/rK2tGTduHIMGDbJoDJlCoWDo0KGMGDGC+Ph4Pv30U7Pdi7VJoVDw2muvMXXqVKnu29jY0KVLF+m+iXJKpZJhw4ah1Wr59ttvuXfvHpRsq3///pUa4/ioUygUDBgwgMaNG3P+/Hmj1sbGjRvzz3/+U76KWfJu0iwzN+LV05czbChp06YNDg4OJomeXK9evcjMzEShUODs7Iyvr+9DuxVUaRQ6efusINSg8PDwGk2e4uLiGDZsGD/88EOt/iJ61GVnZzNw4MAKn4TGjh1rkmg/bnJzcys821IwlZaWxocffoiHhwcffvih2ZmRV65cYeHChXTs2JFp06bJw9Vq+fLl/Pbbb7z33nuV6ib+u1Kr1URFRZV5XJYvX87JkyeZM2fOIzkRok6dOrVyvnlUz3eixU0QBEF47PXt25dp06bx1FNPyUOC8LciEjdBEAThsefv78/zzz+Ph4eHPCQIfyuiq1QQhCeK6CoVhMdLbXWVPqpE4iYIwhNFfi82QRAeffJb8TzJROImCIIgCILwmBBj3ARBEARBEB4TInETBEEQBEF4TIjETRAEQRAE4TEhEjdBEARBEITHxGObuI0dO1Z6fJD8NXbsWHlxQRAEQRCEx95jm7hR8gyxrKws6Vmi+ldFHuGjFx0djaOjI3FxcYSHh+Pr6ys9JFsQBEEQBOFR8NjeDuRRfYaYIAiCIAhCTXmsW9wslZSUhK+vr9SVaq41TV4mMDCQ7OxsKW6ua9ZwO/r1o6OjoeRh546OjkbdttHR0Ubr61v49MLDw03eVxAEQRAEQa9GE7fs7GwCAwOlRCU8PFxepMbFxcXx1FNPERgYKHWlBgYG0rVrV6Okq2vXrkZlfH19efrpp40SPMOu2aysLJo1a0ZYWJjBu/0/K1asICoqSuq2jY6OJiQkhNjYWOk9VCoVw4cPl95j5syZHDp0SLQgCoIgCIJgVo0lbklJSTz99NMcPnxYWhYWFlatEwcOHz6Ms7OzSUuYvtWLkgSqc+fOrF69Wlq2dOlSACIjI43+q19uroyck5MTvr6+JCQkmLSQxcXFcebMGQICAqRlarUalUpFp06dpGUqlYr79++TmJgoLRMEQRAEQShNjSVukZGR3Lx5U74YtVpt1D1YFeYmJ+zatYvBgwcTHR1NdnY2CQkJ+Pr6GrVi+fj4EBgYyN69e0lJSWHv3r0EBgbi4+NjUubChQvSMkNJSUkcOnTIZNsA+/fvp3379kbb27hxo9T6pu92HTx4sMFagiAIgiAIZauxxK20hCc3N7dGW5gGDRpEaGgoERER5OTkANCmTRt5MRORkZEmLXfy1jbDFj6lUgmyVjqAwYMHc+HCBZOZrYbj29RqNbGxsezatcuojCAIgiAIQllqLHErLVlycHCQkp6aIn/v0pJIX19fHB0dAQgNDTW5rYj81iLyFr5JkyYZjZUD2LVrF23atDGauJCdnU1ERIT0Hjk5OUZdpoIgCIIgCJaoscQtNDSUJk2ayBebjPOqCRcuXMDX15cGDRqYHYem7+Zs06ZNqWPV9BMryppQ8eKLL6LT6UxaEENDQ8FgfFxWVhbx8fGoVCqjcmq12ujfgiAIgiAIZamxxM3Hx4fz58/Tq1cvadnSpUtNuhCrW3R0NJGRkVKSNHXqVE6cOMHkyZOlMvqZoPoEa+nSpcTHxxuVWb16NfHx8VIZc/bv32/Ubarn4+PDqlWrWLBgAXFxcTg7O9OsWTMiIiKk5FC/nzXddSwIgiAIwt+I7jEVGhqqA8y+du3aZVQ2MTFR16RJEyneq1cvXVZWVpllmjRpoktMTJTi5t7PwcFBFxsba7S+/r2zsrJ0vXr1kt7L3PZ37dqlc3Bw0C1dulSn0+l0S5cuNbtvgiAIgiAIOp1O99g+OUEQBEEQBOFJU2NdpYIgCIIgCEL1EombIAiCIAjCY0IkboIgCIIgCI8JkbgJgiAIgiA8JkTiJgiCIAiC8JgQs0qFR1pBQQFFRUXyxYIgCIJgRKFQULduXfnivx2RuAmPtIKCAjQajXyxIAiCIBixs7N7IhI30VUqCIIgCILwmBCJWy1ISkrC19eX6Ohoo+Xh4eFGD6fH4JmpY8eONfq3QqEo9eXo6EhcXJy0jejoaJMy+pd+u5aQ74vc2LFjUSgUJp/rSXf9+nUWLVrE3bt35SGJJWWeFAUFBaxdu5YjR47wKHUIaLVavv76a3bs2PFI7VdpHrf9FSqmuLiYrVu3snXrVoqLi+VhsLCM8PgRidtjKjQ0FJ1OZ/LatWuXvCgADg4OxMbGSuWysrKMniNbVXFxcajVavniJ97du3f5z3/+Q3x8PJmZmfIwWFjmSZKRkcHly5dZs2YNv//+uzxcK3Q6HTt37mTv3r0kJSU98uMuH7f9FSpOo9Fw8eJFtmzZwg8//GA2ObekjPD4EYnbE8LT0xOlUilfXC2ys7OZMWMGL730Eg4ODvLwQ5GWlsbEiRNRqVSoVCpCQ0O5cuWKvNhDpdFo+Oyzz8jOzub999+nZcuW8iLlljl//jwjR46UPpf+FRMTY/KZVSoVY8eOZf369eTl5QFw5coVQkNDmT17tjRW8ODBgwQFBTF79mxycnKM3q88Go2G2bNnM3fuXPLz8+Xhcv3y9tusdXWVXlGdO3N91y4wuKDUr1+fWbNm4enpyYYNG0hISDDaRkVUdX/1YmJiUKvV9OjRgzfffBNra2sAdEVFpF++zB/z5hHp789aV1d+eftt+eoPnbn91el0bNq0CZVKxSeffIJWq4WSlrmIiAiCgoI4fPgwarUalUol/RDTarV88sknqFQqtm7dKl38y6qblrCk/j4s5vbF8LV8+XJiYmKk/9fT1y/9+UZ/7AzL6Lc9ceJE0tLSpOWl0Zc3PIdptVpWrlyJyuB7cXR0ZMaMGbRu3Rq1Ws2pU6dkW7KszEOh05F18yanP/2UqM6dWevqys4BAyiUnX9OLV9udH7QvxL27TMq96QTiZtQZQcPHiQ+Pp433nhDHnqi/fHHH5w/f57+/fvTqlUreRgsKJOdnU1BQYF8calycnLYt28fmzdvlocAuHfvHtu2bcPJyYkxY8bg6OgoL2JWeno6n3zyCcnJyTg5OeHu7k5CQgIrV66s0uSRjCtXODB+PMknThgtr1+/PkFBQeTk5LBr1y4pybBUde7vgwcP2L59O+7u7gQFBUlJG0D6X3/xw8svc/rTT8lNSTFar7aUtr8KhYI+ffrg7e3N2bNnuXTpEgB37tzhzz//pEWLFgQEBMi2BsePH+fkyZO0adOG/v37o1AooBJ10xLl1d8n1aVLl8wmxI6OjowcORIbGxu2b99utm5bUqam5d67xx6Vij/mzSPj6lV5WKggkbiVQT6eLDw8XF7kiZeUlMSUKVNYtWpVuS16ZY21q+rYOHd3d9asWcM333yDv7+/PPzQ5eTk8NNPP+Hu7k6PHj2ki11Fy+iFhISgVqt5/vnn5SG8vLxYt24dW7ZsYfz48VBy8ZbTd5+lpKQwcOBAs4liae7fv098fDyzZ8/m4sWLnDp1ivnz53P58mXu3bsnL16qF9au5e2MDN7OyGB8YiLNBg2iqKCAe2ZaAjp16kTTpk05deqU0bhPS1TX/gKcOnWK+Ph4unfvToMGDYxiLs2a0bRfPwJXreLFL780itWWsvbXy8uLwMBA8vLy+Omnn9BqtRw9epSsrCyef/55k0Q+PT2drVu3Ym9vz6hRo0zilFM3LWFp/a1J+vOHWq1myZIlODg44O/vzzfffINarWbatGnyVR6agoICdu7cWWor5FNPPUX79u25evWqlIzLWVKmPPqWQMPWe0s5eHnRdMAAOn/4IYN27sTa3l5exEi/qCjpPPF2Rga+ffvKizzRROJWiqSkJJ5//nkiIiKkcWGUDMB/3Fy4cIFmzZrh7OwsD1VZWFgYgYGBDBo0SB4yMWjQIJMxeYavsrah0+k4fvw4M2bMIDg4uMLdMhh0G+rXDQ4OZsaMGZw7dw4AtVrN+PHjiYiIIDg4mAULFrB582aCg4OZPn06qamp0slr6dKlbNy4kVGjRhEcHMwnn3xCenq69F4pKSkkJSXh5+dncvHUs6RMRU+Q+jFy9evXl4e4fPkyR44c4emnnzZqObFEy5YtWblyJT169CAnJ4e8vDxeeOEFli9fTpMmTeTFLVKYk0N+RgYKKys8nn5aHsbR0ZGAgAAePHjAtWvX5OEyVef+nj17lrp165ptjapTty4vrF2L/+jR2NTSMAG5svYX4J///CeNGzfm1KlTnDx5ktOnT+Ph4WFSXqfTsX//fm7fvs3gwYPx8/Mzile0blqirPr7qCguLn6oY8ViY2M5d+6cUUuvIWtra7p3705RUZF0LpOzpEyNUijoMm8end57D9t69eRRoYJE4laKnTt38uWXX9KpUydp2cyZM+nWrZvRjM0nWVxcHAcPHmTq1KnyULXbu3cvy5YtIyEhodpmRxUXF5OQkMBnn31GamoqlAyMP3bsGMXFxZw9e5bt27dTXFzMrVu3jE54sbGxREdHk5+fT3FxMcePH2fDhg1Sl969e/fIycmhSZMmpSZIlpS5f/8+lCQxpbl37x5vvfUWwcHBbN26lYCAAAYPHmxUJi8vj23btmFjY8O4ceOwL+cXr9yVK1d45513+PXXX3F0dKRu3br88ssvTJs2jZs3b8qLl0k/zm1jy5YkHT1K79WrUXbvLi8GQOPGjcHgOFiquvZXo9GQkpKCk5MTnp6e8vAjx5L9dXNz46WXXiI/P59vv/2WxMREOnbsaPLj4ebNm+zbt49nn32WAQMGGMWwsG5awpL6+yhwcnLC1taWc+fOldtq9dtvv0k/EN96660Kt/LqZWVlsWPHDjw9PenZs6c8LPHw8MDe3r7MMXSWlHlU7A0JYa2rK5H+/pz7/HOKSmltfFKJxK0Ud+7cMdv117BhQxITE+WLH2kXLlzA19cXJycneajS9BMSJk+ebJTc1oTMzEz++9//Ym1tzRtvvMHmzZtRq9Wo1Wq6dOkiL16qli1bEhkZKa37+eef4+vrS05OjtHJbMSIEUyePBmAwMBApk+fDrLkwcbGhvHjxxMVFcWCBQtwcHDg6tWr1d7Fo+8idHd3l4dKpZ/hazguLDMzk5QqjMHy9PSkWbNmLFq0iNatW9OhQwfmzZuHn58fXl5e8uIW0xUXc2jqVP7askUegpLPXZkJLzW1vzVp+fLlRgPia3KCzfPPP0+zZs24c+cOAL169TL58XD79m1yc3ONlhmqTN20hLn6Wx79pADDV0Va4y3RvHlzWrVqRVZWFnPmzEGlUjFmzJhyk7iqOH78OPHx8fTt27fMVkgPD49yE2hLysjpJ18YJqCXLl1izJgxqFSqSnWbVkRucjJHZ87klMFkD0EkbqUqLUErLaF7VGVnZ5OQkECbNm3koSo5ePAggJTgWKKyY9xSU1NJT0+nadOm9OzZE1tbW3kRi+Tm5vL111/z5ptvolKpmDBhgsmMRQcHB5599lkpWejcubPZLgpXV1eee+45rK2t8fb2rvAJ0RL5+fncu3cPR0fHMpMN/RihrVu3snjxYlxcXDhy5IjRuLAGDRowcuRIcnNz+fLLLys8m9TNzY33338fb29vsrOzSUtLw9fXl3feeafCrXf6cW7jk5Pp+Z//oCsq4vR//kNeSaunoczMzEpdGKpzf/+O6tWrx+DBg6lTpw6tW7emefPm8iJ07dqVnj17cvr0aaKjo426By2tm5awpP4+Cuzt7Xn33Xfp0qULNjY28rCR559/XvqBuG7dukodI41Gw8GDB2nUqBHdS2mR1svIyCgzycbCMrWtw7Rp0ri2t+7d44W1a0Gh4M6vv5rMQH2SicStFEOGDGHFihVkZ2dLy+Li4jh//nyNtzBVp6ysLDIyMnjxxRfloUpLSEhgypQpzJgxo0KteJUd4+bm5oaTkxM3btzgyJEjlZrJptPpWL9+PXv37iU0NJTvv/+e8PDwKifhWq2W48ePk5GRgZ2dHXXq1IGSi5GjoyNXr14tteWgvDKXLl3i+vXruLm54eHhIQ+bVVhYWOo9uzp16kS3bt24cOECe/bsqdQ4HXt7exYtWsSCBQuws7OThyukjo0Nrk89RZ0ytnPjxg0AGjVqJA9ZpKr7a29vT4MGDcjMzKzxRGLatGnSxV6tVhMZGWlye5jyWLq/BQUFnDp1CkXJTFNzP4bq1KnD8OHDqV+/Pjt37uTy5ctSrDJ10xJl1d+yqEpuk2H4qkhrvKXc3Nx47733+O6771Cr1TU6GUqn01FcXMzgwYNxc3OTh43cvXuX3NzcMv9OLCkjp//7MUxADSdtLFq0qMZ+CBUXFVFYcv21dXREUXJupSSpXbhwIa+99honT540WOvJIBK3Uvj4+DB16lQaNGggtQjNmDGDJUuWyIs+0iIjI3F1dTUZWFwVhw8ftnhCQnVwdXWlW7duFBYW8uWXXxrdO0rfHaK/x5K+6yI3N5dZs2ZJJ/SioiJyc3MpKiri008/ZcSIEcycOdNsq6ol9ONyQkJCWL9+PVqtll69euHi4gIlLVw+Pj5cu3at1KchlFVGrVazcOFC8vLyeO6556TtmqPfl6CgIObNm0dWVhYtWrQwGbNkY2ODSqXCzc2N7du3V3tXUnkKc3LYOWCAdG+mzz082DVoEFqNhlavvkpdWZdbQUEB58+fx93dnaZNmxrFHqZnnnmGwsJCTp06ZZLs5iQns6ltW9a6urI3JASAv6KiSr1P1cNQ1v7qJ9eMHDmSw4cP4+/vz9NmJoboNWjQAJVKhUajYc2aNaSmplaoblrC0vr7JPLz86Nr167yxUZ0Oh1nzpzBzs6Otm3bysNgYZmaZPi3vy0wEK1GQ9LRo3zZsCGb2rYlJznZ5Pyw3tubX//1LxQKBW3GjcPa4Bmkt2/f5sqVK2RnZ/Pjjz9W6sf840wkbmXo1KkTOTk5UovQoUOHKtTCVJ7BgwcbdRWGhYVx8+ZNlEqltMzZ2ZnDhw/LV7XI2LFjCQsL4/Dhwzg7Oxu9l367kZGRFZ4p6+Dg8FAmJOgpFApCQkJ47bXX8PLyQlHKQP6yWFtbExwcTOPGjVEoFNjZ2REYGEjr1q3lRS2iUCioU6cOCoUCpVLJ1KlTGTJkiBR3dHSkZ8+eZGRk8Msvv5hcQMsrk5ubi0Kh4NlnnzXabnnc3NwYOHAg06dPN9uKolQqGTZsGFqtlm+//dYkYXyYFFZW1O/UiZcjI2k/ZQrIvtfY2FguXrxoduD8w/TMM8/QqFEjDh8+XGYr1qPCkv1VKBT4+/tb1HXcvXt3nn32We7cucN3331HdnZ2peqmJcqrv08SGxsbhg8fXu73c/XqVY4ePUrLli3NdnljYZlHjZWNDb59+hD0++/49utnFGvUqJH0OfLz8yvVSvs4U+jMXVGEvwV9QrZx40Z5SGJJmdpUUFBQqTFONSUtLY0PP/wQgI8//rjMgdk5OTmEh4dz5coVpkyZYnaciiVlnkR3796VWnXmz59f5S7tqjp69CirVq2iZcuWzJw5s0bGNFanx21/hcrRnz+uX79OWFiY2dY0S8o8jmJiYli2bBndunXj3XffxdraGjs7O+oatMz9XYkWN0GoIY6Ojrz++uu4uLiwfv16ozFCFSnzpElPT2fFihXcv3+f1157rdaTNoAuXbrQp08fLl68yFdffWV2TOKjpLb3Vz5DVv6qyRmzjzJzs1/lL0uHMOTl5bFu3TouXrzIsGHDzHZ5W1LmcfTgwQOOHj2Ks7MzAwcONDuB7O9MJG4CqampODo6GnWlyl+Ojo7i/nWV0LRpU2bMmIG/v3+p0/ktKfMksbe3x8fHh3feeeeRaYG0trZm9OjR9OnTh9atW0uTUB5Vj9v+ChVnbW2NUqlk1KhRDB8+3OwQEkvKPG7UajUTJ06ksLCQxYsXV+v47ceF6CoVHmmPWlepIAiC8Gh6UrpKReImPNIKCgrMDuwXBEEQBEM6nU4kboIgCIIgCMKjQ4xxEwRBEARBeEyIFrda8CSO2VIoFE9EE7YgCIIg1CSRuNWCzMxM+aK/vSdl0KggCIIg1CTRVSoIgiAIgvCYEImbUG0KCgpYu3YtR44cETNBBUEQBKEGiMRNqDYZGRlcvnyZNWvW8Pvvv8vDgiAIgiBUkUjcaklBVhZHw8JY5+XFWldXIv39ubp9Oxi0VGlzc4n56CM2+PpKZS5u3Iiumh+oW5SXx+kVK9jYsiVrXV1Z5+XF0Vmz0ObmSmVOLV/OWldXk1fCvn1Smfr16zNr1iw8PT3ZsGEDCQkJUkwQBEEQhKoTiVstyE9PZ9eAAZxbu5biwkIAcpOTOTB+PLcPHYKSZOrn11/n1PLlFJRMZshNTubwu+9yds0ao+1VRbFWy+8ffMAfc+eiuXfvf8sKCzm3Zg0xCxYYJZKWqF+/PkFBQeTk5LBr166H/oxEQRAEQfg7E4lbLbBzc6Pjv/7Fc3PmMD4xkTeTk2n16qvoiou5d+YMAHd++42En36iXtOmBB89yoTUVP65fj0KKysuRUaSe/eufLOVorl7lxt792Lr4sLQfft4Oz0d1eHD2Ht6cn3nTrJu3jQq3y8qirczMqSXb9++RnGATp060bRpU06dOkVSUpI8LAiCIAhCJYnErZY0HzyYjjNmYO3gQJ26dXGTPSj31s8/g07HM5Mm4f7002Rev87VbdvQFReTef06D65fNypfWQVZWWjz8rCxt8fWxQUUCpx9ffHq0IG89HQ0qanyVcrl6OhIQEAADx484Nq1a/KwIAiCIAiVJBK3R0BeWhrxu3ZhbW9Po8BAAPIN7vV2cNIkojp3JmHvXijp3szPyJDiVeHUqBHubdqQk5zMlm7dWOvqyldNm3Lz558pystDI2vZ2xsSIo23O/f55xTl5RnF9Ro3bgzA/fv35SFBEARBECpJJG61rCgvjz/mzePuyZMEhIXh1b69Ufy399/n8ubN2Do7E7hqFc0HDzaKV5WNoyMvrFmDb79+KKysUFhZ8fTrr+PVoQN16tbFvn59+SpQMt7u6MyZnFq+XB4CwN3dHQcHB/liQRAEQRCqQCRutajgwQMOTJjApW++ISAsjGcmTQKFAgArGxvpv13mzSP08mWaDRxI1q1bZSZUleHcpAn9vvuOCWlpTEhLo1NYGNqcHOxcXKjr7g5Ah2nTpHFtb927xwtr14JCwZ1ff6UwJ0e+STIzM5/IR3sJgiAIQk0SiVstybp5k+ghQ7j9yy/0i4oiYOZMKVkDpC5TNz8/mg8ejJWNDee//JJ7p07h0qIF9Zo2lcpev36dN954gw8++IC0tDRpeYXpdOQmJxMXHk76X3+hfP55nBo1kpeiuKiIwuxsAGwdHVHUqSMvwo0bNwBoZGZ9QRAEQRAqRzyrtBYkX73Kjr59yTQzcN+pUSOG7d+PjYMDP40Zw53Dh43iCisrXvr6a6MuU7VaTVRUFABvvPEG/fr1M1ijfKeWLyfmo4+MltX18GCAWo1Xhw4U5uSwJziYpKNHjcoorKzo++23+Mrer6CggCVLlpCYmMj8+fPx9vYWzyoVBEEQhGogWtxqQXFREUX5+fLFRmzr1eOf69bRYtgwFFb/+5pcW7ak3/ff03zQIKOyHTp0wNnZGYAcM92WFWHv5cXT48cT9OuveHXoIA9DSfetb58+BP3+u0nSBhAbG8vFixfp2LEjDRo0kIcFQRAEQagk0eJWCzINZoxWl+XLl3P06FGmTJlCr1695OGH5u7duyxcuJC8vDzmz5+PUqkEEC1ugiAIglANRIvbY06n03H9+nWuXLlC69atCQgIkBd5aNLT01mxYgX379/ntddek5I2QRAEQRCqh2hxqwXV1eKm0Wj4+OOPSUlJ4cUXX2TIkCG12qqVl5fHl19+SYcOHfjHP/5hFBMtboIgCIJQdSJxqwXVlbg9TkTiJgiCIAhVJxK3WlBcXCxf9ESwKplkIQiCIAhC5YjETRAEQRAE4TEhEjfhkSOqpCAIglCdFCVPJfo7EImb8MgpKCgQj8sSBEEQqoWjoyPW1tbyxY8tMehIEARBEAThMSESN0EQBEEQhMeESNwEoQZcv36dRYsWcffuXXlIYkmZR8njtr9CxSQmJrJ48WISExPlIcnFixcJDw8nKytLHhKEWmVJ/f27EIlbLYiLi6NJkybExcVJy7KzswkMDCQ8PNyobHh4OIGBgWRnZxMdHY1CoSj15ejoKG1Tvz15GYVCIW2vPGVtIzo6Wl5cKHH37l3+85//EB8fX+o9+ywp8yh53PZXqLgbN25w/vx5lixZYjY51+l0XLp0ibi4OJYtW1bl5yILQnUqr/7+nYjE7THTpEkTEhMT0el0Rq/Y2Fg8PDzkxVm6dKlRuaVLl8qLlEu+jV27djF48OBaT97S0tKYOHEiKpUKlUpFaGgoV65ckRd7qDQaDZ999hnZ2dm8//77tGzZUl6kzDIFDx5wbccOfhw+nM/d3Vnv48O906eN1n/YStvfxMRE3nzzTUaPHs2ff/4plb906RKjR48mLCyM27dvM3HiRCZOnEhaWhoAf/75J6NHj2by5MmkpKQAoNVqWbp0qfRd6l+zZ8+2aKKKvi4Y1gGtVsvKlStRqVSo1Wr5KjVGo9Ewe/Zsk89i+JkSExNNjguAWq2W9tfcZ5KXscSVK1cIDQ012oc333yTH374Aa1WK5X7xz/+waRJk7h//z5ffPEFBQUFRttRKBQMHTqUESNGcPHiRb777rsqzQCPiYkhKCiI2NhYeahcBQUFxMbG8u9//5tRo0ahUqmIiYmRF+PChQvMmjWL4OBgXn31VRYvXizVOUrqyO7du5kwYQIqlYpx48axefNmk8/+MFjyt39q+XLWurqavBL27TMqV1XavDxu7t/P/tdfZ52XV428h15OYiL733hDep9If3+ubt8OBnXrl7ffNvnM8uNTXv39OxGJm1BhvXv3plevXly4cEEeeuL98ccfnD9/nv79+9OqVSt5GMoqo9NxfOFCfn7tNW798kuVLorVqbT9VSqV9OnTh7y8PPbs2YNWq0Wn03H48GHy8/Pp168fDg4ORtvSaDRERUVRVFTEyJEjadCgAQCFhYUWtQJXxKVLl8xezIX/PVd48+bN/PLLL0bLu3TpQrdu3Th37pzZhEqhUNC3b1/8/Pw4cuQIV69elRcp1759+/j++++pW7curq6uODg4EBkZybFjx+RFS/Xf//6XpUuXEhMTY5R8Gjp58iQLFy7kypUrFBcXU1hYyMmTJ1m8eDGpqanodDq+/vprvv76a1JTUwHIyspi+/btfPnll6Vut0Y8Yn/7lyIj2aNScXX7dopr8DjkJCaye+hQrm7bRnFhIQC5yckcGD+e24cOyYuXq7z6+3chEjeh2sXFxeHo6GjSvVqRblpLuLu7s2bNGr755hv8/f3l4YcuJyeHn376CXd3d3r06IHCzH2DyiyjUNC0f39aDBvGKwcP4iN73mttKHN/gV69euHt7c3Zs2e5evUqKSkpnDx5EqVSyTPPPGNUFuDgwYNcvnyZ7t2706VLF3kYLy8v1q1bx5IlS0ySvoooKChg586d5OXlyUM1zt7enkWLFqFWq1m3bh1eXl7S51Kr1SxatKhWHv/m7+/PN998Q1RUFP3790en0/HgwQOjMtbW1rz88stYW1tz4MABs60Wjo6OvPTSS2g0Gg4ePCgPl6mgoIA7d+6wbds2Pv30U3Jzc/n3v//N7t27uXbtmsVPlWnXrh0dOnRg4cKFdOvWTR6moKCA6OhotFotw4YNY/PmzXzxxRe0bt2aO3fucOzYMW7evMnRo0dxdnZm1qxZbNmyhfnz5+Ps7Mzx48e5c+eOfLPlWr58uUkLqUUq+LffLyqKtzMypJdv377yIlXSsGdPfPv2Zdj+/bQaMUIerjZ34+JI/+svlD16MPbKFSakptI9PBxdcTGXNm0yShqt7e155dAh6TOPT0rC69lnjbZnSf39OxCJWynMje+qzqTjYWnTpo18UZXpT9aTJ0+WhwDo1KkTOTk5Jt25Op2OQ4cO4eTkJF/FrLy8PL7//nvefPNNqYtH3rVUHnk3UXBwMDNmzODcuXNQ0u00fvx4IiIiCA4OZsGCBWzevJng4GCmT59Oamqq1GW1dOlSNm7cyKhRowgODuaTTz4hPT1deq+UlBSSkpLw8/OTWpLkyivTqHdvXvrqK1xLaa172MrbXy8vL/r3709+fj4//vgjf/75J6mpqXTp0gU3NzejsikpKfz4448olUpeffVVo/sqFRUVVetJNjY2lnPnzj3y924qLi5+6K0rxcXFZGVloVAo8PLykofx9fWladOm3Lx5s9S/tbZt2+Lp6cnVq1crdE60tbXljTfeYOHChdSpU4f8/Hzq1q3L4sWLGT16tMWPxfP19eXDDz8s9QdbSkoKCQkJKJVK+vfvD8CJEye4desWlHTX//nnn2RlZdG1a1c6duxIRkYGR44cIScnh6ysLOLj42VbrVmP0t++m78//aKiaBAQIA9VK839+wDYubpi4+iIwsoK7y5dsHNzI/vOHYoq8cPLkvr7uLPsr+QJtGnTJiIiIoySjoiICDZt2iQv+kjKysoiIyMDpVIpD1VYWFiYUQI7ePBg4uPja3RmWUFBAREREWzdutUoOaqq4uJiEhIS+Oyzz6TukYyMDI4dO0ZxcTFnz55l+/btFBcXc+vWLSnBoyQZiI6OJj8/n+LiYo4fP86GDRukLpV79+6Rk5NDkyZNTFqm9Cwp8yixZH+7detGo0aNOHPmDDt27MDZ2Znu3bsblSkuLmbHjh2kpaUxduxYk/GYBQUFZGVlYWdnR506dYxiFZWVlcWOHTvw9PSkZ8+e8vAjwdbWFmdnZ9LS0vjll1/KbGnKzc1l1qxZ0o+PqKgoeRGLXLp0iTFjxjBy5Eh+//13XnrpJZPviZIWQ09PT/Lz80v9G3dwcMDDw4OsrKwKJdwFBQV8+eWXzJkzh6KiIuzs7MjLy+ODDz5g06ZNZR6HisjLy0Or1eLk5MTx48d59913WbdunZRkZmdnS5+tbt26fPXVV7zzzjscOHBA2of7JUnFo2hvSIg0Huzc559XKsF5FHh16IC1vT3x0dGsVypZ6+bGtsBA8tPTyb59mwKDHwVajYZtgYGsdXUlqnNnrv3wA7qiIqPtYWH9fdyJxK0Mfn5+Zf77SSGfnKCfbv3qq69W6Nd2RZw/f55z587RoEEDlixZwpYtW1Cr1axZswZ3d3d58VK1bNmSyMhI1Go1arWazz//HF9fX3Jycox+jY0YMUJqQQwMDGT69OkgO3nb2Ngwfvx4oqKiWLBgAQ4ODly9etWku+lRIG9pVKlULF++XF6sWri5uTF48GA0Gg3Jycm0bduWhg0bGpXRaDRldj1lZGSQm5uLk5MTtra28nCFHD9+nPj4ePr27Uv9+vXl4XLJJ72oKjBJwlJOTk5SF9/3339PcHBwlZKyiioqKuLgwYP89NNP8hAAjRo1ki8yor84VpStrS0NGzbklVde4d1338XBwYF//etfDBw4kBYtWljc4mapy5cv88UXX3D//n06duzI5MmTTbrgo6Oj2bNnDwCvvPIKgwYNMoqXRz9ZRKVS8dtvvxkl2pXqNq2A3ORkjs6cyaka+tuuaV7t2/NyZCSuJROe7D096fTee9SpWxenRo2wLaV3JuPKFX4eN45rO3bIQ2BB/X3cVe9fyd/InTt3HutsXZ9cVUeLm5yPjw+rVq0qtdWtOsa4JSQkoNVq6d69Oy1btqz0CT03N5evv/5a6m6dMGECCQkJRmUcHBx49tlnpRN6586dzXaxubq68txzz2FtbY23tzeOjo7yIk+srl270qpVK2xsbOjdu7fJ8XN0dCQ0NFRq3ZBP109LSyM3N5cGDRpgb29vFKsI/birRo0amW1NepQMGjSIkSNH4uzsLA8ZcXBwYMmSJdKPj5CQEHkRi+jHuG3ZsoX/+7//o06dOvz8889mb++SlJQkX2QkPz+/0t1Qffv2ZcSIEeTl5UkJe2hoqNmxapVVp04dqYW4efPmfPLJJ8yaNQuFQkFubi7u7u7Y2dkBYGVlxcsvv8yaNWsICgqSPntNnDurqsO0adIYr7fu3eOFtWtBoeDOr79S+DjenkWhoMlLLxFy4gRvZ2Qw9upVGnTpQlF+Pg7161OnZCzoC2vX/r+xbcnJBISFAXDz559lG/yf8urv465yV8MnwNChQ9m5c6fRstWrV5u0JDyq9u/fT/v27fHx8ZGHalx1jHFr1KgRCoWCo0ePSrPCKkqn07F+/Xr27t1LaGgo33//PeHh4VU+IWu1Wo4fP05GRoZR156XlxeOjo5cvXq11BlplpSpDvKWRrVazbRp0+TFymXp/t64cYPExET8/f1p27atPAxAixYt6N+/P0lJSURFRUnbKygoYP/+/eh0Op566in5ahWi0+koLi5m8ODBJmPsLKWf9GJ47BYtWlSlhNIca2trhg0bxldffVXlpKyiCgsLKTLTzURJ8puSkoKjo2OprdvZ2dncu3cPDw+PSh+XLl26sHXrVgJqYBxVgwYN8PHxwdramq5du9K4cWNu377Ntm3bUCgUtG3bltatW1O3bl1cXFzo0aMHjo6OHD16lDNnzuDm5kbjxo3lmzVLVXJrFrVazfPPP2+UaEdGRpq9JVB1KC4qorDkR7CtoyMKgyEGWq2Wzz//nDFjxrB3716DtapfTEwMY8aMISIiokqt0sWFhdw/c4aY+fNBp6P5kCFYmfkBXVxQQFF+PgB2Li7ysEX193EnErdSdOrUiczMTKPWIkp+JT/qsrOz2bt3LyqVSh6qFtnZ2URERDBp0qQaSwxbtWpFs2bNSElJke7DpJJNToiJiUGlUjFmzBguXbpk1EWhVqspKioiNzeXoqIiPv30U0aMGMHMmTMrfWfte/fu8dZbbxESEsL69evRarX06tULl5KTh/5ice3aNZMWJb3yyujv0/Rlw4YkHT1qNK6jpu6jVJby9lffTTRnzhzy8vLo06dPqV2dCoWCPn360Lx5c3799Veio6NJS0vj3Xffle5D2KFDB/lqFebn50fXrl3li594+jFuwcHBrFy5ksLCQtq2bUu9evWMyt29e5c7d+7w1FNPSXVbLj4+nvT0dNq0aVPpxK0q9H/7+u5JgGXLlkl/+46OjgwaNAiFQsHmzZsJCQlh+vTpJCUl0bp1a7p3785TTz1F165dSU9PZ86cOYwYMYKVK1ei1Wrp27fvQ+9uK+9vvzAnh50DBvy/+5h5e/Prv/6FQqGgzbhxWBvMVH7w4AGnT59Go9Hw008/mW1VLUvCvn3S+/xV0n2vH1cn75Y9duwYGo2GEydOcOnSJaNYeQw/0zovL9S9epF67hxNXnyRJi+9BEBOcjKb2raV9mdDkyac+s9/sHVxwW/UKPkmLaq/jzuRuJVh5syZRq1FM2fOlBeptNTUVAICAqSk0NnZmcOHD5tMBAgraRK21P3793n66ac5fPgwgwcPNtqWfnuHDx8udUaoOfJ9cnZ2pl+/ftV6POTq1avHrFmzCAwMrHSXpLW1NcHBwTRu3BiFQoGdnR2BgYG0bt1aXtQiCoVC6oJRKpVMnTqVIUOGSHFHR0d69uxJRkYGv5RyLyZLyjxKLN1fe3t7Ro8ebfYWH4bq1atHSEgI1tbW7Nq1i8uXL6PVarG3t+e1117D29tbvkqF2NjYMHz48FpJJh4XipLZpGPHjiU0NBSFwaQTrVbLrl270Gg09OrVy6TLm5IWjR07dmBvb/9Id0f/4x//YOLEidJEGDs7O1544QXee+89HB0dsba2Zvz48fTt21fqNvXw8OCNN95g2LBhRsflUWRlY4Nvnz4E/f47vv36GcXq1asn3Y4nPz+/1NbV6tC1a1dsbGzQarUVmqhijpu/Pz3+/W/6bNqErewHhZ61gwOtQ0MZcewYnrJbDllSf/8OFLrSzsTCYykpKYmuXbuyatWqUlsHw8PDuXDhAhs3bpSHHgkFBQVVanKvbmlpaXz44YcAfPzxx2U2v+fk5BAeHs6VK1eYMmWK2QubJWUeJY/b/gqVd/ToUVatWkWHDh34v//7P5MLn06nY/v27URFRTFkyBBGjRr1yCc4T6orV66wcOFClEolc+bMqfQP4PJoNBo+/vhjbty4wezZs0u9RcvDUFr91SfqfxeixU0QqpGjoyOvv/46Li4urF+/nsuXL8uLWFTmUVLb+6vvji3r9SQ+IcHc7Ff5qyKzYU+dOsX69evx9PTktddeM7nQ6XQ6Dhw4gFqtpnXr1o9Fq9STKi8vT3qqxKBBg2osaSsuLub8+fPcuXOHrl27VnmMalWUV3//TkTi9oRKTU3FsZSZn/qX/IH3gmWaNm3KjBkz8Pf3L/V2FJaUeZQ8bvsrVJynpyetWrVizpw5Zr9jhUKBh4cHnTt3ZubMmTWWDAhVExMTw7hx47h06RLz58+vsRbytLQ0Jk+ezJdffsmoUaN4++23azVZKq/+/p2IrlLhkVNQUFCjYzIEQRCEJ4eNjU2tJpXVTSRugiAIgiAIjwnRVSoIgiAIgvCYEC1uQoXlPYTn4tU1uCeRIAiCIAj/IxI3ocLy8vLIL7lzdU2wtbUV9+ESBEEQBDNEV6kgCIIgCMJjQiRutSAuLo4mTZoQFxcnLcvOziYwMNDkFhzh4eHSg9mjo6Px9fU1eoBudHQ0CoUCR0dHfv31VwIDA01u66GPG76fIAiCIAiPH5G4Pcbi4uIICQlh165d5OTkSM95XLp0qcnD3efOncvw4cONkr7K+uuvvwgNDUWtVnPlyhXp//XPD4yJiZFumqq/MWpCQgJvvPEG7777LqmpqSY3VR03bhwbN258KOPnBEEQBOFxJRK3x9iKFSvo3LkzvXv3lodMhIaGAhAbGysP1Tj98+NycnJ45ZVXpGcHGsrKyiI6OpqvvvoKrVYrDwuCIAiCIBK3x1dSUhKHDh2iX79+ODk5ycMVou9uNfcaO3asvHiFXbp0iZiYGP7xj3/wj3/8wyj23nvvsXXrVubPn4+zszMnT57k3r17RmUEQRAEQfgfkbiVQj/mzDCJ0Y81exRERkaCQUtaecLCwgAICAiQhxg0aJBJ16r+VdUH0efn57Nz507s7e1RqVRm716tUCho3rw5DRs2JD8/n6ysLHkRQRAEQRBE4la6TZs2ERERYZTEREREsGnTJnnRh+rmzZsolUr27t3L+fPn8fHxkRchLCzMpOXs0KFD/PHHH2bL16QTJ07w559/MmzYMJRKpTwMJQ+vvn79Onfu3MHd3Z0GDRrIiwiCIAiCIBK3svn5+ZX579rQpEkTEhMT8fX1xdnZmejoaHkRs5MTEhISHnrSBnD79u0yx6wtW7aMoKAg5s2bR3Z2Nr169cLFxUVeTBAEQRAEkbiV7s6dO490l93q1avp1asXU6ZMqfJM0Zoc49a/f3+aNWvGtm3bSEhIkIclHh4ejB07lkGDBslDgiAIgiCUEIlbKYYOHcrOnTuNlq1evZqGDRsaLastTk5OREREcP/+fWn8WmXV5Bi3evXqMXToUHJycti0aRMFBQVG8ffeew+1Ws3nn3/OwIEDzY6BEwRBEAThf0TiVopOnTqRmZlp1PpESZLzqOjUqRNz585FrVbXys11o6KimDVrFrm5uURFRbFs2TJ5EQCee+45OnbsyOnTp9m/f788LAiCIAiChUTiVoaZM2catT7NnDlTXqTSUlNTCQgIkJJCZ2dnDh8+bDKxoLzWtMmTJ9O5c2eGDx9OcnKyPPxIsLa2ZtiwYdjb27N161auXbsmLyIIgiAIggXEQ+aFChMPmRcEQRCE2iFa3ARBEARBEB4TInETBEEQBEF4TIjETRAEQRAE4TEhxrgJgiAIgiA8JkSLmyAIgiAIwmNCtLgJgiCR3yBZEARBMGVraytf9NCIxE0QBMmDBw8QpwRBEITS2dnZUbduXfnih0Z0lQqCIAiCIDwmROJWC7KzswkMDCzzAe76B79HR0fLQ0IFZGdnM3ToUOmRYGPHji31mI4dO5bAwECys7PlIZKSkvD19SU8PJzw8HCjp1sYvsLDw8HgO9b/W27s2LFlfv+G9O9tbr/19aS096mq1NRUlixZwvXr1+UhoQalp6cTHh7OlStX5KGH7kmvAzqdjj179hAZGYlWq5WHBQs8rnXo1KlT/H//3/9HTk6OPFSrROJWi06fPm32gpuUlERERAQODg7ykFBBTk5OzJkzh549e6JQKEhISKB3797yYgBMnTqVEydOcPDgQXmIyMhImjVrxuTJkwHo1asXWVlZRo9Ei42NZcGCBWYTrJqQlJTElClT5IurTU5ODp9++ikJCQnyEOnp6axatYpRo0ahUql49913+euvv0hLS2PixInMnj0bjUYDQEJCAm+88QYTJ04kLS0NALVajUqlMnoZrlNT0tPTeffddxk9ejSXLl2Slu/duxeVSsXu3btN9m3cuHFs3LiRvLw8NBoNs2fPNvos+mWhoaEWJVpXrlwhNDS0zM+v0Wi4ffs2ixcv5vLly/JNWCwyMpLJkyeTnp4uD1nEbB3Q6ci6eZPjixYR6e/PWldXTi1fbrhauRL27WOtq6vRa72PD/dOn5YXLdPOnTsJCQlhw4YNZrv48/LyWL9+vVRPLf2ODP3+++9s2rSJoqIio+V5eXls3LiRcePGoVKpGD9+PMePHze7H08ys3WI/9Wjq9u3S3Vog68vZ1atoriw0LhcKQoePOCv779nW+/erHV1ZeeAARQaJlgWbD/p6FG+79qVta6urPPy4uisWWhzc0tW15GVlcWJEycIDw9/pJI3kbjVop49e3LhwgWTFp7Y2FjatWuHp6en0XKhcjp16kROTg46nY5Dhw7h5OQkLwIl5ebOnUtERITRd5KUlMRnn33GjBkzSl2XkvVVKhVqtVoeqhFhYWHcv3+fxo0by0NVptVqiYyM5MaNG0ybNo3mzZtLsbt37zJ37lwOHTokPfrszp077Nmzx2AL/6PT6fj555/JzMyUh2qFm5sbL730Enl5efz8889otVoKCgqIjY3Fw8ODgIAA+SpkZWURHR3NV1999dBaXJRKpZSUf/PNNxW6aOh0OrZs2cK2bduwtrbGzc2NS5cu8fHHH5OamiovXqrS6kBOcjI7Bwzg5L//Te4j+nxkve3bt7Nv375KP6Lv2rVrrF+/nq5duzJmzBisra2hJBlZvHgx0dHRZGVlAZCRkcGuXbvIy8uTbeXJVVodArgeHc2B8eOlOlSQmcmx2bM59/nnBlsohU7H0bAwfpkwgXunTsmjYMH278bFsXfkSNJLfsAVFxZybs0ajs2eTbFWi0KhoEePHqhUKi5evMiePXsemaRcJG61qFGjRtSrV8/oF3V2djZffvklL7/8slFZedeavLs1PDzcpJvPcJm5uGHXYFxcHI6OjiZl9O/j6OgodTfqu+fMdRGWFlcoFGXuq565bkH5MvmxMBQXF0eTJk2Ii4sz+n+96Ohoo88iFxoaSnx8vFGrm761rbSWutoQHR1NZGQkX3zxhdHJUG7s2LEm34P+VVbL4NWrVzl69Cgvv/wyfn5+RrH9+/eTlJSEv78/q1atYuvWrSxbtoymTZsalQO4efMmx44dky8GwNramg8//JB169bh5eUlD5dL33JV0US5e/fuNGzYkJMnT3Lnzh1SUlKIj4+nY8eONGjQQCr33nvvsXXrVubPn4+zszMnT56sUOJTnueffx61Wi29Fi1aZPSMXj8/P1555RUuX75MbGys0bpl0el0NG3alJiYGH744QeuXLnChg0b8Pf3r9AzgEurA47e3jQbOJB/rltH5w8/NFqnovpFRfF2RgZvZ2QwPikJr2eflRcp05AhQ4iKiuL1119HoVAYxXQ6HcnJydjb2/PRRx+hVquJjIykZcuWRuVKo9Vq2bFjB9bW1qhUKilpo+TH9cWLF2nQoAGffPIJW7duZdWqVXTs2BErK3FZ1SutDhU8eMCZFSsAeHHDBiakptJfrcba3p7LmzaRV97fmUJB8yFDaDdhAgO2bcNaVq/L237u3buc/ewzCjIz6TJ3LhNSUwn67TecGjXi6g8/kHntWsnbKBg0aBBt27Zl//79pKSkGL1PbRE1rBT6hMXwQldaslEVL7/8MitKKhggJXH+/v4GpUytXr2aw4cPyxdbTH/hN+Th4UF6erpRInnw4EGj94mLi2Py5MnExsZKXYRLly5lwYIFRslQkyZNSExMlMqEhoZKsdpiSdeij48PkyZNklrdsrOz2bt3b7mtbRgcU5VKJQ9Vq+zsbCIiIggNDWXw4MHysJGNGzcadecavgYNGiQvLjly5Ag2Njb06NHD6IKYnZ3N6dOnqVu3LqNHj8bb2xuFQkGzZs0YOnSo0TbKam1LS0vD1ta23GNaE9zc3OjTpw/Z2dkcPXqUM2fOUFBQQK9evUwu/gqFgubNm9OwYUPy8/Or9e//t99+Q6VSERwczIIFC7h9+7a8CAEBAbi7u3PkyJGHfquW0uoACgXdlyyhZXAwVjY2hqs8NDExMUbdzMsNumr1XddBQUH8/vvvaDQaPvroI5Ny5UlKSuL8+fMEBATg4+MjLddqtdKPkeDgYJo3b45CocDb25vhw4djZ2cHJXV84sSJRvsZGhrKhQsXmD9/PuPGjTPqPrx06RKjR48mIiKCLVu2mHTrqtVqk2WVJd+3oKAgJk6cyJEjR9DpdFLc8Hjpj3lMTIzRtspSWh3KunmTtEuXaNS7N8369yc3JYVr27ej1Wh4kJBA1q1bRtsxx7dPH7qHh1PXw0MeKnf7qefPczcuDrdWrfAbPZrC3Fz++v57clNSyE9P50F8vLQtW1tbAgMDSUtL41QprXsPm0jcSrFp0yYiIiKMLnQRERFs2rRJXrRKAgICSEhIICkpCUpaM7p161bmBS0uLo7vvvuOXr16yUMWSUpKYs6cOQwZMkQeYtCgQezfv1/6t1qtZsiQIXiU/HF06tSJmzdv0qlTJ6nMiy++KMUfZWFhYXTo0KHcfdWPY1u9erXU8iZvbTt8+DDOzs5Gif3gwYPZtWuXUUIUFhZmVEb/kifNFbF69Wri4+NZunSpPFQtNBoNCQkJKJVK6tevbxQrKCggKysLZ2dnk5hcQkICR48epVOnTibHPLdkHElt6datG40aNWLfvn3s3LmTpk2b4uvrKy+GTqfj+vXr3LlzB3d3d6ll8N69e7z11luoVCrGjBljNF6uooqLizl79izLli0zadHz9PSkWbNmJCYmWpw0KhQKbty4QZcuXRg2bBgtW7bk9ddf59KlSxaPISyrDlSnvSEhrHV1ZVO7dlxRq9HJxpHVplu3bvHgwQPatWtnlHQUFhaSnZ2Nvb09SqXSaB1L2NjYSI0AJ06ckJafPHmSoqIievfujZWVFQUFBdKP3+Li4hpN3HU6Hffu3ePrr782+wOiMsqqQzlJSRRmZ2Pj6Mi5zz/n2/btubx5MwBajQbNvXtG5SuqvO1nXr2K5v597NzdufHjj2xq04YzK1dK49/0LW56fn5+uLq6Vmm8aXUSiVsZ5F1E8n9XBx8fH3x9fYmNjSU7O5tjx47x4osvyosZWbFiBQsXLjS50MiTibCwMKO4XmRkJK+++irdunWTh+jSpQt79+4lKSmJpKQkaWC5nL77UqFQEBAQYHLBKY98X+Vdn4MHD5ZiSqWSmzdvGsUjIyONEiH5+nJxcXFkZmYybdo0eciEk5MTM2bMYMGCBUyePJl+/fqZJNLmJieYa8VaunSpSRldFVog4+LiWLBgAatWrTJqBahOGo2GtLQ0vLy8KtS1Jrdv3z6srKzo06ePUfdRfn4+aWlpODo6miR05TFsKZg1axa5ublERUVJLQeWtgbox7ppNBrS09Pp2rWryWddtmwZQUFBzJs3j+zsbHr16kW9evWMylSFvqt0w4YNtG/fnjt37phcGKytrWnevDk5OTkW/40pFAqCg4N55ZVX0Gq1pKen4+/vz4cffmjx8a6uOmCp7Fu3ODB+PNd27JCHzOrSpQtqtZolS5aYTOKyt7dn0aJFfPPNN/j7++Pg4MCSJUtQq9UW/f3rJSYm4uDgUKlufErGvOXm5krf8/PPPy/FnnnmGZRKJadPn5bqYExMDP7+/rRt2xYvLy+KiopYuXIlQUFBBAcHs337dqPtV4W7uztr1qyRuuk3bNiAn58fTZo0MRpbrW8VVqlULFu2zGgb5SmrDukT9Ou7dvHHvHkAdJ0/n+aDB4NCgZWNDYU5OewcMMBoAovJBIRSlLd9hZUVuqIikv/4gyPTp1OQlUXbt96iw/TpAFjL6pSLiwv169fn/v37Fv/4qUkicSvFnTt3pEGnNU1VMqBdf9IuK0GMjo4udWakPJkw1yITGxvLd999V2rioFQqpUQyNjYWX19fo1+V+rFwSqWSSZMmoSuZTWnpBUHPcF8TExM5dOiQ0Ti5Xbt2SZ8jMTGRJk2aGK0fGhoqxbOyskhISDA7Q5eSweUzZszgjTfewNnZWR42q3fv3nTu3BmFQlHqsXrY9J9DpVKZJIilqewYN0pagnSywbh16tTBzs6OrKws7t69axQzFB8fT0xMDN26dTP5gZGbm0tqairu7u4mJ/SHqVu3biiVylInJeh5eHgwduxYo2Pu5eXFunXrUKvVUoJQWfXq1aN169ZQkixUp9DQUFavXo2bm5s8ZBFzdaA6+PbtK41te+vePbqXnKtuHzokL1qr9OcYQ/q/AY1GU+b3lZmZSX5+Po0aNZKHcHNzo0uXLty4cYOEhATOnj1LcnIygYGB2Nra0q1bN4YNGyadr2xsbKr9b8Wwu/n1118nPj6eZ555hjp16siLVom5OuTg7S2NS3v69dcZde4c7SZMoDAnBxtHR+yrODGvvO27PPWU1MXq268fISdO8Hx4OIUlrdpOZr6zR4lI3EoxdOhQdu7cabRs9erVNGzY0GhZddB3l3799ddldpMmJCQwZ84cIiIiSi1TloyMDKZNm8bChQvLbK3RJ5LqktsiGNq/fz+dO3cmKyuLmTNnQsnFxtLWAHN8fHwIDAzkwoUL8pBFnJyc6NevH3v37jWbbC9fvhxfX1+Lkx1DkyZNKvNYPUzh4eGcOHGCqVOnykOlqswYN3t7e9zd3UlNTTWZIVevXj2aN29OXl4emzZtIjk5GZ1OR3x8vFGLQH5+Po6Ojrz00ksoDLqZdDodZ8+eJTU1FW9v7wpfjAxbCvStLSEhIVJ97dKli3wVs3Q6HXfu3CE9Pd1kUoLee++9h1qt5vPPP2fgwIFGg9OrU3p6OmfOnEGhUJhM8NDpdNy+fbtSrZNVUVYdsFSxVsvxhQv53N2dM6tWQSkJYHFhoTQY3aEGu2UrSqlUotFouH//vtFyW1tbWrduja5k9u7169fRlUyEUKvVaDQaCgoKOHLkCEVFRSbfqV737t2xsbHhjz/+4Pjx4/j6+tKhQwcoeY+RI0fy1VdfoVar+e6778wObblx4wZTpkxh+vTpZf6QMkffaqlWq4mKimLgwIFs3ryZAwcOSGUMJ9C89957RuuXp6w65Ny4MfV8fbF1caHpgAHYe3pyffdubh88iLu/P85NmmDj6MiQH3+UEvy3MzIY8uOP2Dg6Gm3LnPK279GmDR5t2qCwsqJZ//7Ua9aM5JgY/tqyBUcfH9xatTLaXm5uLvfv38fT07PC56yaIBK3UnTq1InMzEyjFgpKxoBVN/2vqg0bNpTZTXr48GFeffVVo/FlFXHmzBnat29f7mcICAjg0KFDHDp0yGxLRHx8vJQgxcXFERISIi9Cs2bNLG7dSkpK4tChQ7Rp00Yesoh+AkG/fv1M3jM1NZVTp06ZbX0sy8GDB4mPj39kWtsAzp49y9y5cyv9/VvK3t4eX19fbt26ZTLeRaFQMGDAAJydnbl06RJTpkwhKCiI9957z6Q7u3fv3iYtpdu2bWPlypVQ0uJVG9RqNUFBQXz00UfUqVOHF1980Si5fFj03VBvvvkmFy9epFGjRrRo0cKoTEZGhjROqDI/1iqrrDpg2IUV89FHAMR89JHJ/dw09+/z1/ffoysu5sbevRQajGs8tXz5/7t/m1JJ3LJl2Lq40NxMcmLO8uXLjbrL9ceyOu8F2LhxY+rVqydNxDLUu3dvGjZsSEpKCu+//z5BQUFMmTKF06dPS/cK/PXXX1EqlSbfqV7Dhg1p27Yte/fu5fjx4/Ts2bPCXfGxsbEkJydz69Yt4g0G1JdHfi/BkJAQtm/fjkKhMOl6rqyy6lBdDw/8Ro+mIDOTH195hXWenhwYPx6A9lOnYmvBcdDXoW2BgWg1GpKOHuXLhg3ZOWAAderWLXP79l5etBk3DoBD77zDOk9PdvTtS0FmJu3efhtn2XkrPj6ezMzMMnvDHiaRuJVh5syZRi0U+ham6qZvMercuXOZFaNJkyZVSiQcHBwsaq3Rt4AFBgaatDbNnDmTwMBAlEolCoWCnj17EhUVhaenJ3v27CEwMJDBgwebHRdmyHCMm1KpJDAwsELH13CMmz5Z008qkKtIq5n+qQj6E5ml6z0MvXr1KvUzVreePXtSXFzML7/8YnLRatGiBfPnz6d9+/bY2NhgZWWFv7+/Ueusm5sbL7zwgklClJ6ejpWVFX379uXZCt76obrZ29vzxhtvlHk7lYfBxsaGjh07EhYWZtKleezYMZKTk+nZs+dDf6h1WXXAEvaenrQaMQKFlRVN+/XDppSEwMrGhtahoYw4dgzPZ56Rh2uNj48PTz/9NKdOnTL5UeLh4cGcOXMIDAzEzs4OhUJB48aNGTFihPQMS1dXV8aMGWPynepZW1tLM5kbNGhgcWuxoYCAALy9vWncuDHNmjWThy1mZWWFt7c3Y8eOpXv37vJwpZVVh9pNmEC3RYuwdXGBku7Nf65fT/NyGhYsVd72ffv25Z/r1+Pg7Q2ArYsL3RYt4plJk8DgvFVQUMBPP/2Ei4uL1CJa28RD5gVBkOgfMq/Valm7di1Hjx5lypQp1XoyFyyTmJjIvHnzaNiwITNnznzoXTSiDvzv9kxLly6lcePGzJw5E0cLuuksVVBQwNatW9mxYwcjRowwGZbyd/B3qEMHDx5k7dq1hISEMGzYMHgEHjIvEjdBECT6xI2SJyQsXLiQ7Oxs3n//fWkAvVC6K1eusHDhwlJvd+Lg4MCcOXPKvQns3bt3WbJkCfn5+XzwwQdmB7g/DE96HdDpdGzfvp2oqCh69uzJhAkTqtzyqdFo+Pjjj6VbyDRu3Ji5c+eW2jL3uHuc69Dvv//O6tWr6dy5M5MmTZK++9pO3ERXqSDUotKeMmH4Km/2Z02pX78+c+bMwc/PD5eS7gbh4ahTpw4eHh5Mnz691pI2RB1AoVAwfPhwRo0ahVKprNYJKlZWVrRu3dpsF/nfyeNch6ytrXn22Wd58803q5ywVyfR4iYIgsSwxU0QBEEwVdstbiJxEwRBUlxcLF8kCIIgyNTmM2lF4iYIgiAIgvCYEIlbLdBqtfJFgvC3U53jgQRBEIT/EYlbLcjMzJQvEoS/FXt7+0dqMK8gCMLfRe110gqCIAiCIAgVIhI3QRAqRafTceDAAdavXy+6/wVBEB4Skbj9DcXExKBSqYiJiTH6f7VaTWhoKFeuXGH58uXS/wOcPHmSV199lY8++giNRiM9C1D/mjBhArt3767wBTo5OZk333yTHTt2yENl0ublcWPPHn4cPpzP3d3Z1LYtOcnJRmWSjh7l+65dWevqyjovL47OmoXW4ManuSkp/DxuHJ+7u7PW1ZUd/fqRcfWq0TZqkvwYxsTEyIvUqIIHD/jr++/Z1rs3a11d2TlgAIU5OfJipdPpuLp9O5H+/qx1dWWDry9nVq2iuLCwJKwjLS2Nn376ibVr11a4bgiCIAgVJxI3AY1Gw/bt27GxsSEkJMTso3VSU1PZuHGjxTeDTUxMZOnSpSQmJmJtbY2Liwvr1q1j586d8qJmnVu7ln0jR3Lrl1/QmblFxd24OPaOHEl6yd3HiwsLObdmDcdmz6ZYq6XgwQMOvPUW1374QVo/+dgxfho5kpzERNnW/oZ0Oo6GhfHLhAncO3VKHrXI9ehoDowfT25JwlyQmcmx2bM59/nnUDIdftiwYfTq1YvffvuN33//XbYFQRAEobqJxO0RkJKSwvz587l48aI89FD88ccfXL58mUGDBhk95N7BwYElS5awZcsW3nnnHaytrTl27BjZ2dlG65tTt25d6tevz3/+8x/u3bvHF198QXJyMn5+fhbd4LXxCy/gN3IkQ3/6CSfZneOLtVrOfvYZBZmZdJk7lwmpqQT99htOjRpx9YcfyLx2jZs//8ydw4dR9ujBuPh4Xr91ixZDh5L+118k/PST0fZqyrRp01Cr1YSEhMhDNU+hoPmQIbSbMIEB27ZhbSYZL0vBgwecWbECgBc3bGBCair91Wqs7e25vGkTeampUDJzdNSoUTRo0IA9e/aQU5EWPUEQBKHCROJWy86cOcMHH3zAtWvXyMzMlLqfJk6caNTNVlPdbZmZmezatYtmzZrRp08fFAqFvAhWVla0a9cOV1dXsrKyKCgokBepdp7PPEPvzz7D2ddXHiIvLY27cXG4tWqF3+jRFObm8tf335ObkkJ+ejoP4uO5fegQKBQ8++672Narx639+0mJjQUguZqOYXp6OsuWLePVV18lKCiI999/n2vXrsmLler+/fvS+vrvd/ny5VI8Ly+P9evXM2rUKFQqFVOmTCE2NtaixBfAt08fuoeHU9fDQx4qV9bNm6RdukSj3r1p1r8/uSkpXNu+Ha1Gw4OEBLJu3ZLKurm50aVLF27cuMFff/1ltB1BEASheonErZboB3Z/8sknODk58fHHH9O1a1eziVNN+u9//0tycjIhISHUq1dPHoaSu+mfO3eOjIwMlEolTk5O8iIm8vLyuHv3LtOnT8fLy4s333wTb29vLl++XOXPqLl7F839+9i5u3Pjxx/Z1KYNZ1aulMZepV+8SNbNm1jXrUvevXv88NJL/DxuHNm3bwOQk5RkNBauMjQaDZ9++ikxMTEUFhai0+m4fv06n3zyCcmysXjmFBQUsGbNGml9Oa1Wy1dffcW+ffvIz8+HkvGCy5cv5/Lly/Li1S4nKYnC7GxsHB059/nnfNu+PZc3bwZAq9GguXfPqHz79u2xsrKqUOIqCIIgVJxI3GpBQUEBGzZsYO3atbRt25ZFixbRuHFjKe7u7s6aNWtQq9Umry5duhhtqyq0Wi2JZYz3ys3NZdasWQQHB7Ny5UoAXnrpJYvuz6VUKgkLC0OpVKLVasnMzOStt95iyJAh8qIVVqzVoisqIvmPPzgyfToFWVm0festOkyfDkAde3uKtVq0Gg2/TJzI3ZMnqd+xIy+sWYO1vT3WdnZQxceVXLp0iUuXLvHcc88RGRnJ5s2b6dGjB6mpqSQkJMiLm9DpdBQWFmJjY0Pfvn1ZuXIlW7ZsYdq0aQAkJSVx4sQJnnrqKdauXcuWLVsICgoiLy+PP//8U765aqcrKgLg+q5d/DFvHgBd58+n+eDBoFBgZWNjVN7b2xtnZ2dulyTHgiAIQs2o2tVLqBEPq6vU2tqaoKAgnJyc+Oabb0hPT5cXAUChUKBUKpkyZUqFE0dvb2+++OILhg4dKg9VmoO3t9T959uvHyEnTvB8eDiFJWPvXFq0wLkkEa7XrBl9N29m2M8/U9fLC21eHvYNGmBdxQcEFxQUoNVqOX78OKGhoYwcOZJff/1VXqxUdnZ2vPXWWzRt2pSffvqJd955h7Fjx7J7926Ki4vJy8tDq9Vy9epV3n77bYKDg9m6dat8MzXGwdtbGhf39OuvM+rcOdpNmEBhTg42jo7Ye3rKVxEEQRAeApG41QJbW1tef/113n77bf78809mz57NLYMxQw+TUqmkT58+3Lp1i23bthmNn9JPTti6dSsrVqyge/fuVe7mrA52rq54tGmDwsqKZv37U69ZM5JjYvhryxYcfXxwa9UK75IEs0FAAMoePchLS+P0p5+CTkejwED5JiusTp06KBQKnnvuOTZs2FCpVtFGjRqxZMkSvv32W6ZOnYq1tTVbt27lxo0b0vafeuopVq1aZbR9lUol31SlFWu1HF+4kM/d3TmzahWUfP/OjRtTz9cXWxcXmg4YgL2nJ9d37+b2wYO4+/vj3KSJ0XZSU1PJzc2lkWwiiSAIglC9xCOvaoHhI6/OnDnDihUrKCwsZNKkSXTp0qXKyVFMTAzLli2TL4aSZGzOnDn8+OOPnDx5kjlz5tCgQQMWLVrErVu3eO+99+jYsSPLly+X4i1btpRvpsYl7NvHXjOzMZ0aNWLY/v3cP3WKfaNGmdwqpOv8+Tw7dSo5SUnsLplFaqhhr170+eYbbEvG812/fp2PP/6YevXqMWvWLOrXr29UvjTp6eksWLDAJOH28vLi448/xt7eno8//phLJbcrMRQSEsKAAQPMxt3c3Jg7dy4NGjRg2bJlnJLdykP//VnynZxavpyYjz6SL8ane3f6b9mCjaMjOcnJ/PDii2Tfvm20HODMqlUcmz3baF2FlRUvff31/7pMDezevZtNmzYxc+ZMOnToIB55JQiCUENEi1sta9++PYsXL6ZFixa4uLhUOWmrjHr16jF06FB0Oh0bN24kteRWD48y3759+ef69Th4ewNg6+JCt0WLeGbSJFAocFQq6bN5M97dukFJwtFi2DD+uW6dlLQBZGdnk5uby61btyp0HzI3NzfCwsLo2LEjNrLxXpVhZWVFy5YtmT59Oo0bN8bW1papU6fywgsvYGdnJy9ebew9PWk1YgQKKyua9uuHjYODFGs3YQLdFi3C1sUFSrpP/7l+Pc0HDTLYwv+S2AMHDtC0aVNatWplFBMEQRCql2hxqwXiIfOPDp1Ox7p16/j5559544036Nevn7yIUAadTse3337Ljz/+yLvvvkvXrl1BPGReEAShxogWN+GJlpGRwe3bt/Hx8aFTp07ysFAGnU7Hjh072L17NwMHDrR4bJ8gCIJQeSJxE55Yy5cvZ8qUKTRo0IB58+ZZPL5N+H/s7Ox48cUXGTFiRK108wuCIDxpRFdpLXjw4IF8kSD8rdStW1d0lQqCINQAkbgJgiAIgiA8JkRXqSAIgiAIwmNCtLgJglCuvLw8+SJBEARBpm4Vn8pjCZG4CYJQLnELG0EQhLLZ2dk9lMRNdJUKgiAIgiA8JkTiVguys7MJDAxk7Nix8pAkOjoahUJBdHS0PCRUg+zsbIYOHUpcXBwAY8eOLfVYjx07lsDAQLJLHmJvKCkpCV9fX8LDwwkPD0ehUJh9hYeHg8F3r/+33NixY8usF4b0721uv/X1p7T3qarU1FSWLFnC9evX5SGhBqWnpxMeHs6VK1fkoYfuSa8DOp2OPXv2EBkZiVarlYcFCzyudejUqVP8f//f/0dOTo489FCIxK0WnT592uyFNSkpiYiICBwMHj8kVC8nJyfmzJlDz549USgUJCQk0Lt3b3kxAKZOncqJEyc4ePCgPERkZCTNmjVj8uTJAPTq1YusrCx0Op30io2NZcGCBWYTrJqQlJTElClT5IurTU5ODp9++ikJCQnyEBcuXGDWrFkEBwcTHBxMREQEWVlZpKWlMXHiRGbPno1GowEgISGBN954g4kTJ5KWlgaAWq1GpVIZvQzXqSnp6em8++67jB492uj5sXv37kWlUrF7926TfRs3bhwbN24kLy8PjUbD7NmzjT6LflloaKhFidaVK1cIDQ0t8/NrNBpu377N4sWLuXz5snwTFtFqtSxdupS5c+eSn58vD1vEbB3Q6ci6eZPjixYR6e/PWldXTi1fbrhauRL27WOtq6vRa72PD/dOn5YXLdPOnTsJCQlhw4YNmBsNlJ6ezrJly3j11VdRqVRG35ulfv/9dzZt2kRRUZHR8ry8PDZu3Mi4ceNQqVSMHz+e48ePm92PJ5nZOsT/6tHV7dulOrTB15czq1ZRXFhoXK4UBQ8e8Nf337Otd2/Wurqyc8AACg0TrPK2X05cp9ORlZXFiRMnCA8Pr5XkTSRutahnz55cuHDBpCUnNjaWdu3a4enpabRcqF6dOnUiJycHnU7HoUOHcHJykheBknJz584lIiLC6LtKSkris88+Y8aMGaWuS8n6KpUKtVotD9WIsLAw7t+/T+PGjeWhKtNqtURGRnLjxg2mTZtG8+bNpdjRo0dZuHAhV65cobi4mOLiYo4dO8aFCxeMtkHJye/nn39+ZMbOubm58dJLL5GXl8fPP/+MVquloKCA2NhYPDw8CAgIkK9CVlYW0dHRfPXVVw+txUWpVEpJ+TfffFOhi4ZWq2X16tUcPXoUW1tbXF1d+eOPP1i2bFmFEuPS6kBOcjI7Bwzg5L//TW5ysny1R4ZWq2XDhg3ExMRQaGEyIHft2jXWr19P165dGTNmDNbW1lCSjCxevJjo6GiysrKg5Oksu3btEhN8DJRWhwCuR0dzYPx4qQ4VZGZybPZszn3+ucEWSqHTcTQsjF8mTODeqVPyKFiw/fLiCoWCHj16oFKpuHjxInv27HnoSblI3GpRo0aNqFevntEv5+zsbL788ktefvllo7KUdKMZdr85OjpKXX3h4eFSd56+C03/b333XHnrGb6PfllcXByOjo4mZfTbNNyWvnvOXBchJe8ljxuWMbcveua6BeXLyupmjIuLo0mTJsTFxRn9v150dLTRZ5ELDQ0lPj7eqNVN39pWWktdbYiOjiYyMpIvvvjC6GQoJ69Lhq+yWgavXr3K0aNHefnll/Hz85OW5+TkEB0djVarZejQoWzatImoqCimTJmCo6Oj0TYAbt68ybFjx+SLAbC2tubDDz9k3bp1eHl5ycPliomJQaVSERMTIw+VqXv37jRs2JCTJ09y584dUlJSiI+Pp2PHjjRo0EAq995777F161bmz5+Ps7MzJ0+eJDU11WhbVfH888+jVqul16JFi7C3t5fifn5+vPLKK1y+fJnY2FijdctSXFyMv78/W7du5ffffycmJga1Wk3Hjh2pU6eOvHipSqsDjt7eNBs4kH+uW0fnDz80Wqei+kVF8XZGBm9nZDA+KQmvZ5+VFynTkCFDiIqK4vXXX0che6JHYWEhaWlpeHh4sHLlStRqNWvWrMHd3d2oXGm0Wi07duzA2toalUolJW2U/Oi+ePEiDRo04JNPPmHr1q2sWrWKjh07YmUlLrd6pdWhggcPOLNiBQAvbtjAhNRU+qvVWNvbc3nTJvLK+ztTKGg+ZAjtJkxgwLZtWBv83WDB9h/cuFFmXP/+CoWCQYMG0bZtW/bv309KSorR+9Q0UZNKIU92FApFqUlFVbz88susKKkogJTE+fv7G5T6X1KTkJAgdcNlZWXRuXNnZsyYYbJPkZGRBAYGcujQIQAGDhwIJS0EOp2OuXPnMnz4cJKSkozWw+DCb8jDw4P09HSjBPPgwYMcPnxY+ndcXByTJ08mNjZW6iJcunQpCxYsMEqGDLsSs7Ky6NWrlxSrLZZ0Lfr4+DBp0iSp1S07O5u9e/eW29qGwTFVqVTyULXKzs4mIiKC0NBQBg8eLA8b2bhxo1F3ruFr0KBB8uKSI0eOYGNjQ48ePYwuiDdu3ODmzZu0aNGCYcOGUbduXaytrQkMDKRt27ZG2yirtS0tLQ1bW9tyj2lNcHNzo0+fPmRnZ3P06FHOnDlDQUEBvXr1Mrn4KxQKmjdvTsOGDcnPzzf5G6yK3377DZVKRXBwMAsWLOD27dvyIgQEBODu7s6RI0coKCiQh2tUaXUAhYLuS5bQMjgYKxsbw1UeGn3Srn8tN+iq1XfXjxkzhsuXL5Oamso777xT4dbwpKQkzp8/T0BAAD4+PtJyrVYr/RgJDg6mefPmKBQKvL29GT58OHZ2dmBmH/Xd4ZmZmcyfP59x48YZdR9eunSJ0aNHExERwZYtW0y63tVqtcmyytIfI/1+BQUFMXHiRI4cOYJOp5Pihse1Mj+USqtDWTdvknbpEo1696ZZ//7kpqRwbft2tBoNDxISyLp1y2g75vj26UP38HDqenjIQ+Vu/25cXJlxw/e3tbUlMDCQtLQ0TpXSuldTROJWik2bNhEREWF0QYuIiGDTpk3yolUSEBBAQkKClETt37+fbt26mVy4Zs6cadSd5+TkRL9+/YzKUHJS+e6775g6dSqUJILXr18nIiJCWnfmzJkkJCQYnXT0686ZM4chQ4YYLQcYNGgQ+/fvl/6tVqsZMmQIHiV/HJ06deLmzZtGD2p/8cUXpfijLCwsjA4dOpS7r/pxbKtXr5Za3uStbYcPH8bZ2dko4R88eDC7du0ySojCwsKMyuhf8qS5IlavXk18fDxLly6Vh6qFRqMhISEBpVJp8lzX7OxsCgoK8Pb2NtvCZighIYGjR4/SqVMnk2Oem5tr9O+HrVu3bjRq1Ih9+/axc+dOmjZtiq+vr7wYOp2O69evc+fOHdzd3aWWwXv37vHWW2+hUqkYM2aM0Xi5iiouLubs2bMsW7bMpEXP09OTZs2akZiYaHHSaGVlxaVLlwgKCuIf//gHXbp0QaVScfLkSZNxWqUpqw5Up70hIax1dWVTu3ZcUavRWbh/D8OtW7d48OAB7dq1M0o6CgsLyc7Oxt7eHqVSabSOJfSJQHZ2NidOnJCW67+f3r17Y2VlRUFBAYmJieh0OoqLi2s0cdfpdNy7d4+vv/7a7A+IyiirDuUkJVGYnY2NoyPnPv+cb9u35/LmzQBoNRo09+4Zla+o8rafee1amXH5+/v5+eHq6lrp8aaVJRK3Mhg24Zr7d3Xw8fHB19eX2NhYsrOzOXbsGC+++KK8mMSwOzIsLMwodvjwYZ599lm+/PJLKYFKTExEoVBYdCKJjIzk1VdfpVu3bvIQXbp0Ye/evSQlJZGUlCQNLJfTd18qFAoCAgJMLjjlkSc+8q7PwYMHSzGlUsnNmzeN4pGRkUaJkHx9ubi4ODIzM5k2bZo8ZMLJyYkZM2awYMECJk+eTL9+/UwSbHOTE8y1Yi1dutSkjE6nIzQ01KicpeLi4liwYAGrVq0ySciri0ajIS0tDS8vL6Ouu4rat28fVlZW9OnTx6j7KD8/n7S0NBwdHU0SuvIYDuxftmwZAMuWLUOlUlWoNUI/1k2j0ZCenk7Xrl1NPuuyZcsICgpi3rx5ZGdn06tXL+rVq2dUpir0XaUbNmygffv23Llzx+TCYG1tTfPmzcnJybH4b8za2prJkyfTvXt3CgoKyMjIoGvXrrz33nsmn7E01VUHLJV96xYHxo/n2o4d8pBZXbp0Qa1Ws2TJEpPJXe7u7qxZs0bqgvfy8mLdunXSpBNLJSYm4uDgUKlufErOkZR0ucuHAzzzzDMolUpOnz4t1cGYmBj8/f1p27YtXl5eFBUVsXLlSoKCgggODmb79u0GW68a/THSd9Nv2LABPz8/mjRpYjTmWt8qbPj3Zqmy6pA+Qb++axd/zJsHQNf582k+eDAoFFjZ2FCYk8POAQOMJrCYTEAoRXnbpyQRLy0ub0l2cXGhfv363L9/v0LjRKtKJG6luHPnjjS4tKbpm+r1J2dzCaJ+fFhISIjUHSlvWenVqxc//vgjPXv2LHOckjmxsbF89913pSYOSqVSSjBjY2Px9fU1Sgb1Y+GUSiWTJk1CVzKbsqIXYMPEJzExkUOHDhmNk9u1a5eU5CQmJtKkSROj9UNDQ6V4VlYWCQkJZmfuUtJ1PGPGDN544w2cnZ3lYbN69+5N586dUSgUpR6rh03/OVQqlUmCWJrKjnGjpCVIJxuMa2tri7W1NcnJyWUOmI+PjycmJoZu3bqZtGTl5uaSmpqKu7u7yQn9YerWrRtKpbLUSQl6Hh4ejB071uiYGyYD33zzjcmQh4qoV68erVu3hpJkobpYW1sTFhbGggULpO67ijJXB6qDb9++0ti2t+7do3vJOe52ybCPR4X+HGOoTp062NnZodFoyvy+7t69i4ODg9kxdW5ubnTp0oUbN26QkJDA2bNnSU5OJjAwEFtbW7p168awYcOk85WNjU21/60YduW+/vrrxMfH88wzz1RoHKQlzNUhB29vaVza06+/zqhz52g3YQKFOTnYODpiX8UJe+Vt36V58zLjVX3/6iISt1IMHTqUnfpR/TMAAGSdSURBVDt3Gi1bvXo1DRs2NFpWHfTdpV9//bXZblL9eKqlS5eSk5MjtaaZm60XEBBgNANSqVRKSU5pMjIymDZtGgsXLiyztUafYJr7hbp//346d+5MVlYWM2fOhJKLjaWtAeb4+PgQGBho9nNaQt+dvHfvXrNJ+PLly/H19bU42TE0adKkMo/VwxQeHs6JEyek7nFLVGaMm729Pe7u7qSmpprMkGvSpAlubm5cu3aNH374gby8PLRaLQcPHuTs2bNSufz8fBwdHXnppZdQGHQz6XQ6zp49S2pqKt7e3hW+GLVs2ZLIyEjUajXvvfcelLRoqNVqIiMjadmypXwVs3Q6HXfu3CE9Pd1kUoKefruff/45AwcONBqcXp3S09M5c+YMCoWCpk2bGsV0Oh23b9+uVOtkVZRVByyVk5zMzr59+bpFi1Jn/gEUFxZKg8EdarBbtqKUSiUajYb79+8bLbe1taV169bodDq2bNnC9evX0el0JCcno1ar0Wg03LlzhzNnzuDs7FzqXQO6d++OjY0Nf/zxB8ePH8fX15cOHTpAyXuMHDmSr776CrVazXfffWd2aMuNGzeYMmUK06dP5+7du/JwmfStlmq1mqioKAYOHMjmzZs5cOCAVMZwAo3+781SZdUh58aNqefri62LC00HDMDe05Pru3dz++BB3P39cW7SBBtHR4b8+KOU4L+dkcGQH3/EppwhGliw/QadOpUZd5Y1FOTm5nL//n08PT0rfM6qCpG4laJTp05kZmYatURQMtaruul/PW3YsKHMblLDBCY8PLzU8VCGMyD9/Pxo3ry50QQI+azKM2fO0L59+3I/W0BAAIcOHeLQoUNmWyLi4+OlBCkuLo6QkBB5EXx9fU0S09IkJSVx6NAh2rRpIw9ZRJ/w9uvXz6RFLTU1lVOnTpm0Wpbn4MGDxMfHPzKtbQBnz55l7ty5RuMLa4K9vT2+vr7cunXLZLyLh4eHNBN6x44djB49mpCQEFavXm3ShdC7d2+TltJt27axcuVKKGnxqg1qtZqgoCA++ugj6tSpw4svvmiUXD4s+m6oN998k4sXL9KoUSNatGhhVCYjI0MaJ2Tp31N1KKsOGHZhxXz0EQAxH31kcj+3+6dPk/THH+SlpnLbYIITwKnly//f/duUSuKWLcPWxYXmZpITc5YvX45KpWLWrFnk5uZKx7I67wXYuHFj6tWrJ/V8GOrduzcNGzYkJSWF999/n6CgIKZMmcLp06eJjY3l3XffJSUlhWeeeQZXV1ejdfUaNmxI27Zt2bt3L8ePH6dnz54V7oqPjY0lOTmZW7duER8fLw+XSn4vwZCQELZv345CoTDpeq6ssupQXQ8P/EaPpiAzkx9feYV1np4cGD8egPZTp2JrwXHQ16FtgYFoNRqSjh7ly4YN2TlgAHXq1i1z+85Nm5YZl79/fHw8mZmZZnvJapJI3Mowc+ZMo5YIfUtSddO3DHXu3NlsBXBycuK7777j0KFDUhK5d+9evv32W06cOGEy/kU/A3LKlClkZWWxe/duEhISpHV79uzJDz/8IF3oHRwcLGqt0beABQYGmrQ2zZw5k8DAQJRKpfQeUVFReHp68sMPP+Dr60tYWJhJS52c4Rg3pVJJYGBghY674Rg3fbKmn1QgV5FWM8Ou6u3bt1u83sPQq1evUj9jdevZsyfFxcX88ssvJhetIUOGMHXqVKkO2NnZ0bdvX9q3by+VcXNz44UXXjBJiNLT07GysqJv3748W8FbP1Q3e3t73njjjTJvp/Iw2NjY0LFjR8LCwnBzczOKHTt2jOTkZHr27Imtra1RrKaVVQcs4fnss/h07UpdDw8alTGr3MrGhtahoYw4dgzPZ56Rh2uNj48PTz/9NKdOnTIZY+vh4cGcOXMIDAzEzs4OhUJB48aNGTFiBLa2tigUCvz9/VGpVCZ/A3rW1tbSTOYGDRrQpUsXeZFyBQQE4O3tTePGjWnWrJk8bDErKyu8vb0ZO3Ys3bt3l4crraw61G7CBLotWoStiwuUdG/+c/16mpfTsGCp8rZfXlyvoKCAn376CRcXF6lF9GERD5kXBKFc+lt3aLVa1q5dy9GjR5kyZUq1nswFyyQmJjJv3jwaNmzIzJkzH2oXDaIOQMls/aVLl9K4cWNmzpxZ7kzqiigoKGDr1q3s2LGDESNGlPtj93H0d6hDBw8eZO3atYSEhDBs2DB4iA+ZF4mbIAjlMrzn2t27d1m4cCHZ2dm8//770gB6oXT68UKl8ff358MPPyw3Cbt79y5LliwhPz+fDz74gEaNGsmLPBRPeh3Q6XRs376dqKgoevbsyYQJE6rc8qnRaPj444+lW8g0btyYuXPnmrS2/l08znXo999/Z/Xq1XTu3JlJkyZJ3/3DStxEV6kgPILKmvWpUCjw9fU1ewPlh6F+/frMmTMHPz8/XEq6E4SHo06dOnh4eDB9+vRaS9oQdQCFQsHw4cMZNWoUSqWyWieoWFlZ0bp1a7Nd5H8nj3Mdsra25tlnn+XNN9+scsJeGaLFTRCEcpl7yoEgCILw/zysFjeRuAmCUC5xmhAEQShfaZNOqpNI3ARBEARBEB4TInGrBYWFhfJFgiAIwt+MjewRSYJQHUTiVgvEeCFBEIS/tzp16jzUmyMLTw4xq1QQBEEQBOExIRI3QRAqRafTceDAAdavX49Wq5WHHyqdTseePXuIjIys9X0pzfXr11myZEmVnt/7uHmU6khNSU9PJzw8nCtXrshDglAjROL2NxQTE4NKpSImJsbo/9VqNaGhoVy5coXly5dL/w9w8uRJXn31VT766CM0Go30zD/9a8KECezevbvCJ9/k5GTefPNNduzYIQ+VSZuXx409e/hx+HA+d3dnU9u25CQnG5VJOnqU77t2Za2rK+u8vDg6axba3FwpnpuSws/jxvG5uztrXV3Z0a8fGVevGm2jJsmPYUxMjLxIjSp48IC/vv+ebb17s9bVlZ0DBlCYkyMvVjqdjqvbtxPp789aV1c2+PpyZtUqikvGaOp0OtLS0vjpp59Yu3ZtheuGXmXriKHff/+dTZs2UVRUJC2zpA49LHfv3uU///kP6enpRss1Gg2zZ882qicqlQq1Wk1aWhoTJ06UlgUFBTF16lROnjwJIMX1z+HU6XSsX7+eoKAgfvjhB6P3Kc/58+cZPXo0sbGx8lCZEvbtk54tKj1j1MeHe6dPQzXWEb3k5GQmTJhARESERduypA6Ud54oL67RaLh9+zaLFy82efygINQEkbgJaDQatm/fjo2NDSEhIWbv3p6amsrGjRuJjo6Wh8xKTExk6dKlJCYmYm1tjYuLC+vWrWPnzp3yomadW7uWfSNHcuuXX9AVF8vD3I2LY+/IkaSX3GW8uLCQc2vWcGz2bIq1WgoePODAW29x7YcfpPWTjx3jp5EjyUlMlG3tb0in42hYGL9MmMC9U6fkUYtcj47mwPjx5JZc6AoyMzk2ezbnPv8cSm4UOmzYMHr16sVvv/3G77//LttC2apaR/SuXbvG+vXr6dq1K2PGjJFuhlpeHXpYNBoNn332GcXFxcyYMQMPDw95EYvodDoSExNZs2YNt27dkoe5evUqR44cwc/Pj5dfflkeNuv8+fMsX76cBw8e4OTkRGFhIREREdX2I6OqdUQuNjaWzMxMevXqZdFNb8urA+WdJ8qLAyiVSqZMmQLAN998Q05FfhwJQiWIxO0RkJKSwvz587l48aI89FD88ccfXL58mUGDBhk95N7BwYElS5awZcsW3nnnHaytrTl27BjZ2dlG65tTt25d6tevz3/+8x/u3bvHF198QXJyMn5+fhbdE6zxCy/gN3IkQ3/6CSfZHeKLtVrOfvYZBZmZdJk7lwmpqQT99htOjRpx9YcfyLx2jZs//8ydw4dR9ujBuPh4Xr91ixZDh5L+118k/PST0fZqyrRp01Cr1YSEhMhDNU+hoPmQIbSbMIEB27ZhbSYZL0vBgwecWbECgBc3bGBCair91Wqs7e25vGkTeSXdfdbW1owaNYoGDRqwZ8+eCl20qlpHKHnm4Y4dO7C2tkalUhldzMuqQxWhbxXTt2xV1PHjx7l48SIqlYoGDRrIwwA0atSIL7/8kvfee08ewt/fn2+++YZNmzbRoUMH8vPzycvLMypTWFgotbKNHj3a4mdn1qtXD4AVK1aQmprKqlWrqFOnDkqlUl60TP2iong7I4O3MzIYn5SE17PPSrGq1BFDOTk5/PbbbzRt2tTixyOVVwfKO0+UF9fz8/PjlVde4fLlyxVutRSEihKJWy07c+YMH3zwAdeuXSMzM1PqWjDsIqnJ7rbMzEx27dpFs2bN6NOnj9mbB1pZWdGuXTtcXV3JysqioKBAXqTaeT7zDL0/+wxnX195iLy0NO7GxeHWqhV+o0dTmJvLX99/T25KCvnp6TyIj+f2oUOgUPDsu+9iW68et/bvJ6XkhJpcTccwPT2dZcuW8eqrrxIUFMT777/PtWvX5MVKdf/+fWl9/fe7fPlyKZ6Xl8f69esZNWoUKpWKKVOmEBsba3FS49unD93Dw6lbiRaerJs3Sbt0iUa9e9Osf39yU1K4tn07Wo2GBwkJZBm0+Li5udGlSxdu3LjBX3/9ZbSdmpaUlMT58+cJCAjAx8fHKFZWHXpYCgoKOHLkCN7e3jxrkMwYxrOzs3Fycir30TmFhYXk5uZib2+Ps7OzUezPP//k1KlTvPzyy0Y/vh4V1VFHLl68yI0bN3j++ectTkzLqwPlnSfKixsKCAjA3d2dI0eOPJRzpPDkEolbLdEP2v3kk09wcnLi448/pmvXrmYTp5r03//+l+TkZEJCQqRf33LFxcWcO3eOjIwMlEqlRVPc8/LyuHv3LtOnT8fLy4s333wTb29vLl++XOXPqLl7F839+9i5u3Pjxx/Z1KYNZ1aulMZepV+8SNbNm1jXrUvevXv88NJL/DxuHNm3bwOQk5RkNBauMjQaDZ9++ikxMTEUFhai0+m4fv06n3zyCckWjKMqKChgzZo10vpyWq2Wr776in379pGfnw8l43uWL1/+UMbR5CQlUZidjY2jI+c+/5xv27fn8ubNAGg1GjT37hmVb9++PVZWVhVKXKujjty6dYsHDx7Qrl07i9d5mLKysrh9+za+vr64urrKwxQVFUnfb2kuXbrEmDFjGDduHNevXyc0NBRvb28pnpubi1qtxtvbmwEDBlToODx48ACAqVOn4uHhwZQpUygqKiKxgsMJ9oaEsNbVlU3t2nFFrUZnMNZQrzJ1RE+r1XL48GFcXFwICAiQhytFm5tb5nki+/ZtHsTHlxqXn0c8PT1p1qwZiYmJFvVKCEJlicStFhQUFLBhwwbWrl1L27ZtWbRoEY0bN5bi7u7urFmzBrVabfLq0qWL0baqQqvVlnmCzs3NZdasWQQHB7Ny5UoAXnrppXJbBigZ9xEWFoZSqUSr1ZKZmclbb73FkCFD5EUrrFirRVdURPIff3Bk+nQKsrJo+9ZbdJg+HYA69vYUa7VoNRp+mTiRuydPUr9jR15YswZre3us7ezAqmpV/9KlS1y6dInnnnuOyMhINm/eTI8ePUhNTSUhIUFe3IROp6OwsBAbGxv69u3LypUr2bJlC9OmTYOSlqQTJ07w1FNPsXbtWrZs2UJQUBB5eXn8+eef8s1VO/2F9/quXfwxbx4AXefPp/ngwaBQYCW7sai3tzfOzs7cLrmoWaI66khiYiIODg54eXnJQ1Wmn1wyZswY6fseM2aMSctoWdLS0tBoNDRp0sRsQpWRkUFubi6enp5mx5bKFRYWsmHDBq5fvy4ty8rKIiMjw6icpZ5++mmmTZtGvXr1yM7OxsbGhhkzZlT6PJN96xYHxo/nmpmJJpWpI3p37tzhzz//pEePHqV2N1eUTqcr8zxRx86O4qKiUuPy84i1tTXNmzcnJyfniZo5LDx8Vbt6CTXiYXWVWltbExQUhJOTE998843JjDc9hUIhDcCt6And29ubL774gqFDh8pDlebg7S11//n260fIiRM8Hx5OYcmvXJcWLXAuSYTrNWtG382bGfbzz9T18kKbl4d9gwZYV/FBwAUFBWi1Wo4fP05oaCgjR47k119/lRcrlZ2dHW+99RZNmzblp59+4p133mHs2LHs3r2b4uJi8vLy0Gq1XL16lbfffpvg4GC2bt0q30yNcfD2lsbFPf3664w6d452EyZQmJODjaMj9p6e8lUqrap1RKfTWdx9XFuKzQyMp+RvPTc3t8wxZfoxblFRUYwePZrMzEz2798vxRs0aMArr7zC7du32bZtW6WOxdNPP82mTZsq3Jrl27evNLbtrXv36L50Kei7IKuJTqdj3759APTo0cNsAlwZNo6OZZ4nHJVK6pV0sZqLV8d5RBAqQyRutcDW1pbXX3+dt99+mz///JPZs2ebnSX2MCiVSvr06cOtW7dMTvr6yQlbt25lxYoVdO/evdpOmlVh5+qKR5s2KKysaNa/P/WaNSM5Joa/tmzB0ccHt1at8C5JMBsEBKDs0YO8tDROf/op6HQ0CgyUb7LC6tSpg0Kh4LnnnmPDhg2VahVt1KgRS5Ys4dtvv2Xq1KlYW1uzdetWbty4IW3/qaeeYtWqVUbbV6lU8k1VWrFWy/GFC/nc3Z0zq1ZByffv3Lgx9Xx9sXVxoemAAdh7enJ9925uHzyIu78/zk2aGG0nNTWV3NxcGpkZAF6TlEolGo2G+/fvy0NVpp9c8s033+Dv7y8lUGq1WmoZLY+7uzv29vbcvn3bJKEqKCjg6NGjADRv3twoVhr5pAS9bt264efnx4EDBzhVyVnEVVVcWChNWnGoX18ernQdSUlJ4eTJk7Rt25aGDRvKw1VS3nmivLghnU7H7du3cXR0rPTMYUGwhEjcaolCoeCf//wn77//PtnZ2Xz44Yf88ccf6HS6ausqXbZsGcuWLZP+PyoqSl4EgJdffpnmzZvX6klfTn9/qG/8/cm+fZvs27f5xt+fTW3bkp+RQZtx4wA49M47rPP0ZEffvhRkZtLu7bdxbtIE3z59cGvViitbt7KhcWM2tmxJ4q+/0rBXL5q89JL0PtevX+eNN95g+vTp3L1712APytaiRQsaNWrE8ePHef3116UW0YkTJ0rdY/r7c+mP+7Jly1CV3KPLMD5y5EhWrFhBVlYWtra22NjY0KhRI1q1asXVq1eZMmWKtH3De++V59Ty5ax1dWVbYCBajYako0f5smFDo/u5ae7f56/vv0dXXMyNvXspLBmzU9fDA7/RoynIzOTHV15hnacnB8aPB6D91KnYysZD/vXXXxQWFtKiRQuj5TWtcePG1KtXz+ykjbLqkPxeXjXF2dmZRo0aceXKFdLS0qTl2dnZzJ49m19//RWlUlnmcdN30YaEhKBWq7GxsTFpGbO3tyckJIQ6deqU2Xpe3fR1bK2rK+uVSuKWLcPWxYXmZrq7K1tHKnoLEEPl1YHyzhPlxQ1lZGSQkJBg8ThgQagskbjVsvbt27N48WJatGiBi4tLrbRo1atXj6FDh6LT6di4ceNjMT7Dt29f/rl+PQ4lg7RtXVzotmgRz0yaBAoFjkolfTZvxrtbNwAUVla0GDaMf65bZ5R0ZGdnk5uby61btyp0jyk3NzfCwsLo2LFjtTxI2srKipYtWzJ9+nQaN26Mra0tU6dO5YUXXsDOzk5evNrYe3rSasQIFFZWNO3XDxsHBynWbsIEui1ahK2LC5R0n/5z/XqaDxpksIX/za49cOAATZs2pVWrVkaxmubj48PTTz/NqVOnuHnzpjxc62xtbenZsyf379/n2LFj0vKCggKysrJwcnJizJgxuLm5Ga1njpWVFb6+voSFhdGhQwd5GH9/f7p06cKtW7eIioqy6Aa11cnKxobWoaGMOHYMz2eeMYpVto5U5hYgFVHeeaK8uKFjx46RnJxMz549LRoHLAiVJR4yXwvEQ+YfHTqdjnXr1vHzzz/zxhtv0K9fP3kRoQw6nY5vv/2WH3/8kXfffZeuXbvKi9S4y5cvs3TpUho3bszMmTMtvlXEw5KTk0N4eDi3bt0iLCzskbxdR02qSh2JjY3l3//+N6NHj2bgwIHy8CMjMTGRefPm0bBhQ2bOnIm9vb14yLxQY0SLm/BEy8jI4Pbt2/j4+NCpUyd5WCiDTqdjx44d7N69m4EDB1aoG786tWrVioEDB3Lx4kU2bNjwyN1Dy9HRkVGjRgGwatWqMmdy/91UpY7UxC1AasLdu3dZtmwZNjY2jB8/3qLZwYJQFaLFrRaIFrdHw/Llyzlx4gTdunUjJCQEz2qcKfkk0Ol07N27l8TERF577bUKjz+qTjqdjp07d1JUVMSwYcOwquLtXmrClStX2LlzJxMmTDC5ge7f1aNUR2pKamoqa9asYcSIEbRs2VJaLlrchJoiErdakJWVJV8kCIIg/I0oFAqRuAk1QiRugiAIgiAIj4lHrz9BEARBEARBMEu0uAmCAGXc3FUQ9KysrMStLgShlonETRAEKHk2rbkH3guCnr29vUjcBKGWia5SQRAEQRCEx4RI3GpBdnY2gYGBjB07Vh6SREdHo1AoiI6OloeECsjOzmbo0KHExcUBMHbs2FKP6dixYwkMDCS75GH1hpKSkvD19SU8PJzw8HAUCoXZV3h4OBh8x/p/y40dO7bM79+Q/r3l7+Xo6Ch9rpqg1WqJjIxkz549Jo+TEv6+dDodBw4cYP369Q/96QuCIJRPJG616PTp02Yv7ElJSUREROBg8PghoXKcnJyYM2cOPXv2RKFQkJCQQO/eveXFAJg6dSonTpzg4MGD8hCRkZE0a9aMyZMnA9CrVy+ysrLQ6XTSKzY2lgULFpSaGFbVrl27jN5v7tz/v717D4uq3Bs+/h0EBQE5qjCi4yEVTS0TQ8KEymOmpYGZGzG3lsdt9paX7MdDZrbT7eP7mGkeMrcRme3Gc4qmFrRFJUHTSkESxAPgAZDj4MzAvH+8zHpmFjMww8FD3Z/rmuvS9bvXmmEOa37zu+973YsZNGhQkyRvxuuiHTx4kKqqKqhetujNN98kKiqKtLQ0qW18fDwRERF8++23qNVqaV3ViIgIJk+ezOeff05FRYW0PqtxPVdA2mbrGqzy4xtvarVa3rTJGAwGkpKSmDNnDpGRkbz66qts3boVrVZLcnJyjcdz4MABIiMjWb16NZj8zY31N2zbtq3Ga1KbyooKfl6zhi0qFRs8PdnWty9XDh+G6uTcYDBQUFDAoUOH2LBhg0jeBOEBIxK3+2jQoEGcP3++RoUnJSWF3r17iwvCNpJ+/fpRVlaGwWAgISHB6rWV+vXrx+LFi1m1apXZa5Kbm8snn3zC22+/bXVfqvdvyBewvaKjo/H19W2SK/EnJyejVqsZM2YMI0eORKFQ4OXlxZAhQ6ioqODw4cPo9Xq0Wi0pKSn4+PhYvLp9SUkJ+/bt41//+tcfIgEwGAzs3LmT1atXk5OTg8FgQKfT8f3335OdnS1vTmFhIYcPH26yimVhYSHJycl07dqVzp07y8M1VOn1nFyyhJOLF6OtvhB4cVYW30VHc+vsWaiegDBmzBjCwsI4duyYXWv4CoLQ9ETidh8FBATQqlUr0tPTpW2lpaV89tlnDB061KytvGtN3t26YsWKGt18ptssxU27BlNTU3F1da3Rxng/pt1yxm5cS12E1uIKhaLWx2pk7BY0rVrJt8mfC1Opqal06NCB1NRUs38b7du3r9YuxujoaLKyssyqbsZqm7VK3YPK2utg+lpYUlZWxu7du2nfvj3Dhg1DoVBIsdDQUNq1a8fp06e5fv06N27cICsriyeeeIK2bdtK7ebNm8c333zDe++9h7u7O6dPnyY/P1+KN9S8efNQq9XSLSIiQt6kSdy4cYPvvvsOR0dHpk6dyvbt24mLi2P8+PG0aNFC3pwTJ05w7do1+Wao/vx/9tlnzJs3Tx6y2blz58jLyyM8PNymSQMOjo50nzCBHtHRTMrI4PW8PB6dOhW9RsOtM2ekdo6OjvzlL3+hbdu2HDhwgLKyMrPjCIJw/4jEzQpjwmL6ZWct2WiIoUOHsmbNGun/xiQuMDDQpFVN69atIzExUb7ZZvv27SM2NtZsm4+PD4WFhWaJ5A8//GB2P6mpqcyaNYuUlBSpy2758uUsXbrULBnq0KGDVJEwGAxER0dLsfslNzeX2bNnyzeb8ff3Z+bMmVLVrbS0lPj4+DqrbZg8p/cqiYiNjSU8PJxRo0bJQwCMGjXKrGvV9Pb555/Lm0suXrzI5cuXGTRoEK1atTKLeXl5MWzYMEpLS0lKSuLs2bNotVrCwsLMEjyqrxzfuXNn2rVrx927dxv1s7Ny5UoiIiKYOHGi1BV7L6SlpZGfn09QUBCDBw/G0dERZ2dnnn/+eTp06GDW1lq1TavVUlpaipubm03JljVarZaEhAT8/Pzo06ePPGyVb58+hK1Zg0vr1jRzdsYtIAAAJ1dXs3ZeXl4EBwdz+fJlLl68aBYTBOH+EYmbFXFxcaxatcrsy27VqlXExcXJmzZIUFAQ2dnZ5ObmAnDkyBFCQkJqTRJSU1P56quvCAsLk4dskpuby6JFi3jxxRflIUaNGsWRI0ek/6vVal588UV8fHygujvwypUrZguyDx48WIo/yGJiYujbt2+dj9U4jm3dunVS5U1ebUtMTMTd3d0ssR89ejR79+41S6RiYmJqVLsUCkWNpNkWo0ePNjtGTEwM2dnZjZoQUb2mppOTE926dZOHAAgJCSEgIICDBw+yZ88eOnbsiEqlkjfDYDCQmZnJ9evX8fb2pnXr1gDcunWLN954Q0q8bB2bZYlGo7mnXbG3b98GQKVS1bnuZlJSEnl5eTz77LNm2ysrK7l7967ZtvrIzMwkIyOD4OBgvLy85GGbaIuLyT50CGcfH3wtJH+PPfYYDg4OXLp0SR4SBOE+EYlbLbp3717r/xuDv78/KpWKlJQUSktLOXHiBIMHD5Y3M7NmzRref//9Gl+W8mQiJibGLG4UGxvLq6++SkhIiDxEcHAw8fHx5ObmkpubS3Z2NlOmTJE3M5vpGBQUZHc3mPyxyrvuTJMUpVLJlStXzOKxsbFmSYx8f7nU1FSKioqYO3euPFSDm5sbb7/9NkuXLmXWrFmMGDGiRiJtaXKCwWCoUf1avnx5jTaGelYg5ZMTUlJSOHXqlJRoNpacnBzc3NysjrE0jnXTaDQUFhYyYMAAXFxczNqsXLmSyMhI3n33XUpLSwkLC6tRvWsIY1fsP/7xDzw9Pfn5558pqh6zVRfjBALTW3JysrxZgxirbb169aJXr15msTt37lBeXo6vr2+N581WBoOBxMREXFxcCA8Pl4dtUqXTcWLRIvJOnODxOXPwsnB+8/Pzw93d3Wp3ryAI955I3Ky4fv36PVsM3jig3dhFWVuCuG/fPqszI+XJxPLly+VNSElJ4auvvrKaOCiVSimRTElJQaVSoVQqpbhxLJxSqWTmzJlSAlFXFUvO9LHm5OSQkJBgNk7ONEnJycmp0Q0VHR0txUtKSsjOzrY4Q5fqAfJvv/02U6ZMwd3dXR626JlnnqF///4oFAqrz9X9ZpxMYa3qVt8xbgBVVVUYahlQHxISglKptDopwcjHx4dJkyaZJbStW7dm06ZNqNVqvvjiizqHBVijUCho3749fn5+aDQaaaZqU3Kt7k7Mzs6utcJ37Ngxbt68yYgRI2qMfSsoKKC8vNzsc2WvK1eucPLkSYKCgvD395eH61Sl05H83ntciI0lKCaGPjNngqyrWxCEB5NI3Kx46aWX2LNnj9m2devW0a5dO7NtjcHYXbp169Zau0mzs7NZtGgRq1atstqmNnfu3GHu3Lm8//77tZ7sjYmkpUHfR44coX///pSUlDB//nyortDYW3Ez5e/vT3h4OOfPn5eHbOLm5saIESOIj4+3mGyvXr0alUpVoxpmi5kzZ9b6XD3I6jvGTalUUl5ebvU1NRgMXL9+ncLCwhqTEoyMkwc2btzICy+8UGe3Yn0YTLpi3d3drVYI5YKDg80mNqjVaoKDg+XNLHrkkUdo2bIlKSkpHDlyBL1eT0VFBfv37+fy5ctSu7KyMovVNq1WS1JSEoBNs0CtSUpKQqfTWRxbWBdtcTFHpk7ll40beXb9eoLmz8fByUneDID8/HzKy8sJqB4HJwjC/ScSNyv69etHUVGRWZWC6i/DxmasAm3ZsqXWbtLExEReffVVs/Fl9jh79iyPPfZYnX9DUFAQCQkJJCQkWKymZGVlSQlSamoq48ePlzehU6dONle3cnNzSUhIoGfPnvKQTYwTCEaMGFHjPvPz8zlz5ozF6mNtfvjhB7Kysh7Yaht2XKbEXl27dkWn03Hu3Dl5CLVaTWRkJEuWLKFZs2YMHjzY7sShMZh2xZaUlNC3b188PT3lzRpdp06dCAkJQafTsXnzZsaPH09UVBRff/212XJhzs7OvPjii2aTD/R6PQsXLuQ///kPSqWSLl26SDF72HsJELnjCxaQuWcPVTod30+fzgYvLzZ4erJn5Eh0stmjFy9eRKfT1fuxCoLQ+ETiVov58+ebVSmMFabGZqwY9e/fv9Zu0g4dOjQokWjZsiVz5syRb67BWAELDw+vUW2aP38+4eHhKJVKFAoFgwYNYvv27fj6+nLgwAHCw8MZPXq0xXFhpkzHuCmVSsLDw+16fk3HuBmTNWtjveypmhlXRRg/fjw7d+60eb97QT45QalUsnbt2joTcXt169aNjh078p///IfCwkJ5GKrXrJwyZUq9EofG5O7uztixY4mOjr4nCaSjoyNTpkxh0qRJ0vAAd3d3xowZQ6dOnaR2ffr0qdEFXFlZSUlJCW5ubkycOLHeEwrsvQSIXJWN69EWFhZy9OhROnbsaHWiiiAI955YZF4QBJAtMp+UlMTatWsJDQ1l+vTpTdLVKdhPq9Xy4YcfUlBQwJIlS+qd/NXFYDDw5Zdfsn//ft58800GDBgAYpF5QXggiMRNEASQJW56vZ4NGzaQmJjIuHHjePnll3FwaNoCvVqtZvv27fLNksDAQBYsWFDvmZh/BGlpaSxbtoznn3+eCRMmyMONwmAwsHv3br7++mtGjRrFhAkTpGqmSNwE4f5r2jOxIAi1qm3mp/HWVGuf1sbR0ZHp06czbNgw/P3970k3pFC3wMBA4uLimixpM2rRogWDBw/mlVdeEa+9IDxgRMVNEASQVdwEwRJRcROE+08kboIgCIIgCA8J0VUqCIIgCILwkBAVN0EQaqXVauWbBKHRiS5YQbCNSNwEQahVWVlZrcs7CUJDOTs711gaTBAEy0RXqSAIgiAIwkNCJG73QWlpKeHh4bUu9G28TMT9uBTEn0FpaSkvvfQSqampAEyaNMnqcz1p0iTCw8MtLuSem5uLSqVixYoV0qoLlm4rVqwAk9fe+H+5SZMm1fq+MGW8b/l9ubq6Sn9XU9Dr9cTGxnLgwIFaF6IXBFMGg4GjR4+yefNmUcEVhAYQidt99PPPP1v8As/NzWXVqlW0bNlSHhIaiZubG4sWLWLQoEEoFAqys7N55pln5M0AmDNnDqdOneKHH36Qh4iNjaVTp07SclthYWGUlJSYLZWWkpLC0qVLrSaGDbV3716z+1u8eDGDBg1qkuTNYDCwZ88eDh48SFVVFQDZ2dlMnjyZadOmkZeXJ7XdtGkT48ePJyUlBbVaTUREhHSbPHkyn3/+ORUVFWg0GhYuXMiMGTMoKCgAkLZFR0eTkZEhHdMa+fGNN7VaLW/aZAoKCpgxY0aNx3Dy5Ek2btxIREQE27Ztk9pfvXqVv/71r7z33nv8+OOPjB8/nn/+859SUpOYmEhkZKTZNmvk9x0ZGcmcOXM4ffq0vKnN0tLSiIqKMnvMtamsqODnNWvYolKxwdOTbX37cuXwYahO7g0GAwUFBRw6dIgNGzbU+TcJgmCZSNzuo0GDBnH+/PkalZyUlBR69+6Nr6+v2XahcfXr14+ysjIMBgMJCQlW11bt168fixcvZtWqVWavla2LvPfr1++eJhHR0dH4+vqSk5MjDzVYcnIyarWaMWPGMHLkSBQKBR06dGDAgAHk5+dz7NgxAIqKijh//jwdO3akR48e8sNQUlLCvn37+Ne//vWH/wJXKBQMHz4cd3d3jh8/zq1btwD49ddfKSkpITw8nAEDBtC7d2/OnTtHWloaZWVlxMfH4+LiwpgxY+xecsxgMJCTk8P69eu5evWqPFwng8FAYmIiTk5OhIaGysM1VOn1nFyyhJOLF6MtKgKgOCuL76KjuXX2LAAODg6MGTOGsLAwjh07xvHjx2VHEQTBFiJxu48CAgJo1aoV6enp0rbS0lI+++wzhg4dataW6m40a11iK1askLrzjF1oxv8bu+fq2s/0fozbUlNTcXV1rdHGeEzTY1laBcC0omitK9HYxtJjMTL+TaZVK/m22roZU1NT6dChA6mpqWb/Ntq3b1+tXYzR0dFkZWWZVd2M1TZrlboHlaXXyXiz9vxRPUlh9+7dtG/fnmHDhqGovqK+wiQxMS5Mn5mZSV5eHgMHDsTV1VU6xrx58/jmm2947733cHd35/Tp0+Tn55vcS8PMmzcPtVot3SIiIuRNamWs9C1cuBCNRiMP10qr1aLX6xk4cCBqtZqBAwdKMWNym5eXR3JyMlqtlpSUFJRKJX369KF58+a8+OKLABw4cIDU1FQuX77M0KFDeeSRR0zupXaBgYF88cUXxMXF0bdvX+7evUtFRYW8WZ1u3LjB6dOn6dWrF+3atZOHa3BwdKT7hAn0iI5mUkYGr+fl8ejUqeg1Gm6dOSO1c3R05C9/+Qtt27blwIEDlJWVmR1HEIS6icTNCnmyo1AorCYVDTF06FDWrFkj/d+YxAUGBpq0+v9JTXZ2ttQNV1JSQv/+/Xn77bdrPKbY2FjCw8NJSEgA4IUXXoDqKoexK23s2LHk5uaa7Uf1l3psbKzZNh8fHwoLC80SzB9++IHExETp/6mpqcyaNYuUlBSpy2758uUsXbrULBky7UosKSkhLCxMit0vubm5zJ49W77ZjL+/PzNnzpSqbqWlpcTHx9dZbcPkObU3iagv4+s/atQoeQiAUaNGmXWtmt4+//xzeXPJxYsXuXz5MoMGDaJVq1ZmsQ4dOhAaGkpOTg5nz57lp59+wsPDg6CgILN2VCd6nTt3pl27dty9e7fG+7chVq5cSUREBBMnTpS6Yu+VkpIS7t69K98MJsmth4cHx44dIyMjg8zMTIKDg6WF4gMDAwkODubMmTNs3rwZX19fswTZHjqdjvLyclxcXHB3d5eH65SSkkJRURFhYWE2V/t8+/QhbM0aXFq3ppmzM24BAQA4mSTuAF5eXgQHB3P58mUuXrxoFhMEoW4icbMiLi6OVatWmX2prVq1iri4OHnTBgkKCiI7O1tKoo4cOUJISEiNZGD+/Plm3Xlubm6MGDHCrA3VSchXX33FnDlzoDoRzMzMZNWqVdK+8+fPJzs7G39//xr7Llq0SPrlb2rUqFEcOXJE+r9arebFF1/Ex8cHqrsDr1y5Qr9+/aQ2gwcPluIPspiYGPr27VvnYzWOY1u3bp1UeZNX2xITE3F3dzdL+EePHs3evXvNEqmYmJga1S6FQlEjabbF6NGjzY4RExNDdnZ2oyZEABkZGTg5OdGtWzd5CIVCwZAhQ2jVqhVffvklSUlJPProo7Rt21beFIPBQGZmJtevX8fb25vWrVsDcOvWLd544w0p8UpLS5PvajONRnPPu2KN5wmlUikPQXVyGxISwqVLl9i4cSOVlZX0799fijs6OjJ69GicnZ0pLy9n+PDh0nNjq7S0NCZOnMjkyZPJzMwkOjoaPz8/ebNalZWVcezYMavd3LbQFheTfegQzj4++PbpIw/z2GOP4eDgwKVLl+QhQRDqIBK3WnTv3r3W/zcGf39/VCoVKSkplJaWcuLECQYPHixvJjHt5oqJiTGLJSYm8vjjj/PZZ59JCVROTg4KhcLql4mp2NhYXn31VUJCQuQhgoODiY+PJzc3l9zcXLKzs5kyZYq8mdlMx6CgILu7weSJj7zrzjRJUSqVXLlyxSweGxtrlsTI95dLTU2lqKiIuXPnykM1uLm58fbbb7N06VJmzZrFiBEjaiTYliYnGAyGGtWv5cuX12hjMBiIjo42a2cL+eSElJQUTp06JSWajSUnJwc3NzerYy+NiUlhYSFarZannnoKhaxatHLlSiIjI3n33XcpLS0lLCysRvWuIYxdsf/4xz/w9PTk559/pqh6zFVtVq9ebZYwGhOgiIgIVq9eLW9uUWFhIRqNxuqFZE2T25ycHLp06YJKpTJrk5+fL1UJMzMzG5R06nQ6tmzZQmZmpjxUqwsXLpCdnc2wYcPMurltVaXTcWLRIvJOnODxOXPwsnDe9PPzw93dnWvXrslDgiDUQSRuVly/fp2SkhL55iZhHLhu7Iq0lCAax4cZZ+kZqrsiTYWFhbF//34GDRpk9wzGlJQUvvrqK6uJg1KplBLMlJQUVCqVWTJoHAunVCqZOXOmlEDUVcWSM018cnJySEhIMBsnZ5qk5OTk0KFDB7P9o6OjpXhJSQnZ2dkWZ+5S3bX19ttvM2XKFJu7k5555hn69++PQqGw+lzdb8bJFNaqbvUd4wZQVVWFwcolQIyJibu7e53VGh8fHyZNmmSW0LZu3ZpNmzahVqv54osvagwXsJVCoaB9+/b4+fmh0WikmapNLT09HYVCQUB1F6ElHTp04Mknn0RRPfTCNMnTaDTs3LkTZ2dn/P39OXHiBOfOnTPbvy7GMW7bt28nKiqKoqIis0p5XbRaLfv376dNmzY8/vjj8nCdqnQ6kt97jwuxsQTFxNBn5kyoR1evIAjWicTNipdeeok9e/aYbVu3bp1NA3XtZewu3bp1q8VuUuN4quXLl1NWViZV086fP2/Wjupjmc6AVCqVUpJjzZ07d5g7dy7vv/9+je5TU8YE09Kg7yNHjtC/f39KSkqYP38+VFdo7K24mfL39yc8PNzi32kLY3dyfHy8xSR89erVqFSqGtUwW8ycObPW5+pBVt8xbkqlkvLycquvaVVVFZmZmWg0mhqTEoyMkwc2btzICy+8YPP4KXsYTLpi3d3drVYITc2dO9csYTQmQGq12qZq7M2bNzl16hQBAQF06dJFHpbcuXOHK1euSJMSTJ08eZL09HSee+45XnvtNQB27txp9yQJo/qM78vMzCQjI8Ns7J2ttMXFHJk6lV82buTZ9esJmj8fBycneTOoriyWl5fXmuQKgmCZSNys6NevH0VFRWbVCKq/9BqbsdqzZcuWWrtJTROYFStWWB0PZToDsnv37nTu3NlsAoR8VuXZs2d57LHH6vzbgoKCSEhIICEhweKg86ysLClBSk1NZfz48fImqFSqGompNbm5uSQkJNCzZ095yCbGhHfEiBE1Kmr5+fmcOXOmRtWyLj/88ANZWVkPbLUNOy5TYq+uXbui0+ksVoFWr17NuHHjWLduHW3btrXY3X4vmHbFlpSU0LdvXzw9PeXNGlVGRgbvvPMOubm5XL16lddff52IiAjp0ihbt24lNTWV6OhoXn/9dS5evEh4eLhZYnTr1i127NiBp6cnzz77LL1796ZXr16kp6dz8uRJk3urnbGLd/z48ajVapycnCx+Vi0x2HkJELnjCxaQuWcPVTod30+fzgYvLzZ4erJn5Eh0stmjFy9eRKfT1ZrkCoJgmUjcajF//nyzaoSxktTYjJWh/v37W+wmdXNz46uvviIhIUFKIuPj4/nyyy85deqU2WxPTGZAzp49m5KSEr799luys7OlfQcNGsSuXbukyl3Lli2lyQy1MVbAwsPDa1Sb5s+fT3h4OEqlUrqP7du34+vry65du1CpVMTExNSo1MmZjnFTKpWEh4fb9bybjnEzJmvWxnrZUzUz7areuXOnzfvdC/LJCUqlkrVr19aZiNurW7dudOzYUbrkhyU+Pj7MmDHD7i7yxubu7s7YsWOJjo6WfnQ9CBwcHHjuuecYOXKktM1gMHDo0CHy8vIICwvD39+f5s2bM2LECBwdHdmxY4d07TdbOTg4SJ+5vn37ysMW2XsJELkqnU6+yaLCwkKOHj1Kx44dLU50EQShdmKReUEQamW6yHxSUhJr164lNDSU6dOnN0lX58Pm6tWrvPvuu/Tp08esW1Wj0fDBBx+Qn5/PBx98gLe3t9l+D5pvv/2WuLg43nnnHZurdPYyGAx8+eWX7N+/nzfffJMBAwaAWGReEOwiEjdBEGplmrjp9Xo2bNhAYmIi48aN4+WXX8bBoWkL92q1mu3bt8s3SwIDA1mwYAEuLi7y0D1RUFDAggUL6N69u8XETavVsnjx4np3WxuPX1vVbd68eQQHB8s326ysrIz3338fgEWLFlkcn9hQBoOB3bt38/XXXzNq1CgmTJggVUNF4iYItmvaM64gCPUiXyVDflOpVBYvoNzUHB0dmT59OsOGDcPf3/+B6oa8X7y9vVm/fn2NSQwuLi4sW7aMf/7zn/VO2u4VV1dXli9fzvLly5skaTNq0aIFgwcP5pVXXhHvHUGoJ1FxEwShVqYVN0FoCqLiJgi2E4mbIAi1qqqqkm8ShEbX1F3ugvBHIRI3QRAEQRCEh4RI3IQGEV1ogiAIgvD/xwDfCyJxExrElnUgBUEQBOGPzMXFxeo6xY1NDCoQBKHBTp48SXR0NCdPnuTatWtMmzaNrVu3ypsJgiAIDSQSN0EQBEEQhIeESNzuA/laoVSvqxkeHs6KFSvM2q5YsYLw8HBKS0ulbbm5uahUKrPrek2aNEmKWzsWJvvu27dPHmoU+fn5fPjhh2RmZspDYENcsKywsJAVK1aQkZEhDz0QBgwYQGxsLAMGDCAgIICNGzdKC6U/DAwGA0ePHmXz5s1i3GYjeNA/53q9ntjYWA4cOIAYLfTgqKioYN26dRw/flweeiA8KOcJkbg9ZPbt24dSqWTmzJlm66hSvYD7/bgoq1FZWRkfffQR2dnZ8hDUEtdoNCxcuJCIiAizm1qtJjs7m8mTJzNt2jTy8vKkfTZt2sT48eM5evQos2fP5vXXXycnJweAvLw8pk2bZrbNmoKCAmbMmMHChQvRaDQAZGdnM2XKFGbMmEFBQYF8F6vy8vJ4/fXX2b17tzxUK0NlJRlqNbGBgWzw9OTzRx7hwuefY6islNpoNBquXbvGP/7xjxpr094Ltb1GVC8yL49FR0eTkZFBRkYG0dHRzJo1i8LCQvR6PcuXLzfb315paWlERUWxbds2eciiyooKfl6zhi0qFRs8PdnWty9XDh+G6s+OwWCgoKCAQ4cOsWHDhgaflI3vwVWrVtl0LH1FBZcPHGD/2LFs9PYmrlcvykze7wC5SUl8PWAAGzw92dS6NUl//zv68nIpXn7jBocnT2ajtzcbPD3ZPWIEd37/3ewY94LFz7nBQMmVK/y0bJn0Pj+zerXpbveMwWBgz549HDx40OxSN1VVVRw8eJCpU6cSERHB5MmT2bVrl/T6Xblyhffff59XX32VyMhIZsyYwY8//ii9d2bMmFHjM2D6OaiLWq022+8vf/kL69evp6ysTN7UJnq9nlWrVtU4d9bmxo0bfPDBB4wbN45x48axcOFCrl27BoBWq2Xfvn1MmzZNenyrVq2yum6xnPw5ioyMZM6cOZw+fVpqo9PpyMvL4+OPPyYpKcls//rYtm0bUVFRpKWlyUMW3evzRH2JxO0hkpuby+zZs9m7d2+Nhdc///xzwsPDefXVV+v9QW8I4y/Yy5cvM3fuXDp37mxX3JoOHTowYMAA8vPzOXbsGFRPiDh//jwdO3ZkwIABPP/889y5c4fvv/8eg8HA999/T35+PsOGDUOpVMoPWSuDwcDhw4ftmnSRk5PD8uXLycnJwdHREQ8PDzZt2sSePXvkTS36bcsWjk6dSnn1yVVz+zaJc+dy+cABqY1SqWT27NkAfPHFF/flNa6v0tJStFothYWF5OTkUFZWJn2R1OcacQaDgcTERJycnAgNDZWHa6jS6zm5ZAknFy9GW/26Fmdl8V10NLfOnoXqa4iNGTOGsLAwjh071uBf/CkpKRQVFREWFmbTTLNfNmzg4IQJXP3+ewwWnpObqanET5hAYfUXUJVOxy/r13Ni4UKq9Hq0xcUcfeMNLu3aJe2fd+IEhyZMoKyOHy+NydrnvCwvjz0jR3L6v/9bep/fL8nJyajVasaMGcPIkSNRKBQYDAZ27drFZ599xp07dwAoKSlh27ZtUu/Ezp07OXv2LDqdDoPBwK1bt9i0aVOT/ZC6e/cuR48e5euvv5aHbHL9+nV+/fVXnnjiCdq2bSsP13Dz5k2WLVvGmTNnqKqqoqqqirS0NFauXEl+fj7Z2dl888035OfnQ/XjO3HiBFu2bKlXAmMwGMjJyWH9+vVcvXoVAHd3d/72t7/h6+vLtm3buHHjhnw3mxUWFpKcnEzXrl1t+r65H+eJ+hKJ20MkNjaWTp068cwzz8hDAMyZM4fMzEwuXrwoD9nE2MUqX15JoVDg6upq1rUr9/vvv5OUlMTQoUPp3r27PFxrvLKyEq1WS2BgIF988QXjx4+XYgqFguHDh+Pu7s5//vMfCgsLyczMJC8vj4EDB+Lq6srAgQPp1KkTiYmJnDt3juPHj9O5c2eGDh1qdj+2uHLlCidOnJBvrpWzszNt2rThf/7nf7h16xaffvopeXl5dO/e3aZumE4jR9LtlVd4NTWVafn5PPWPf4DBQE51omrUvXt3Xn75ZdLT00lJSTGL2cJYNTOtLtqqttfI1Lx581Cr1ajVamJjY+natStarZbmzZvj7e1NRkYG165dQ6fT0aZNmzoropbcuHGD06dP06tXL9q1aycP1+Dg6Ej3CRPoER3NpIwMXs/L49GpU9FrNNw6c0Zq5+joyF/+8hfatm3LgQMH6p0cl5WVcezYMTp27EiPHj3kYYvaP/ss3SdM4KVDh3ALCDCLVen1nPvkE7RFRQQvXsy0/Hwijx3DLSCA33ftoujSJa4cPsz1xESUTz/N5Kws/nr1Kl1eeonCixfJPnTI7Hi1ach7hFo+565+fnR64QWe27SJ/gsWmO1zL5WVlbF7927at2/PsGHDpGW3bty4wXfffYebmxvvv/8+33zzDXPmzMHR0ZHExESKiopo06YN//Vf/8W///1vtm3bxtNPP01FRQVFRUXSsmdqtZp58+YBMH78eLPPga3mzZvHN998Q0xMDM2bN6e4uFjexCZJSUnodDrCwsJsWl7syJEj5ObmEhYWxrZt2/jXv/5Fjx49uH79Oj/99BPNmjVjyJAhbNmyBbVazdKlS2nZsiWFhYXodDr54awynkPi4uLo27cvd+/epaKiQoq3adOGSZMmkZ+fz9GjR832tce5c+fIy8sjPDzcptme9/o80RAicbPCUhIjH2t2r50/fx6VSmV13cPu3bvTuXNnEhISoLq9Pdzc3EhISDDrgjXeysrK6Nevn3wXyY8//oiTkxNPP/20xZNEbXGtVktJSYnZNlMdOnQgNDSUnJwczp49y08//YSHhwdBQUEAtGrVipdeeomSkhI++ugjbt++zUsvvUSrVq3kh6pVfaptjcFVqeTZjRvx6NIFRbNmeFT/OnSy8DoHBQXh7e3Njz/+iFarlYebTF2vUV1cXV0JDw8nLS2NX3/9lT59+uDt7S1vZhN7q1kAvn36ELZmDS6tW9PM2VlKjpxk63J6eXkRHBzM5cuX6/0D6MKFC1y+fFn6YWEL3z59eOaTT3BXqeQhKgoKuJmaile3bnSPikJXXs7Fr7+m/MYN7hYWUpyVxbWEBFAoePzNN2neqhVXjxzhRnVyn5ecLD9kk7H6OVcoCP3wQ7qOG4eDk5PpLvfUxYsXuXz5MoMGDTI7P1y7do2CggJCQkLo0aMHCoWCAQMG0LNnTwoKCrh58yYTJkzgiSeewMHBgaqqKgwGA46OjjYlBfVRVlZGVVUVbdq0kYfqZG+16e7du6SlpUnn0ubNm+Pu7s7YsWNxdHQkPT2dzp07M3HiRFq1aoXBYJCq5S1atKBZs2byQ9ZJp9NRXl6Oi4sL7u7uZrEePXrQsWNHfvrpp3qdj7VaLQkJCfj5+dGnTx952Kp7eZ5oCJG4WREXF8eqVavMkpdVq1YRFxcnb3pP9ezZU76phubNmzNixAjUanWNKllsbCxXrlwx29ZQGo2G7OxslEqlxZNMXXHjScDb2xtnZ2d5GIVCwZAhQ2jVqhVffvklSUlJPProo2bl/6CgIHr06EFxcTE9evSQkjp7ZGdnk5SURL9+/fDx8ZGHraqoqODmzZu89dZbtG7dmtdffx0/Pz/S09NrJKl1qdLpyNy7F4WDA8qBA+VhfH196dSpEzk5Off0R0Rdr5HRypUrpTEsxjGCldVj9dq3b09BQQG//PKLXSdTU/WpZslpi4vJPnQIZx8ffC08jsceewwHBwcuXbokD9VJr9eTmJho9sOioTQ3b6K5fZsW3t5c3r+fuJ49Ofvxx1RVVzkKL1yg5MoVHJ2dqbh1i11DhnB48mRKq8cmleXmmo2Fayp1fc4fBBkZGTg5OdGtWzez7ZWVlRgMBrMfE8bkRaPRUFRURHJysvTejoqK4sSJE4wePZrevXubHauhVq5cSWRkJB9//DGBgYGMHj1a3qRO9labjF2jLVq0MPux4ebmRvPmzSkoKODOnTvSONfIyEiWLFlCq1ateO2112y6D6O0tDQmTpzI5MmTyczMJDo6Gj8/P7M2rq6uZkmzvTIzM8nIyCA4OBgvLy952CZNeZ5oKJG41ULepSf///1gaxVt/vz5bN++naCgILOqYXx8PB06dJA3bxCNRkNBQQGtW7fGxcVFHq4zXlBQgEajwcnJyWqi06FDB0JCQigsLESr1fLUU0+ZtS0rK5PGpty8edPmAbOmDh48iIODA8OGDbNr3USlUklMTAxKpRK9Xk9RURFvvPEGL774orxp7QwGzn3yCenbthE4caLFxM3R0ZHOnTtTVlYmjTWpi3HiwMSJE0lLS5NOnBEREay2cYC4La+RNcbuUH9/fwDu3LlDly5dcHNzo6SkxK7K4YULF8jOzmbYsGE2V7NMVel0nFi0iLwTJ3h8zhy8LHym/fz8cHd3lwZl28M4rujpp5+2aVyRLar0egyVleSdPMmPb72FtqSEXm+8Qd+33gKgmYsLVXo9eo2G72fM4Obp07R54gmeXb8eRxcXHFu0gDrez43xHqnrc95QxkkupgP47Z3ckpOTg5ubG76+vvKQVc2aNbNYUaqsrGT//v01fhw3pt9++40vv/zSrjFkxmqTSqWib9++8nC9WPvc5+XlsXXr1np1q1NddduyZYvF2cePPPII5eXldk0Qw2QMrIuLC+Hh4fKwTZr6PNFQtX+a/8SuX7/eoK6hptCzZ0+ys7OtVlrS09PJzMxk8ODBAIwaNapGl+dXX30l301iqXvYeKtrjBvVv9oMtYzpsha/fv065eXltG/fXh6SGKtu7u7uFqstR48e5dq1a3Tp0oWbN2+yb98+i/dlTVZWFsnJyYSEhKCy0F1lCz8/Pz799FNeeukleahuBgO/fvopye+9R7dXXiH0ww/va5eSnC2vEbIxbuvXrzerYLi6uhIQEEBAQIBUubt7965UkauLVqtl//79tGnThscff1werlOVTkfye+9xITaWoJgY+sycCRa+jOrLYDBw8OBBgJpdhQ3Q0s8P5+oKsGrECMafOsXAFSvQVZ8HPLp0wb36dWnVqRPDt21jzOHDOLdujb6iApe2bXGspUra2Kx9zh8Ulh5fs2bNUCgUZkmCcXhAixYt8PDwIDg4WHpvb9++nb/+9a9UVlbyww8/2JVY1cX4Gfroo48ICAggOTnZrqsFnDt3jgsXLtToDq6Ng4MDDg4O3L1712zMlnFikaenJx4eHixbtkx6DtauXcsjjzzChQsXLCZe1hjHuG3fvp2oqCiKioo4cuSIvFm9XblyhZMnTxIUFCT9WLRHU58nGoNI3Kx46aWXaswKXLdunU2DoZtKdHQ0WVlZ/PDDD/IQAGvWrKFz5871rgzWd4ybi4sL3t7e5Ofnmw0ytSVeVlbG999/j4eHR62/DquqqsjMzESj0dQYO5STk8OhQ4fo1KkTs2fPJiAggB9//JHf7bgUwt27d3F1dWXIkCGN9oVrK+Ovu2Pz5xP0978TvnYtji1byptBdXJw7do1XF1dbe7OnTt3Lmq1mi+++ILAwEDpxKlWq5k7d668eQ22vkZ1USgUzJkzh5iYGJvHpplqSPeHtriYI1On8svGjTy7fj1B8+dbTYzz8/MpLy8nQDZJoC72TpqwVQtPT3x69kTh4ECn55+nVadO5CUnc/Hf/8bV3x+vbt3wCw4GoG1QEMqnn6aioICfP/oIDAYCbKg6NPQ9Qh2f88bQtWtXYmNjpcRBXX35DHsolUrKy8trVKvbtm2Lu7s7J06c4MKFCxgMBk6ePMn58+fx9/fH2dmZjz/+mPPnz6PX62nWrBlt2rSxqzJvr6qqKruq0TSgq75FixYEBARQXFzM7t27paR1586dVFZW0qdPHw4ePMiOHTuk3gxPT88aY9PsVdv75Nq1a7Rs2dLusbD2TsowdS/OE42h6d51D7l+/fpRVFRkVnWiuop1v/j7+7N27VpGjx5d4+K6kyZNIiEhga+++srq5IWm4uLigkql4urVqxbLxtbiBQUFvPPOO5w/f56ioiLefvttIiIi2L59OwB79+4lIyOD1atXM27cONatW0fbtm0JCQmRjqHX69mxYwd37txhxIgRtG/fniFDhqDRaMyuwWSLZ555ptG7kW3x66ZNnF27FgwGTn3wAZtat2aDp6fFa3nduXNHGkd0L15nW18jI9MxbsbrVxUUFFgdwCyvfFhjsPMSIHLHFywgc88eqnQ6vp8+nQ1eXmzw9GTPyJHoZLPCLl68iE6no0uXLmbb61KfSRNG2QcPssHTky8CAym9do3Sa9f4IjCQuF69uHvnDj0nTwYg4W9/Y5OvL7uHD0dbVETv6dNx79AB1bBheHXrRsY337ClfXs+79qVnP/8h3ZhYXQYMkR+d03C2uccQFdWxp6RI9ng6UnykiUAJC9Zcs+v59a1a1d0Oh3nzp0z2x4QEMBTTz1FSUkJixYtIjIykjVr1kD1Od/Z2Znz58+zePFixo8fT2RkJMuXL0en09GnTx+7X+/aGD9Db731Fjdu3KBLly42d7vbewkQU8OGDcPDw4PExEQmTJjA5MmTuXDhgjRmuLS0lK+++orXX39dGud35swZ2rZta9dll4zd8MZZt05OTjWSTK1Wy4ULF/D29rZrvKS9kzLk7sV5ojGIxK0W8+fPN6s6ya+d1hD5+flm48/c3d1JTEwkJibGLFmMiYkx22/UqFGUlJQQHx9fI6nMzs6uV2m4MQwaNIiqqirpWmpydcVt4ePjw4wZM8wqTWlpaSQnJ9OpUyepIhgSEkJAQACnT5/mp59+MjmCdV5eXjz77LN2/0JrDJV2TKU/ceIEeXl5DBo0yK4BwfdTeXm5NMhZzjh2ri4NrWYZB/LXpbCwkKNHj9KxY8caA9hr0xiTJmqjGj6c5zZvpmX1IO7mHh6ELFsmdeO4KpUM27YNv+ofNQoHB7qMGcNzmzbR3MbussbQGJ/zptStWzc6duwoXVrISKFQEB0dzdixY6XxeX5+fsyePZunnnoKLy8vZs2aRdeuXXFwcEChUNC6dWtmz57N8OHDTe6h8bi6ujJ8+HDeeusti58dSxpSbVKpVPzXf/0XnTt3RqFQ4OTkRFhYGG+99Raurq48//zzvPDCC1KVrUWLFoSEhLBgwQK7K+BUd8+qVCpiYmJqVPJ//fVX0tLSePLJJ/Hw8DCL1cbeSRlyTX2eaCwKw4P46RIeGsap2nq9ng0bNpCUlMTs2bNrVEUsxYuKinj33Xdxc3NjwYIFZgOaV69ezenTp1m0aJFd10D6I8vJyeHdd9+lXbt2zJ8/v0kGgMs9KK/Rt99+S1xcHO+8806NX+eNxWAw8OWXX7J//37efPNNBgwYIG9iVUpKCv/93/9NVFQUL7zwgjz8p2Hpc/6gSUpKYu3atYSGhjJ9+vRGrZbdT4WFhSxZsgRvb2/+/ve/1ytxeRAUFxezbNky7t69y+LFi20eEqLVavnwww8pKChgyZIl9UombWHtPOHi4nLPnnNRcRMahaOjI+PGjcPX15fNmzdz4cKFOuPNmzevtbuvRYsWDR5DYWkpJtObrTPm7rebN2+ycuVKnJycmDp16j1J2qi+JEJTv0Z1aepqFtUn4927d/Ptt9/ywgsvEFw9ZswW9R1X9Edk6XP+oAkODiY0NJTExER27dolXY+sKRnH41m71feCx6YaWm1qiIJalvwy3pJtuJ5gWVkZq1evJi8vjzfeeMPmpI0GjoG1VUPOE41JVNyEBpFfHPHmzZts2bKF6Ohoi+Me6oo3ttWrV0tLZVkycOBAmwdf30/5+fmsX7+eV155pcmrW39GBoOB+Ph4cnJyeO211/4wVZj75V5/zu2l1+vZunUrgYGBhIaG2t2taC/jTFRrAgMDa1S0HyYFBQUsWLCAW7duyUOSefPm1ZnolJWV8emnn/Lkk0/y1FNPycP3XW3niXtZcROJm9Ag9ix1IgiCIAh/VE5WZqA2NpG4CYIgCIIgPCRE4nYfiKdcEOrW1N1XgiAIDyORuN0H8nFhgiCYc3Z2pkWLFvLNgiAIf3piVqkgCIIgCMJDQiRufwD5+fl8+OGHdq0Xdy8ZDAYOHDhAbGysXSsZ/NlVVFSwbt06jh8/Lg/9YZw5c4b/+3//r9n6iIIgCIJ1InG7z2JjY5k1a5bZVbztUVZWxkcffUR2drbZdm1xMRe//podzzxjdcmOe+X48ePExcXVWEw8OTm5xrV+ZsyYQVZWFm+++SZRUVGkpaVJ7ePj44mIiGDXrl0sXLiQqKgofv31V6h+HmJiYsy21SYjI4Po6GjpfseNG8ff//53srKy5E1rpdfrWb58OYsXL+bu3bvysFWmSwBt8PRko7c3hydPpvzGjf9to9ORl5fHxx9/TFJSktn+9ZGWlkZUVBTbtm2Thyyq8z1kMPD7zp3EBgaywdOTLSoVZ9euNbv6eG5SEl8PGMAGT082tW5N0t//jr68vHp3AyUlJZw6dYoVK1aI5E0QBMEGInG7DwwGA//+97/ZsWMHjo6OeHl5kZaWxgcffFBj8ePa6PV6YmNjuXz5MnPnzv3ftdkMBpJiYvh+2jRunTkj3+2eunTpEps3b2bAgAFMnDjRputjeXh4MGTIECoqKjh8+DB6vR6tVktKSgo+Pj6EhIQwduxYKisrOXDgAHq9npSUFC5dukRwcDCBgYHyQ9apqqqKjIwM1qxZQ3FxsTxcg16vZ926dSQlJdG8eXM8PT05efIkK1eurNeFNA1VVVzatYsf/8//QV+98LK7uzt/+9vf8PX1Zdu2bdwwSersZbB3rU8b3kOZ+/ZxdOpUyqvXU9UWFXFi4UJ+2bgRgJupqcRPmEBhdfJdpdPxy/r1nFi4kCq9HoVCwdNPP01ERAQXLlzgwIEDYuKOIAhCHUTidh8YDAY6duxIcnIyu3btIiMjgy1bthAYGGjXBRh///13kpKSGDp0KN27d//fgEJB5xdfpPe0aYzcsQNHO47ZmPR6Pbt378bR0ZGIiIgaSZsxwZk3bx6bNm2idevWUiw0NJR27dpx+vRprl+/zo0bN8jKypIWT+7Tpw99+/bl3LlznDlzhsOHD+Pp6cnLL79c435qM3DgQNRqNRs3bkSlUlFRUWFTd25VVRWBgYF88803HD9+nOTkZNRqNU888YTFxdTlnFxdeXH/fqbfucP0O3cYl5SEi68vhWlp6EpKpHZt2rRh0qRJ5Ofnc/ToUbNj2MPutT7reA9pi4s5W70I9+AtW5iWn8/zajWOLi6kx8VRfvMm5z75BG1REcGLFzMtP5/IY8dwCwjg9127KLp0qfpuFIwaNYpevXpx5MiRBiWngiAIfwYicXuI/fjjjzg5OfH000/XuHSCatgwQleswNmOJUMaW25uLr/99htBQUH4+/vLw9y+fVu+SeLl5cWwYcMoLS0lKSmJs2fPotVqpcWTHR0dGTNmDA4ODqxdu5bff/+dYcOG1fsq7RUVFVRUVODh4XHvZzMaDNwtKkJXVoZXYCBOsiWkevToQceOHfnpp5/qPSM5JSWFoqIiwsLCbE5sa3sPlVy5QkFaGgHPPEOn55+n/MYNLu3ciV6joTg7m/zffuNmaipe3brRPSoKXXk5F7/+mvIbN7hbWEixSZd08+bNCQ8Pp6CggDNWqnuCIAjC/ycSt/tAoVBw+fJlgoODGTNmDF27duWvf/0raWlpNnezaTQasrOzUSqVtGnTRh5+IFy9epXi4mJ69+5dI7Gkumrl4uJidV25kJAQAgICOHjwIHv27KFjx46oVCop/sgjjxAaGkpZWRlt27blueeeM9vfFseOHSMiIoI333wTjUbDa6+9hqurq7xZDQ4ODqSlpREZGclTTz1FcHAwERERnD59usZYPmukcW5eXux5/nncAgIYuGIFjs7OZu1cXV3p2bMnBQUF3Lx50yxmi6ZY67MsNxddaSlOrq78snEjXz72GOnVY+f0Gg1Fv/+O5vZtWnh7c3n/fuJ69uTsxx9L49+MFTej7t274+npSXp6utl2QRAEwZxI3O4DhULBuHHjePnll9Hr9RQWFkpr1dm6qK5Go6GgoIDWrVvb1b1qK41Gw8KFC80mDti7EHJOTg4tW7Y06wI1lZOTg4ODg9UKkJeXF0OGDEGj0VBYWMiAAQPM/ladTidV7QoLCxvczVZcXMzGjRttGmfo6OjIrFmzCA0NRavVcufOHQYMGMC8efPq/Xrcycjgx7lz0VoYY/fII49QXl5OQUGBPFSnCxcukJ2dzbBhw2xKSm1hqE5OM/fu5eS77wIw4L336Dx6NCgUKBwcMFRWknfyJD++9RbakhJ6vfEGfd96CwDHli3Njufh4UGbNm24ffu2Xe8xQRCEPxuRuN1n0dHRrFu3zmrVqS5VVVUP9IBug8Fg8fGVlpaSk5ODm5tbrX97SEgISqUSHx8fgoKCzGIpKSn88ssvdOzYEZ1Ox44dO9BqtWZt6mIc4xYXF8dzzz3H1atX+emnn+TNrHJ0dCQmJoalS5fa3cVqOs4tOi0N5dNPc+XIEbIPHpQ3rTetVsv+/ftp06YNjz/+uDxcby39/KRxb4/+9a/85Zdf6D1tGrqyMpxcXfF45BGpi1U1YgTjT51i4IoV6EpLAXALCDA7niAIgmAbkbg9pFxcXPD29iY/P5+K6lmIjcnFxYVly5ahVqul27Jly+yqJimVSjQajcWxbGfPnuXq1av07dsXT09PeRiqk77r169TWFgoTUowKi4uZvfu3bi7uzN79mx69erFL7/8QkpKitkx7GHP5TwaW/NWrfDq1k2+WXLt2jVatmyJt7e3PFSrzMxMMjIyCA4OrjVBtpd7+/a0Uqlo7uFBx5EjcfH1JfPbb7n2ww94Bwbi07MnPj17onBwoNPzz9OqUyfykpO5+O9/4+rvX+NvLS8v5/bt2/j6+tr1HhMEQfizEYnbQ8rFxQWVSsXVq1e5du2aPMyZ1avZ4OnJjvBw9BoNuUlJfNauXc1rcTWh9u3b06pVK1JSUsyqbmq1mv/5n/9Bp9Nx8OBBIiMjeeONN7h16xa3bt0iNjYWtVpNZGQkS5YsoVmzZgwePNhsnNx3331HZmYmYWFhqFQqRowYgUKhYPfu3TZdzsPIOMYtKiqKY8eO4eHhQc+ePeXNGl1ZXh5xvXpJ13HbrFTy22ef4dWtG8qBA83aarVaLly4gLe3t13jGe2+BIhMbe+hZs7OdI+KQltUxP6XX2aTry9Hp04F4LE5c3Bp3ZqekycDkPC3v7HJ15fdw4ejLSqi9/TpuHfoYHZfWVlZFBUVmc+OFgRBEGoQidtDbNCgQVRVVfH9999b7I683/z9/Xn00Uc5c+YMV65ckYdt4uLiwpQpU/73GnXVY+MOHTqEl5cXzz77LAqFgl69etGrVy8yMzP57rvvzI5hCycnJwIDA3n33XfNJkDcK44tW9IjOpoXdu/GVTYz9tdffyUtLY0nn3wSDw8Ps1ht7L4EiJ16T5tGyLJlNK9+TC39/Hhu82Y6jxoFgGr4cJ7bvJmWfn4ANPfwIGTZMvrMnAkmSbhWq+XQoUN4eHjQt29fabsgCIJQk1hk/j6o7yUd5PR6PRs2bCApKYnZs2fXq6rS1NLT01m+fDnt27dn/vz5uLq6Eh8fz2effca8efMIDg6W2mZkZPD+++/zxBNPMHfuXLPj/FkVFxezbNky7t69y+LFi22evALw7bffEhcXxzvvvFNjfOCD5IcffmDDhg2MHz+eMWPGgFhkXhAEwSpRcXuIOTo6Mm7cOHx9fdm8eTMXLlyQN7nvunXrxgsvvMCFCxfYsmULWq22znFadcXrIl/OSn6Ljo4mIyNDvtsDp6ysjNWrV5OXl8cbb7xhV9LWFJcAaQrHjx9n8+bNhISEMHLkSHlYEARBkBEVt/ugsSpuRjdv3mTLli1ER0fX+wK0TclgMLBnzx4qKyuli+Y2JWPlrrx6TUy5li1bsmjRIrp27SoPPVDKysr49NNPefLJJ3nqqafk4T+En376icTERGbOnGl2qRJRcRMEQbBMJG73QWMnboLwRyMSN0EQBMtE4nYfVFVVyTcJgiDT1JVZQRCEh5FI3ARBEARBEB4SInET7rnKykpRdbSBk5OTfJMgCILwJycSN+Geq6yspLR66SPBMhcXF5o3by7fLAiCIPzJiUEkgiAIgiAID4mHMnErLS0lPDycSZMmyUOSffv2oVAo2Ldvn7RtxYoVKBSKGjdXV1dSU1Ol465YscLsWCtWrCA8PNysSpSamkqHDh1ITU01aysIgiAIgtBUHsrEzejnn3+ukWQB5ObmsmrVKlq2bCkPERYWRklJCQaDAYPBQEpKil0XNhUaT0FBATNmzKhxgdzk5GS+/fZbIiIiWLVqFXq9HqovozJ37lzefPNNDh8+zPjx4/nnP/8pxRMTE4mMjDTbZo38viMjI5kzZw6nT5+WN63Tb7/9RlRUlN0L3FdWVPDzmjVsUanY4OnJtr59uXL4MIjRC4IgCIIVD3XiNmjQIM6fP19jvFRKSgq9e/fG19fXbLvw8AgNDaVdu3acPXuWrKwsADIzM8nLyyM4OJiwsDB69+7NuXPnSEtLo6ysjPj4eFxcXBgzZgyOjo7yQ9bKYDCQk5PD+vXruXr1qjxs0W+//cbq1aspLi7Gzc0NnU7HqlWrSE5OljetoUqv5+SSJZxcvBht9XX9irOy+C46mltnz8qbC4IgCAI87IlbQEAArVq1Ij09XdpWWlrKZ599xtChQ83a3mu5ubmoVCqpO1alUpGbmytvVqOd8Wbs4jV2yS5cuLBG165Ramoqrq6uZvubdiNPmjTJLGbs9jV2JxtvptVL+T7yY5oydjHL2yssPFZTWq0WvV7PwIEDUavVDBw4UIp5eXkxZMgQysvL+f777zEYDJw6dQoXFxdCQ0Np3rw5L774IgAHDhwgNTWVy5cvM3ToUB555BGTe6ldYGAgX3zxBXFxcfTt25e7d+9SUVEhb2ZRq1atAFizZg35+fmsXbuWZs2a2bR6hYOjI90nTKBHdDSTMjJ4PS+PR6dORa/RcOvMGXlzQRAEQYCmTNwsfZnLx4k1hqFDh7JmzRrp/8YkLjAw0KTV/1KpVLi5uck3N6rc3FwGDBhAeHi41CUbHh7Oq6++avXv37t3r9R27969zJ49W0r08vPz+eKLL8jJycFgMLB48WLGjh1Lbm4uubm5jB07lu3bt5vtHxsbaza+Lzo6WoonJCSwbt06xo8fT0pKitRlvHTpUrPkzXSfnJwcEhISzI5p5ObmRkJCgtTW9FZWVka/fv3kuwBQUlLC3bt35ZsloaGhtG/fntOnT5Oens5vv/1Gr169aNeuHVS/xsHBwZw5c4bNmzfj6+vLsGHDUCgU8kPVSafTUV5ejouLC+7u7vJwk/Dt04ewNWtwad2aZs7OuAUEAOBksvSTIAiCIJhqssRt3bp1JCYmmm1LTExk3bp1ZtsaKigoiOzsbCnJOXLkCCEhIRaTs/Pnz9OzZ0/55kZnHOu0fPlyadvnn39OQkKCxccld/78efkm1q5di7+/PwCzZs2iU6dOxMbG4u/vT3Z2NqNGjZLaBgUF0aFDB5O9zZWWlhIfH8/ixYulpKpfv34sXryY+Ph4i8llTk4Ot2/flm9uEGNyZ61CZay6FRQU8Mknn5CXl0doaKjUDero6Mjo0aNxdnamvLyc4cOH07p1a/lhapWWlsbEiROZPHkymZmZREdH4+fnJ29mUXFxMQBz5szBx8eH2bNnU1lZSU5OjrxpnbTFxWQfOoSzjw++ffrIw4IgCIIATZm4WUo+qGV7ffn7+6NSqUhJSaG0tJQTJ04wePBgebN76vz583Tq1Mmuys3o0aOlymRMTIxZoubj42OW3Li5uaFSqcyeS9MKp1Kp5MqVK1JMrqSkhKysrBpJ7ODBg7lz5w4lJSUAxMbGSo8pKCiIiIgIswSxoQoLC9FoNLVerywkJISAgABycnLw8/Oje/fuZvH8/HypazMzM7POSQm10el0bNmyhczMTHnIokcffZS5c+fSqlUrSktLcXJy4u233yY4OFjetFZVOh0nFi0i78QJHp8zBy/Z3ygIgiAIRk2WuN1LERERqNVqqZtU/uVOdWKTnZ1dI1l5UMi7SsePH291bJgp4xg5d3d3VCqV1K1ZW8XNmpycHAoLC6X/W+oqtTSL11K3uC1j3NLT01EoFARUdxFa4uXlxXPPPQdAcHAwXl5eUkyj0bBz506cnZ3x9/fnxIkTnDt3zmTvuhnHuG3fvp2oqCiKioo4cuSIvFmtHn30UeLi4ggKCpKH6lSl05H83ntciI0lKCaGPjNnQj26egVBEIQ/hyZL3ObMmWPxchwRERHyTQ1m7C7dunWr1W7S9PR07ty5U68vV3v17NmTrKwsqXJlr6CgIHx9faUut/z8fLPuN9Mk1Ngtm5OTw+effy79u7ZuTXd3dzp16lSj+llbpdDf35/w8PAa+1DPMW43b97k1KlTBAQE0KVLF3lYUlFRwe+//467uzuhoaFmsZMnT5Kens5zzz3Ha6+9BsDOnTvRaDRm7Wxl66SExqItLubI1Kn8snEjz65fT9D8+TiIZa4EQRCEWjRZ4tavXz9+/PFHs+Rt7969jdrVZmRMNLZs2WK1m/TIkSM89thjUvdjUzImh7GxsdK2ffv2WZ1ZKmechGDaPWo6WWHdunVkZWURHR0NwO3bt6XEzjhZoby8XNpXzs3NjREjRrB06VKpGpaamsrSpUsZMWKExcS3MSuW6enpvPPOO+Tm5nL16lVef/11IiIiOHbsGABbt27l0qVLzJgxg6ioKI4dO8aTTz4pTUoAuHXrFjt27MDT05Nnn32W3r1706tXL9LT0zl58qTJvdXOOMZt/PjxqNVqnJyc7klyD3B8wQIy9+yhSqfj++nT2eDlxQZPT/aMHInWwjhDQRAEQWiyxI3q5K2srEyqvjRF0oZJItK/f3+L3aSTJk0iJibGbMyW6ditq1evMnbsWPLy8gCIiYkxaxMTE0NiYiLu7u5m++Xn58vvCqqrUydPnuSTTz6R2s+ePZuTJ09aTRxNx7gFBQUxa9YsqVLl4+PDxIkTUSqVKBQKPvnkE+lYo0aNYvHixQQFBaGoHt/24YcfEhYWhlqtlt+NZP78+Wzfvl3aLygoiMWLFzN//nypjenzZUyOZ82aZXKUpqdQKHjssceIioqSJiUYDAYOHTpEXl4eYWFh+Pv707x5c0aMGIGjoyM7duzg1q1b8kPVysHBAZVKRUxMDH379pWHm0SVTiffJAiCIAi1+lMsMm+8/pixK1EuNTWVKVOmEB8fbzWxul9SU1MZM2YMu3btstjl+DDKzMxk3rx59OnTh7lz50rbNRoNH3zwAfn5+XzwwQd4e3ub7fdnIhaZFwRBECxp0oqbIFji6upKixYt5Jsl7u7uDUpa5MtZWbrZsrqBIAiCIDxoROIm3HO+vr6sX7/erNpGdZVp2bJl/POf/7Q4zk4QBEEQ/uz+FF2lwoOlsrLS4kV+hf8lukoFQRAES0TiJtxzlZWV8k2CBc2aNZNvEgRBEP7kROImCIIgCILwkBBj3ARBEARBEB4SInETBEEQBEF4SIjETRAEQRAE4SEhEjdBEARBEISHhEjcBEEQBEEQHhIicRMEQRAEQXhI/D8HG8z/mvaM3gAAAABJRU5ErkJggg==;" vertex="1" parent="1">
          <mxGeometry x="2060" y="745" width="495.28" height="469" as="geometry" />
        </mxCell>
        <mxCell id="TFThWMo9lGhRmUPfmHKP-1" value="Object" style="swimlane;fontStyle=1;align=center;verticalAlign=top;childLayout=stackLayout;horizontal=1;startSize=26;horizontalStack=0;resizeParent=1;resizeParentMax=0;resizeLast=0;collapsible=1;marginBottom=0;whiteSpace=wrap;html=1;" vertex="1" parent="1">
          <mxGeometry x="1020" y="290" width="160" height="100" as="geometry" />
        </mxCell>
        <mxCell id="TFThWMo9lGhRmUPfmHKP-2" value="+Enemy*&lt;div&gt;+Chest&lt;/div&gt;&lt;div&gt;+Altar&lt;/div&gt;&lt;div&gt;+NPC&lt;/div&gt;&lt;div&gt;&lt;br&gt;&lt;/div&gt;" style="text;strokeColor=none;fillColor=none;align=left;verticalAlign=top;spacingLeft=4;spacingRight=4;overflow=hidden;rotatable=0;points=[[0,0.5],[1,0.5]];portConstraint=eastwest;whiteSpace=wrap;html=1;" vertex="1" parent="TFThWMo9lGhRmUPfmHKP-1">
          <mxGeometry y="26" width="160" height="74" as="geometry" />
        </mxCell>
        <mxCell id="TFThWMo9lGhRmUPfmHKP-5" value="" style="endArrow=open;endSize=12;dashed=1;html=1;rounded=0;entryX=0.511;entryY=1.007;entryDx=0;entryDy=0;entryPerimeter=0;" edge="1" parent="1" target="TFThWMo9lGhRmUPfmHKP-2">
          <mxGeometry width="160" relative="1" as="geometry">
            <mxPoint x="1060" y="510" as="sourcePoint" />
            <mxPoint x="1200" y="430" as="targetPoint" />
            <Array as="points">
              <mxPoint x="1100" y="510" />
            </Array>
          </mxGeometry>
        </mxCell>
      </root>
    </mxGraphModel>
  </diagram>
</mxfile>
